<?xml version="1.0" encoding="utf-8"?>
<!DOCTYPE svg PUBLIC "-//W3C//DTD SVG 1.1//EN" "http://www.w3.org/Graphics/SVG/1.1/DTD/svg11.dtd">
<svg width="32" height="43" xmlns:xlink="http://www.w3.org/1999/xlink" xmlns:xml="http://www.w3.org/XML/1998/namespace" version="1.1" xmlns="http://www.w3.org/2000/svg">
  <g transform="translate(16, 21.5)" id="ToCenterGroup">
    <g transform="translate(0, 0)" id="TranslateGroup">
      <g transform="scale(1)" id="ScaleGroup">
        <g transform="scale(1)" id="InversionGroup">
          <g transform="rotate(0, 0, 0)" id="RotateGroup">
            <g transform="translate(-16, -21.5)" id="ToOriginGroup">
              <rect x="0" y="0" width="32" height="43" id="RawSize" style="fill:none;" />
              <path d="M30.988 41.337 L29.468 37.978 L22.116001 21.986 L16.672 0.868 C16.672 0.868 15.77 -1.2879999 14.391001 1.196 L8.711 22.352 C8.711 22.352 1.1170006 39.93 0 41.656998 L0.199 42.476997 C0.988 42.968998 1.965 42.468998 1.965 42.468998 C1.965 42.468998 14.418 32.423 15.09 31.282 C15.09 31.282 15.75 30.484999 16.262001 31.515999 L29.364002 42.531998 C29.363 42.532 31.422 42.97 30.988 41.337 z" />
            </g>
          </g>
        </g>
      </g>
    </g>
  </g>
</svg>