<?xml version="1.0" encoding="utf-8"?>
<!DOCTYPE svg PUBLIC "-//W3C//DTD SVG 1.1//EN" "http://www.w3.org/Graphics/SVG/1.1/DTD/svg11.dtd">
<svg width="15" height="18" xmlns:xlink="http://www.w3.org/1999/xlink" xmlns:xml="http://www.w3.org/XML/1998/namespace" version="1.1" xmlns="http://www.w3.org/2000/svg">
  <g transform="translate(7.5, 9)" id="ToCenterGroup">
    <g transform="translate(0, 0)" id="TranslateGroup">
      <g transform="scale(1)" id="ScaleGroup">
        <g transform="scale(1)" id="InversionGroup">
          <g transform="rotate(0, 0, 0)" id="RotateGroup">
            <g transform="translate(-7.5, -9)" id="ToOriginGroup">
              <rect x="0" y="0" width="15" height="18" id="RawSize" style="fill:none;" />
              <path d="M13.874 11.07 C13.874 11.07 10.061 8.858999 10.061 8.312 C10.061 7.828 13.521999 5.8900003 13.521999 5.8900003 C13.521999 5.8900003 14.983 5.0070004 14.28 3.9520004 C13.483 2.7490005 12.202 3.6080003 12.202 3.6080003 C12.202 3.6080003 9.069 6.047 8.694 5.68 C8.28 5.281 8.545 1.695 8.545 1.695 C8.545 1.695 8.608 -0.016 7.334 0 C5.889 0.016 5.913 1.555 5.913 1.555 C5.913 1.555 6.202 5.461 5.7330003 5.672 C5.256 5.883 2.358 3.594 2.358 3.594 C2.358 3.594 0.959 2.617 0.28 3.695 C-0.493 4.914 0.803 5.734 0.803 5.734 C0.803 5.734 4.506 7.7180004 4.506 8.367001 C4.506 9.016001 0.6860001 11.086 0.6860001 11.086 C0.6860001 11.086 -0.49399984 11.820001 0.24100012 12.961 C0.8660001 13.9140005 2.0140002 13.367001 2.0140002 13.367001 C2.0140002 13.367001 5.264 10.797001 5.7560005 11.172001 C6.1940007 11.516001 5.9120007 15.281001 5.9120007 15.281001 C5.9120007 15.281001 5.881 16.68 7.241 16.68 C8.382 16.68 8.5460005 15.422 8.5460005 15.422 C8.5460005 15.422 8.265 11.281 8.702001 11.117001 C9.39 10.859 12.319 13.211 12.319 13.211 C12.319 13.211 13.475 13.992001 14.21 12.852 C14.834 11.898 13.874 11.07 13.874 11.07 z" />
            </g>
          </g>
        </g>
      </g>
    </g>
  </g>
</svg>