<?xml version="1.0" encoding="utf-8"?>
<!DOCTYPE svg PUBLIC "-//W3C//DTD SVG 1.1//EN" "http://www.w3.org/Graphics/SVG/1.1/DTD/svg11.dtd">
<svg width="32" height="27" xmlns:xlink="http://www.w3.org/1999/xlink" xmlns:xml="http://www.w3.org/XML/1998/namespace" version="1.1" xmlns="http://www.w3.org/2000/svg">
  <g transform="translate(16, 13.5)" id="ToCenterGroup">
    <g transform="translate(0, 0)" id="TranslateGroup">
      <g transform="scale(1)" id="ScaleGroup">
        <g transform="scale(1)" id="InversionGroup">
          <g transform="rotate(0, 0, 0)" id="RotateGroup">
            <g transform="translate(-16, -13.5)" id="ToOriginGroup">
              <rect x="0" y="0" width="32" height="27" id="RawSize" style="fill:none;" />
              <path d="M24.094 8.846 C23.852 8.443999 23.61 8.686 23.281 8.764 C22.961 8.846 20.508 10.3029995 20.101 10.467 C19.694 10.6310005 19.531 10.549 19.453 10.225 C19.366999 9.897 15.664 0.4590006 15.421999 0.2130003 C15.171999 -0.028999701 15.171999 -0.1109997 15.015999 0.2130003 C14.852 0.538 11.164 9.897 11 10.225 C10.844 10.549001 10.922 10.549001 10.594 10.549001 C10.274 10.549001 7.094 8.7560005 6.844 8.596001 C6.6019998 8.436001 6.6019998 8.596001 6.3599997 8.842001 C6.078 9.124 0 24.952 0 24.952 C0.086 25.198 0.328 25.358 0.328 25.358 C0.328 25.358 8.953 19.663 9.281 19.663 C9.601 19.663 9.765 19.745 10.008 19.905 C10.258 20.069 14.813 25.198002 15.055 25.198002 C15.305 25.198002 15.383 25.198002 15.547 25.034002 C15.7109995 24.874002 20.242 19.905003 20.485 19.745003 C20.735 19.581003 20.485 19.745003 21.219 19.745003 C21.516 19.745003 29.657 25.116003 30.063 25.280003 C30.469 25.440002 30.219 25.358002 30.383 24.952003 C30.469 24.741 24.227 9.057 24.094 8.846 z M25.391 19.499 C25.071001 19.499 21.039001 16.897001 20.719002 16.733 C20.391003 16.569 20.227001 16.569 19.906002 16.815 C19.578003 17.061 15.8670025 20.963001 15.625002 21.210001 C15.383002 21.452002 15.055002 21.374 14.734002 21.210001 C14.406002 21.046001 10.906002 16.976002 10.500002 16.733002 C10.094002 16.490002 9.930002 16.491001 9.687002 16.655003 C9.445003 16.815002 5.5460024 19.257002 5.2960024 19.421003 C4.6240025 19.870003 4.726002 18.851004 4.976002 18.523003 C4.976002 18.523003 7.0390024 13.421002 7.5390024 12.750003 C7.7890024 12.422003 7.6250024 12.340003 7.9450026 12.422003 C8.273003 12.504003 11.172003 14.133003 11.578003 14.133003 C11.984003 14.133003 11.984003 14.133003 12.234003 13.887003 C12.476003 13.641003 14.6950035 7.703003 14.937003 7.375003 C15.179003 7.051003 15.179003 7.051003 15.343003 7.297003 C15.507003 7.539003 17.984003 13.563003 18.312004 13.887003 C18.640003 14.215003 18.796003 14.133003 19.125004 14.047003 C19.453003 13.969003 22.023005 12.656003 22.352003 12.578003 C22.680002 12.496003 22.594004 12.250003 22.836002 12.578003 C23.086002 12.902003 25.883003 18.933002 25.719002 19.258003 C25.555 19.583004 25.719 19.499 25.391 19.499 z" />
            </g>
          </g>
        </g>
      </g>
    </g>
  </g>
</svg>