<?xml version="1.0" encoding="utf-8"?>
<!DOCTYPE svg PUBLIC "-//W3C//DTD SVG 1.1//EN" "http://www.w3.org/Graphics/SVG/1.1/DTD/svg11.dtd">
<svg width="31" height="27" xmlns:xlink="http://www.w3.org/1999/xlink" xmlns:xml="http://www.w3.org/XML/1998/namespace" version="1.1" xmlns="http://www.w3.org/2000/svg">
  <g transform="translate(15.5, 13.5)" id="ToCenterGroup">
    <g transform="translate(0, 0)" id="TranslateGroup">
      <g transform="scale(1)" id="ScaleGroup">
        <g transform="scale(1)" id="InversionGroup">
          <g transform="rotate(0, 0, 0)" id="RotateGroup">
            <g transform="translate(-15.5, -13.5)" id="ToOriginGroup">
              <rect x="0" y="0" width="31" height="27" id="RawSize" style="fill:none;" />
              <path d="M23.359 9.733 C23.116999 9.327 22.870998 9.569 22.546 9.651 C22.218 9.733 20.14 11.413 19.733 11.573 C19.327 11.7369995 19.163 11.655 19.081 11.327 C19 11.006 15.367 0.456 15.125 0.213 C14.883 -0.030000001 14.883 -0.111 14.719 0.213 C14.554999 0.537 10.871 11.0060005 10.707 11.326 C10.547 11.654 10.625 11.654 10.301 11.654 C9.976999 11.654 7.09 9.643 6.844 9.483 C6.6019998 9.319 6.6019998 9.483 6.3599997 9.724999 C6.078 10.006 0 25.471 0 25.471 C0.086 25.713001 0.328 25.873001 0.328 25.873001 C0.328 25.873001 8.656 20.103 8.984 20.103 C9.312 20.103 9.472 20.185001 9.718 20.349 C9.96 20.513 14.515 25.712002 14.761001 25.712002 C15.007001 25.712002 15.085001 25.712002 15.249001 25.548002 C15.413 25.388002 19.944 20.349003 20.19 20.185001 C20.436 20.021 20.19 20.185001 20.92 20.185001 C21.217001 20.185001 28.912 25.630001 29.318 25.794003 C29.724 25.954002 29.482 25.872002 29.646 25.470003 C29.73 25.256 23.484 9.944 23.359 9.733 z" />
            </g>
          </g>
        </g>
      </g>
    </g>
  </g>
</svg>