<?xml version="1.0" encoding="utf-8"?>
<!DOCTYPE svg PUBLIC "-//W3C//DTD SVG 1.1//EN" "http://www.w3.org/Graphics/SVG/1.1/DTD/svg11.dtd">
<svg width="33" height="45" xmlns:xlink="http://www.w3.org/1999/xlink" xmlns:xml="http://www.w3.org/XML/1998/namespace" version="1.1" xmlns="http://www.w3.org/2000/svg">
  <g transform="translate(16.5, 22.5)" id="ToCenterGroup">
    <g transform="translate(0, 0)" id="TranslateGroup">
      <g transform="scale(1)" id="ScaleGroup">
        <g transform="scale(1)" id="InversionGroup">
          <g transform="rotate(0, 0, 0)" id="RotateGroup">
            <g transform="translate(-16.5, -22.5)" id="ToOriginGroup">
              <rect x="0" y="0" width="33" height="45" id="RawSize" style="fill:none;" />
              <path d="M32.149 38.204 L23.915 4.642 C23.591002 3.8290002 20.907001 0.41499996 18.466002 0.08700037 C16.025002 -0.24099922 13.142002 0.39200038 12.220001 1.4620004 C11.837001 1.9070003 9.118001 3.9350004 8.540001 5.8640003 C8.313 6.603 0.642 35.649 0.563 36.056 C0.481 36.461998 -0.33499998 40.611 0.15700004 41.586998 C0.72 42.72 3.759 43.759 5.2 42.97 C4.93 43.118 8.063 42.017002 8.391 39.974003 C8.618 38.579002 14.875 21.775003 15.188 21.619003 C15.500999 21.463003 16.918 19.697002 18.546999 21.486004 C18.546999 21.486004 24.616999 41.299004 24.804998 41.486004 C25.117998 41.799004 26.196 43.463005 27.984999 43.216003 C29.383 43.025 31.648998 43.15 31.813 41.751003 C31.845 41.431 32.946 40.985 32.149 38.204 z M30.04 40.798 C29.919 41.868 28.134 41.556 27.798 41.579 C26.415 41.661 26.243 40.024 26.009 39.786 C26.681002 40.461998 20.798 21.72 19.821001 19.282 C19.52 18.524 16.149002 17.293999 14.126001 19.765999 C12.868001 21.304998 6.7980013 38.188 6.8020015 38.156998 C6.5480013 39.719997 5.1340017 41.039997 5.3370013 40.922997 C3.6730013 41.836998 2.4930012 40.512997 2.2000012 40.172997 C2.2160013 40.231995 2.2230012 40.305996 2.2430012 40.348995 C2.0950012 40.047997 2.0950012 40.047997 2.2000012 40.172997 C1.9500012 39.223995 2.4970012 36.406998 2.5550013 36.117996 C2.618 35.806 9.728 7.478 9.892 6.911 C10.337 5.4379997 12.97 3.3209999 13.267 2.9769998 C13.97 2.1609998 16.173 1.6799997 18.04 1.9259998 C19.907001 2.1759996 21.962002 4.7889996 22.212002 5.4139996 L30.298002 38.086 C30.911 40.212 30.071 40.556 30.04 40.798 z" />
            </g>
          </g>
        </g>
      </g>
    </g>
  </g>
</svg>