<?xml version="1.0" encoding="utf-8"?>
<!DOCTYPE svg PUBLIC "-//W3C//DTD SVG 1.1//EN" "http://www.w3.org/Graphics/SVG/1.1/DTD/svg11.dtd">
<svg width="31" height="24" xmlns:xlink="http://www.w3.org/1999/xlink" xmlns:xml="http://www.w3.org/XML/1998/namespace" version="1.1" xmlns="http://www.w3.org/2000/svg">
  <g transform="translate(15.5, 12)" id="ToCenterGroup">
    <g transform="translate(0, 0)" id="TranslateGroup">
      <g transform="scale(1)" id="ScaleGroup">
        <g transform="scale(1)" id="InversionGroup">
          <g transform="rotate(0, 0, 0)" id="RotateGroup">
            <g transform="translate(-15.5, -12)" id="ToOriginGroup">
              <rect x="0" y="0" width="31" height="24" id="RawSize" style="fill:none;" />
              <path d="M29.758 1.953 C29.758 1.953 29.835999 0.31999993 27.317 0 C27.317 0 23.328999 -0.078 19.258 3.742 C19.258 3.742 15.515999 7.375 15.191999 7.945 L14.785999 7.859 C14.785999 7.859 9.903 1.9530001 6.7269993 1.1400003 C6.7269993 1.1400003 5.2659993 -0.07899964 1.7659993 0.24200034 C1.7659993 0.24200034 0.3829993 0.24200034 0.13699937 1.8670003 C0.13699937 1.8670003 -0.51500064 5.859 1.0319993 7.6480007 C1.0319993 7.6480007 3.8289993 11.961 6.836999 13.4210005 C6.836999 13.4210005 6.973999 13.148001 6.973999 13.991 C6.973999 14.319 3.313999 15.538 4.614999 20.913 C4.614999 20.913 5.180999 22.452 6.6499987 22.944 C7.516999 23.233 10.637999 23.444 12.102999 22.210001 L14.2509985 19.851002 C14.2509985 19.851002 15.555999 19.499002 15.633999 19.960001 C15.887999 21.476002 19.008999 23.327002 19.422998 23.187 C19.422998 23.187 22.758999 23.921 24.141998 22.296 C25.524998 20.671 25.770998 19.937 25.524998 18.062 C25.524998 18.062 24.196999 14.507 22.840998 13.749001 C22.840998 13.749001 22.516998 12.851001 23.086998 12.694 C23.086998 12.694 27.641998 10.1710005 28.859997 7.4830003 C28.859 7.484 30.406 5.039 29.758 1.953 z M14.008 11.148 C14.4140005 12.367 14.4140005 13.342999 14.332001 13.671 C14.250001 13.990999 13.859001 15.788 13.859001 15.788 C13.781001 16.757 10.714001 19.936 10.714001 19.936 C8.925001 21.319 7.3780007 20.42 7.3780007 20.42 C6.1550007 18.303 7.296001 17.326 7.296001 17.084 C7.296001 16.842 10.796001 13.826 11.202001 13.506 C11.608001 13.1779995 11.038001 12.608 11.038001 12.608 C10.714001 12.288 9.007001 11.717 9.007001 11.717 C6.562001 10.74 4.042001 7.889 4.042001 7.889 C1.766 5.531 2.66 3.008 2.66 3.008 C5.2650003 2.524 8.273 4.555 8.273 4.555 C9.983999 5.696 13.889999 10.907 13.889999 10.907 L14.008 11.148 z" />
            </g>
          </g>
        </g>
      </g>
    </g>
  </g>
</svg>