<?xml version="1.0" encoding="utf-8"?>
<!DOCTYPE svg PUBLIC "-//W3C//DTD SVG 1.1//EN" "http://www.w3.org/Graphics/SVG/1.1/DTD/svg11.dtd">
<svg width="30" height="23" xmlns:xlink="http://www.w3.org/1999/xlink" xmlns:xml="http://www.w3.org/XML/1998/namespace" version="1.1" xmlns="http://www.w3.org/2000/svg">
  <g transform="translate(15, 11.5)" id="ToCenterGroup">
    <g transform="translate(0, 0)" id="TranslateGroup">
      <g transform="scale(1)" id="ScaleGroup">
        <g transform="scale(1)" id="InversionGroup">
          <g transform="rotate(0, 0, 0)" id="RotateGroup">
            <g transform="translate(-15, -11.5)" id="ToOriginGroup">
              <rect x="0" y="0" width="30" height="23" id="RawSize" style="fill:none;" />
              <path d="M6.216 12.38 C6.5360003 12.517 6.958 13.349 6.068 13.767 C5.177 14.181 3.9039998 16.880001 4.0759997 17.771 C4.0759997 17.771 3.6229997 21.197 6.8809996 21.81 C10.146999 22.431 12.631 18.99 13.037 18.986 C13.403999 18.982 13.521 18.326 13.521 18.326 C13.521 18.326 14.169 17.912 14.334 18.318 C14.499 18.724 17.865 21.701 18.272 21.779001 C18.685999 21.857 22.029999 22.959002 23.544998 19.771002 C25.059998 16.583002 22.271997 14.494001 22.099998 13.927002 L21.356 13.2 C21.356 13.2 20.7 12.716 21.59 11.981 C22.481 11.235 24.028 11.543 26.59 7.692 C26.59 7.692 28.754 4.09 28.481 1.0829997 C28.481 1.0829997 28.465 0.027999759 27.247002 0.039999723 C26.029003 0.05199969 20.169 0.028 14.63 7.653 C14.63 7.653 13.575 8.665 13.411 7.5829997 C13.411 7.5829997 10.348001 2.9809995 6.669 1.31 C6.669 1.31 3.966 -0.53400004 0.15300035 0.15399992 C0.15300035 0.15399992 -0.54199964 4.068 1.0280004 6.7359996 C1.028 6.735 2.786 10.868 6.216 12.38 z" />
            </g>
          </g>
        </g>
      </g>
    </g>
  </g>
</svg>