<?xml version="1.0" encoding="utf-8"?>
<!DOCTYPE svg PUBLIC "-//W3C//DTD SVG 1.1//EN" "http://www.w3.org/Graphics/SVG/1.1/DTD/svg11.dtd">
<svg width="31" height="24" xmlns:xlink="http://www.w3.org/1999/xlink" xmlns:xml="http://www.w3.org/XML/1998/namespace" version="1.1" xmlns="http://www.w3.org/2000/svg">
  <g transform="translate(15.5, 12)" id="ToCenterGroup">
    <g transform="translate(0, 0)" id="TranslateGroup">
      <g transform="scale(1)" id="ScaleGroup">
        <g transform="scale(1)" id="InversionGroup">
          <g transform="rotate(0, 0, 0)" id="RotateGroup">
            <g transform="translate(-15.5, -12)" id="ToOriginGroup">
              <rect x="0" y="0" width="31" height="24" id="RawSize" style="fill:none;" />
              <path d="M29.764 1.945 C29.764 1.945 29.842 0.32000005 27.319 0 C27.319 0 23.335001 -0.086 19.264 3.742 C19.264 3.742 15.521999 7.484 15.194 8.055 L14.788 7.9690003 C14.788 7.9690003 9.905001 1.9460006 6.733 1.1330004 C6.733 1.1330004 5.264 -0.08599961 1.7639999 0.2420004 C1.7639999 0.2420004 0.38099992 0.2420004 0.13499999 1.8670003 C0.13499999 1.8670003 -0.513 5.8510003 1.033 7.6480007 C1.033 7.6480007 3.717 11.953001 6.732 13.4210005 C6.732 13.4210005 6.974 13.1710005 6.974 13.991 C6.974 14.319 3.31 15.538 4.611 20.905 C4.611 20.905 5.185 22.452002 6.646 22.944 C8.115 23.428 10.474 23.671 11.615 22.046 L14.0529995 19.928999 C14.0529995 19.928999 15.193999 19.445 15.28 19.928999 C15.358 20.421 19.178 23.265 19.428 23.186998 C19.428 23.186998 22.764 23.920998 24.147 22.288998 C25.529999 20.663998 25.772 19.929998 25.529999 18.061996 C25.529999 18.061996 24.310999 14.561996 22.842 13.748997 C22.842 13.748997 22.522 12.850997 23.084 12.685997 C23.084 12.685997 27.647 10.162997 28.865 7.482997 C28.865 7.484 30.412 5.039 29.764 1.945 z M27.482 3.172 C27.561 7 25.451 8.375 25.451 8.375 C23.084 10.82 19.506 11.875 19.098999 11.953 C18.692999 12.0390005 18.692999 12.445 18.692999 12.445 C18.365 12.851 18.770998 13.507999 18.770998 13.507999 C20.317999 14.235 22.762999 17.328 22.762999 17.328 C23.981998 19.366999 22.676998 20.585999 22.676998 20.585999 C22.121998 21.788998 19.504997 20.335999 19.504997 20.335999 C17.793997 19.765999 15.926997 15.944999 15.926997 15.944999 C14.621997 14.647999 13.973997 15.780999 13.973997 15.780999 C13.887997 16.758 10.715998 19.928999 10.715998 19.928999 C8.926998 21.311998 7.3799977 20.421 7.3799977 20.421 C6.160998 18.303999 7.3019977 17.327 7.3019977 17.085 C7.3019977 16.835 10.801998 13.827 11.199998 13.506999 C11.613997 13.178999 11.043998 12.608999 11.043998 12.608999 C10.715998 12.280999 9.004997 11.7109995 9.004997 11.7109995 C6.5669975 10.733999 4.039997 7.891 4.039997 7.891 C1.764 5.531 2.658 3.008 2.658 3.008 C5.263 2.5159998 8.278999 4.555 8.278999 4.555 C9.981999 5.696 13.888 10.899 13.888 10.899 C14.544 12.368 16.005 11.305 16.005 11.305 C16.574999 10.25 20.403 5.61 20.403 5.61 C23.817 2.4380002 26.833 2.516 26.833 2.516 C27.725 3.008 27.482 3.172 27.482 3.172 z" />
            </g>
          </g>
        </g>
      </g>
    </g>
  </g>
</svg>