<?xml version="1.0" encoding="utf-8"?>
<!DOCTYPE svg PUBLIC "-//W3C//DTD SVG 1.1//EN" "http://www.w3.org/Graphics/SVG/1.1/DTD/svg11.dtd">
<svg width="31" height="29" xmlns:xlink="http://www.w3.org/1999/xlink" xmlns:xml="http://www.w3.org/XML/1998/namespace" version="1.1" xmlns="http://www.w3.org/2000/svg">
  <g transform="translate(15.5, 14.5)" id="ToCenterGroup">
    <g transform="translate(0, 0)" id="TranslateGroup">
      <g transform="scale(1)" id="ScaleGroup">
        <g transform="scale(1)" id="InversionGroup">
          <g transform="rotate(0, 0, 0)" id="RotateGroup">
            <g transform="translate(-15.5, -14.5)" id="ToOriginGroup">
              <rect x="0" y="0" width="31" height="29" id="RawSize" style="fill:none;" />
              <path d="M29.111 9.403 C27.806 7.614 26.509 7.126 24.716 7.208 C22.923 7.2860003 20.157 8.673 19.914999 8.833 C19.672998 8.997 19.751 8.427 19.751 8.427 C19.751 8.427 19.914999 5.583 19.833 5.013 C19.751001 4.443 19.587 1.997 17.798 0.86100006 C16.009 -0.27499986 14.22 -0.11599994 12.837 0.37300006 C11.017 1.014 11.064 1.4 10.142 3.3960001 C9.658 4.458 9.9 8.333 9.9 8.333 L9.837 8.833 C9.354 8.672 7.205 7.266 5.58 7.184 C5.064 7.161 2.346 6.852 0.881 8.887 C-0.58400005 10.918 0.06099999 13.547 0.791 14.441999 C1.5250001 15.337 2.174 16.161 3.236 16.730999 C4.291 17.296999 5.826 17.554998 6.15 17.800999 C6.478 18.043 5.986 18.265999 5.986 18.265999 C5.986 18.265999 4.3450003 19.723 3.81 20.714998 C3.244 21.773998 2.408 23.316998 3.3839998 25.839998 C4.3599997 28.362999 7.0559998 28.304998 7.384 28.304998 C7.7079997 28.304998 10.392 28.347998 11.532 27.370998 C12.671999 26.394 13.969999 25.012 14.657 23.815998 C14.938 23.323997 14.973 23.815998 15.219999 23.815998 C15.461999 23.815998 16.414999 25.760998 17.314 26.573997 C18.205 27.386997 19.834 28.526997 21.626999 28.284998 C23.498 28.026999 24.518 28.276999 25.692999 26.573997 C26.588 25.268997 26.751999 23.831997 26.588 22.932997 C26.424 22.037996 25.775 20.385998 25.369 19.819996 C24.963 19.249996 23.58 18.026997 23.58 18.026997 C23.58 18.026997 23.334 17.866997 23.74 17.620996 C24.146 17.378996 26.751999 16.651997 27.24 16.245996 C27.728 15.839996 29.517 14.366997 29.598999 13.390997 C29.680998 12.414997 30.416 11.192 29.111 9.403 z M25.846 14.043 C25.444 14.613 23.815 15.184 23.08 15.426001 C22.353 15.668 20.478 15.668 20.15 15.754001 C19.826 15.832001 18.447 15.832001 18.197 16.16 C17.955 16.484 17.713001 16.644 18.037 17.051 C18.361 17.458002 18.932001 18.114 19.502 18.356 C20.072 18.598001 21.619001 19.821001 22.514 20.797 C23.408998 21.773 23.491 22.996 23.491 23.563002 C23.491 24.133001 23.081 24.704002 22.838999 25.028002 C22.596998 25.356 21.862 25.516003 21.213999 25.434002 C20.561998 25.356003 19.519 24.621002 19.112 24.379002 C18.706 24.133001 16.854 21.691002 16.529999 20.957 C16.206 20.227001 15.619999 19.527 15.377998 19.203001 C15.135998 18.879002 14.803998 18.957 14.314999 19.043001 C13.994999 19.094002 13.501999 20.082 13.423999 20.18 C13.181999 20.504 12.290998 22.145 11.720999 22.957 C11.318998 23.527 10.056999 25.09 9.005999 25.367 C7.7829986 25.691 7.1349983 25.269001 6.7289987 25.027 C6.318999 24.785 5.9669986 23.941 6.048999 23.293001 C6.126999 22.641 6.482999 21.121002 7.294999 20.551 C7.774999 20.215 9.9 18.629 10.306999 18.301 C10.056999 18.504 11.869999 16.871 11.771999 17.067001 C11.935999 16.743002 11.771999 16.497002 11.447999 16.176 C11.119999 15.848001 9.1119995 15.895 8.381999 15.735001 C7.6519985 15.575001 6.104 15.2 5.369 14.958 C4.634 14.716001 3.744 14.2630005 3.338 13.856 C2.928 13.446 3.1230001 13.04 2.877 12.551 C2.635 12.063 3.2050002 11.004 3.447 10.679999 C3.689 10.355999 4.447 9.594 5.424 9.754 C6.401 9.917999 7.467 10.457 8.033 10.785 C8.603 11.109 11.025 12.871 11.431 13.035 C11.837 13.198999 12.000999 13.198999 12.408 12.953 C12.815001 12.707001 12.76 12.43 12.572 12.058001 C12.408 11.7300005 12.443 10.425 12.197 9.941 C11.955 9.449 12.377 7.2609997 12.294999 6.691 C12.19 5.9639997 12.44 4.16 13.423999 3.273 C14.239999 2.543 15.704999 2.949 16.353998 3.437 C17.005999 3.925 16.869999 4.574 17.189999 5.308 C17.517998 6.0420003 17.509998 8.089 17.432 8.824 C17.345999 9.554001 16.838 12.019 16.838 12.59 C16.838 13.161 17.08 13.082 17.49 13.16 C17.896 13.246 18.376999 12.984 18.705 12.738 C19.025 12.496 21.376999 11.031 21.861 10.625 C22.353 10.215 23.978 9.73 24.869 9.895 C25.767 10.055 26.58 10.872001 26.744 12.09 C26.907999 13.308 26.256 13.473 25.846 14.043 z" />
            </g>
          </g>
        </g>
      </g>
    </g>
  </g>
</svg>