<?xml version="1.0" encoding="utf-8"?>
<!DOCTYPE svg PUBLIC "-//W3C//DTD SVG 1.1//EN" "http://www.w3.org/Graphics/SVG/1.1/DTD/svg11.dtd">
<svg width="30" height="29" xmlns:xlink="http://www.w3.org/1999/xlink" xmlns:xml="http://www.w3.org/XML/1998/namespace" version="1.1" xmlns="http://www.w3.org/2000/svg">
  <g transform="translate(15, 14.5)" id="ToCenterGroup">
    <g transform="translate(0, 0)" id="TranslateGroup">
      <g transform="scale(1)" id="ScaleGroup">
        <g transform="scale(1)" id="InversionGroup">
          <g transform="rotate(0, 0, 0)" id="RotateGroup">
            <g transform="translate(-15, -14.5)" id="ToOriginGroup">
              <rect x="0" y="0" width="30" height="29" id="RawSize" style="fill:none;" />
              <path d="M9.505 17.047 C9.2630005 17.293001 4.946 21.199001 4.946 21.199001 L3.97 23.074 C3.322 24.89 3.607 25.847 4.259 26.777 C4.825 27.593 6.251 27.925001 7.462 27.429 C8.673 26.933 9.333 26.046001 9.903 25.558 C10.469 25.07 13.632999 18.995 13.88 18.753 C14.122 18.507 14.31 18.343 14.610001 18.753 C14.860001 19.081 17.833 24.3 18.075 24.792 C18.321001 25.276 19.052 26.335 20.192001 27.147 C21.329 27.963 23.016 27.470999 23.833002 27.064999 C24.646002 26.658998 25.267002 25.134998 24.837002 23.755999 C24.478003 22.610998 23.649002 21.584 23.177002 20.919998 C22.767002 20.353998 19.193003 17.423998 18.947002 16.932 C18.666002 16.362 19.217003 16.310999 19.748003 16.084 C20.318003 15.837999 24.107002 14.799 25.736004 14.313999 C26.443005 14.102999 27.244003 13.540999 27.588003 13.216 C28.299004 12.544 28.897003 10.988999 28.084003 9.445999 C27.271004 7.898999 25.045004 7.820999 24.803003 7.820999 C24.557003 7.820999 23.655003 8.218999 22.596003 8.543999 C22.006002 8.727999 17.639004 11.781999 17.385002 11.7509985 C16.733002 11.672998 17.143002 11.996999 16.815002 11.508999 C16.491003 11.020999 17.838003 5.7819986 17.756002 4.235999 C17.674002 2.6929991 17.631002 1.7909992 16.330002 0.64999914 C15.029001 -0.4910009 12.853002 0.07999915 11.959002 0.73199916 C11.0650015 1.3839991 10.975001 2.610999 10.814001 3.9159992 C10.638001 5.321999 11.638001 10.040999 11.798001 11.532999 C11.7820015 11.3689995 11.630001 12.012999 11.458001 11.985999 C10.970001 11.903999 5.7510014 8.040999 4.149001 8.012999 C3.497 8.004 1.231 7.75 0.454 9.523 C-0.33100003 11.323999 -0.11199999 12.285 1.224 13.605 C1.802 14.174999 2.56 14.346999 3.779 14.717999 C4.3450003 14.889999 8.857 16.23 9.2630005 16.23 C9.669001 16.23 9.751 16.801 9.505 17.047 z" />
            </g>
          </g>
        </g>
      </g>
    </g>
  </g>
</svg>