<?xml version="1.0" encoding="utf-8"?>
<!DOCTYPE svg PUBLIC "-//W3C//DTD SVG 1.1//EN" "http://www.w3.org/Graphics/SVG/1.1/DTD/svg11.dtd">
<svg width="31" height="30" xmlns:xlink="http://www.w3.org/1999/xlink" xmlns:xml="http://www.w3.org/XML/1998/namespace" version="1.1" xmlns="http://www.w3.org/2000/svg">
  <g transform="translate(15.5, 15)" id="ToCenterGroup">
    <g transform="translate(0, 0)" id="TranslateGroup">
      <g transform="scale(1)" id="ScaleGroup">
        <g transform="scale(1)" id="InversionGroup">
          <g transform="rotate(0, 0, 0)" id="RotateGroup">
            <g transform="translate(-15.5, -15)" id="ToOriginGroup">
              <rect x="0" y="0" width="31" height="30" id="RawSize" style="fill:none;" />
              <path d="M15.109 23.945 C15.172 24.117 15.222 24.203 15.265 24.328 C15.511001 25.061998 18.245 28.562 21.992 28.562 C25.734001 28.562 26.222 26.363 26.629002 24.492 C27.281002 21.496 23.047 19 23.535002 19.101002 C23.379002 19.066002 23.043001 18.203001 23.535002 18.203001 C24.269001 18.203001 26.223001 17.086 26.953001 16.68 C28.121 16.032 29.723001 13.696 29.723001 12.125 C29.723001 8.055 25.410002 7.566 24.594002 7.406 C23.781002 7.242 21.340002 8.054 20.852001 8.219 C20.704 8.266 19.504002 8.739 19.875002 7.8129997 C20.090002 7.2739997 19.523003 3.7349997 19.551003 4.1489997 C19.418 1.898 16.238 0 14.91 0 C14.573999 0 14.91 0 14.91 0 L14.812 0 C14.812 0 15.148001 0 14.812 0 C13.484 0 10.304001 1.898 10.175 4.148 C10.198 3.7339997 9.632 7.273 9.847 7.812 C10.218 8.738 9.019 8.264999 8.87 8.217999 C8.382 8.054 5.9399996 7.240999 5.128 7.4049993 C4.316 7.566 0 8.055 0 12.125 C0 13.695 1.602 16.031 2.77 16.68 C3.5 17.086 5.454 18.203001 6.1879997 18.203001 C6.68 18.203001 6.344 19.066002 6.1879997 19.101002 C6.676 19 2.441 21.496 3.094 24.492 C3.5 26.363 3.989 28.562 7.7349997 28.562 C11.476999 28.562 14.212 25.062 14.458 24.328 C14.501 24.203 14.552 24.116999 14.614 23.945 L15.109 23.945 z" />
            </g>
          </g>
        </g>
      </g>
    </g>
  </g>
</svg>