<?xml version="1.0" encoding="utf-8"?>
<!DOCTYPE svg PUBLIC "-//W3C//DTD SVG 1.1//EN" "http://www.w3.org/Graphics/SVG/1.1/DTD/svg11.dtd">
<svg width="31" height="29" xmlns:xlink="http://www.w3.org/1999/xlink" xmlns:xml="http://www.w3.org/XML/1998/namespace" version="1.1" xmlns="http://www.w3.org/2000/svg">
  <g transform="translate(15.5, 14.5)" id="ToCenterGroup">
    <g transform="translate(0, 0)" id="TranslateGroup">
      <g transform="scale(1)" id="ScaleGroup">
        <g transform="scale(1)" id="InversionGroup">
          <g transform="rotate(0, 0, 0)" id="RotateGroup">
            <g transform="translate(-15.5, -14.5)" id="ToOriginGroup">
              <rect x="0" y="0" width="31" height="29" id="RawSize" style="fill:none;" />
              <path d="M20.22 15.949 C20.626 15.949 25.106998 15.035001 25.673 14.863001 C26.892 14.496001 27.782 14.215001 28.357 13.644001 C29.435 12.581001 29.822 11.316001 29.091 9.527 C28.356 7.73 25.915 7.98 25.267 7.98 C24.529 7.98 19.083 10.472 18.595001 10.55 C18.107 10.636001 18.107 10.636001 18.107 10.066 C18.107 9.495999 18.755001 5.293 18.595001 3.988 C18.431002 2.691 17.720001 1.3859999 16.825 0.7379999 C15.93 0.0819999 13.977001 -0.48900008 12.677001 0.6519999 C11.372001 1.793 10.9660015 2.769 10.884001 4.316 C10.806001 5.863 11.700001 9.683001 11.372001 10.175 C11.048 10.659 11.454 10.339 10.806001 10.417 C10.548 10.448 6.818001 8.729 6.224001 8.55 C5.165 8.223 3.997 7.91 3.751 7.91 C3.5089998 7.91 1.099 8.058 0.28199983 9.605 C-0.5310002 11.151999 0.64499986 12.972 0.88699985 13.377999 C1.1329999 13.783999 2.1569998 14.393999 2.8869998 14.471999 C3.633 14.558 8.516 15.588999 9.0859995 15.830999 C9.655999 16.081 10.129 16.198 9.886999 16.682999 C9.640999 17.175 5.866999 20.276999 5.460999 20.838999 C5.054999 21.408998 4.124999 23.042 3.862999 23.932999 C3.456999 25.315998 4.350999 26.862999 5.163999 27.269 C5.979999 27.675 7.6679993 28.167 8.804999 27.355 C9.945999 26.542 10.676 25.48 10.921999 24.996 C11.163999 24.504 14.194999 19.293 14.441999 18.965 C14.747 18.559 14.929999 18.723 15.176 18.965 C15.417999 19.207 18.489 25.237999 19.059 25.723 C19.629 26.215 20.2 27.434 21.5 27.598 C22.8 27.762 24.133 27.911 24.703 27.09 C25.272999 26.277 25.844 25.629 25.679998 24.324 C25.495998 22.871 24.835999 21.91 24.429998 21.418 C24.023998 20.934 20.218998 17.012 19.976997 16.77 C19.731 16.52 19.813 15.949 20.22 15.949 z M5.536 12.941 C4.6489997 12.668 2.9459999 12.371 2.462 11.816 C1.9739999 11.269 1.7739999 11.402 1.9849999 10.855 C2.1999998 10.308 2.2429998 10.377999 2.8249998 10.073999 C3.4029999 9.761 5.3329997 10.573999 5.8989997 10.676 C6.4649997 10.7699995 10.511999 12.59 11.105999 12.870999 C11.699999 13.143999 12.308999 13.948999 12.429999 14.261999 C12.429999 14.261999 12.429999 14.261999 12.098 14.495999 C11.761999 14.73 10.8949995 14.348 10.3949995 14.198999 C9.8949995 14.049999 6.423 13.215 5.536 12.941 z M12.649 18.723 C12.336 19.137 10.325001 22.098 9.758 22.832 C9.188001 23.566 8.313001 25.051 7.6210003 25.309 C6.933 25.575 6.9960003 25.809 6.5580006 25.418 C6.120001 25.026999 6.2 25.004 6.118 24.355 C6.032 23.706999 7.403 22.182999 7.696 21.682999 C7.9890003 21.190998 11.493 17.869999 11.848 17.535 C12.429999 16.987999 12.813 16.722 13.148999 16.722 C13.148999 16.722 13.148999 16.722 13.250999 17.113 C13.353 17.512 12.962 18.309 12.649 18.723 z M15.528 11.488 C15.446 12.136 15.141 12.769 14.88 12.98 C14.88 12.98 14.88 12.98 14.552 12.738 C14.228 12.488 13.919 11.925 13.904 11.402 C13.8880005 10.886001 13.58 7.6910005 13.564 6.7690005 C13.537 5.3240004 13.455 3.6280005 13.576 3.2690005 C13.81 2.5660005 14.189 2.4960005 14.775001 2.5270004 C15.361001 2.5580003 15.31 2.6210005 15.783001 3.0820005 C16.256 3.5350006 16.021002 5.7070007 16.099 6.2770004 C16.181 6.848 15.61 10.832 15.528 11.488 z M21.524 21.574 C22.09 22.307999 23.313 23.526999 23.395 24.262 C23.473 24.995998 23.719 24.995998 23.231 25.317 C22.743 25.644999 22.743 25.567 22.09 25.480999 C21.442 25.403 20.465 23.692 20.059 23.286 C19.649 22.88 17.371 19.138 17.047 18.567 C16.719002 17.997 16.410002 17.519999 16.492 17.192 C16.492 17.192 16.640001 16.536 17.047 16.536 C17.454 16.536 17.942001 17.348999 18.266 17.755 C18.595 18.16 20.954 20.84 21.524 21.574 z M18.841 14.52 C18.204 14.676001 17.778 14.825001 17.208 14.583 C17.208 14.583 16.962 14.583 17.071001 14.192 C17.180002 13.801001 18.059002 13.294001 18.512001 13.028 C19.34 12.551 22.129002 11.348 22.985 10.997 C23.844 10.6449995 25.501001 10.052 26.231 10.169 C26.958 10.285999 27.02 10.052 27.204 10.613999 C27.384 11.169 27.306 11.1449995 27.052 11.754999 C26.798 12.356999 24.677 12.692999 24.177 12.973999 C23.673 13.254 19.478 14.363 18.841 14.52 z" />
            </g>
          </g>
        </g>
      </g>
    </g>
  </g>
</svg>