<?xml version="1.0" encoding="utf-8"?>
<!DOCTYPE svg PUBLIC "-//W3C//DTD SVG 1.1//EN" "http://www.w3.org/Graphics/SVG/1.1/DTD/svg11.dtd">
<svg width="26" height="35" xmlns:xlink="http://www.w3.org/1999/xlink" xmlns:xml="http://www.w3.org/XML/1998/namespace" version="1.1" xmlns="http://www.w3.org/2000/svg">
  <g transform="translate(13, 17.5)" id="ToCenterGroup">
    <g transform="translate(0, 0)" id="TranslateGroup">
      <g transform="scale(1)" id="ScaleGroup">
        <g transform="scale(1)" id="InversionGroup">
          <g transform="rotate(0, 0, 0)" id="RotateGroup">
            <g transform="translate(-13, -17.5)" id="ToOriginGroup">
              <rect x="0" y="0" width="26" height="35" id="RawSize" style="fill:none;" />
              <path d="M12.277 25.625 L12.277 34.828 L14.394001 34.828 L14.394001 25.64 C20.792 25.132 25.839 19.835 25.839 13.311999 C25.839 6.444999 20.276001 0.881999 13.409 0.881999 C6.55 0.881999 0.98700047 6.444999 0.98700047 13.311999 C0.988 19.781 5.949 25.039 12.277 25.625 z M13.41 23.438 C8.215 23.438 3.9329996 19.524 3.3549995 14.485 L23.472 14.464999 C22.902 19.516 18.613 23.438 13.41 23.438 z M13.41 3.184 C18.566 3.184 22.824 7.032 23.457 12.016 L3.371 11.992 C4.012 7.023 8.27 3.184 13.41 3.184 z" />
            </g>
          </g>
        </g>
      </g>
    </g>
  </g>
</svg>