<?xml version="1.0" encoding="utf-8"?>
<!DOCTYPE svg PUBLIC "-//W3C//DTD SVG 1.1//EN" "http://www.w3.org/Graphics/SVG/1.1/DTD/svg11.dtd">
<svg width="26" height="26" xmlns:xlink="http://www.w3.org/1999/xlink" xmlns:xml="http://www.w3.org/XML/1998/namespace" version="1.1" xmlns="http://www.w3.org/2000/svg">
  <g transform="translate(13, 13)" id="ToCenterGroup">
    <g transform="translate(0, 0)" id="TranslateGroup">
      <g transform="scale(1)" id="ScaleGroup">
        <g transform="scale(1)" id="InversionGroup">
          <g transform="rotate(0, 0, 0)" id="RotateGroup">
            <g transform="translate(-13, -13)" id="ToOriginGroup">
              <rect x="0" y="0" width="26" height="26" id="RawSize" style="fill:none;" />
              <path d="M13.41 0.531 C6.547 0.531 0.9840002 6.0940003 0.9840002 12.957 C0.9840002 19.82 6.547 25.383 13.41 25.383 C20.277 25.383 25.84 19.82 25.84 12.957 C25.84 6.094 20.277 0.531 13.41 0.531 z M11.871 22.805 L11.871 17.516 L11.871 9.051 L11.871 3.109 C12.441 3.007 13.027 2.945 13.629001 2.945 C14.090001 2.945 14.527 2.984 14.965 3.039 L14.965 9.051001 L14.965 17.516 L14.965 22.875 C14.527 22.93 14.09 22.969 13.629 22.969 C13.027 22.969 12.441 22.906 11.871 22.805 z" />
            </g>
          </g>
        </g>
      </g>
    </g>
  </g>
</svg>