<?xml version="1.0" encoding="utf-8"?>
<!DOCTYPE svg PUBLIC "-//W3C//DTD SVG 1.1//EN" "http://www.w3.org/Graphics/SVG/1.1/DTD/svg11.dtd">
<svg width="32" height="28" xmlns:xlink="http://www.w3.org/1999/xlink" xmlns:xml="http://www.w3.org/XML/1998/namespace" version="1.1" xmlns="http://www.w3.org/2000/svg">
  <g transform="translate(16, 14)" id="ToCenterGroup">
    <g transform="translate(0, 0)" id="TranslateGroup">
      <g transform="scale(1)" id="ScaleGroup">
        <g transform="scale(1)" id="InversionGroup">
          <g transform="rotate(0, 0, 0)" id="RotateGroup">
            <g transform="translate(-16, -14)" id="ToOriginGroup">
              <rect x="0" y="0" width="32" height="28" id="RawSize" style="fill:none;" />
              <path d="M26.09 20.535 C27.824 18.397999 28.91 15.711 28.91 12.742 C28.91 5.8789997 23.347 0.31599998 16.487999 0.31599998 C9.628998 0.31599998 4.066 5.879 4.066 12.742 C4.066 15.667999 5.113 18.324 6.808 20.445 L0.83099985 26.472 L2.3309999 27.976 L8.269 21.992 C10.464 23.945 13.316 25.168001 16.487999 25.168001 C19.612999 25.168001 22.432999 23.973001 24.620998 22.066002 L30.48 27.976002 L31.98 26.472002 L26.09 20.535 z M16.488 22.93 C10.863001 22.93 6.300001 18.367 6.300001 12.742001 C6.300001 7.1130004 10.863001 2.5540009 16.488 2.5540009 C22.113 2.5540009 26.676 7.113001 26.676 12.742001 C26.676 18.367 22.113 22.93 16.488 22.93 z" />
              <path d="M16.488 7.063 C13.355001 7.063 10.816001 9.598001 10.816001 12.731001 C10.816001 15.864001 13.355001 18.399002 16.488 18.399002 C19.613 18.399002 22.16 15.864002 22.16 12.731002 C22.16 9.5980015 19.613 7.063 16.488 7.063 z M16.488 15.93 C14.715001 15.93 13.285001 14.5 13.285001 12.731001 C13.285001 10.965001 14.715001 9.5320015 16.488 9.5320015 C18.254002 9.5320015 19.683 10.9660015 19.683 12.731001 C19.684 14.5 18.254 15.93 16.488 15.93 z" />
            </g>
          </g>
        </g>
      </g>
    </g>
  </g>
</svg>