<?xml version="1.0" encoding="utf-8"?>
<!DOCTYPE svg PUBLIC "-//W3C//DTD SVG 1.1//EN" "http://www.w3.org/Graphics/SVG/1.1/DTD/svg11.dtd">
<svg width="26" height="26" xmlns:xlink="http://www.w3.org/1999/xlink" xmlns:xml="http://www.w3.org/XML/1998/namespace" version="1.1" xmlns="http://www.w3.org/2000/svg">
  <g transform="translate(13, 13)" id="ToCenterGroup">
    <g transform="translate(0, 0)" id="TranslateGroup">
      <g transform="scale(1)" id="ScaleGroup">
        <g transform="scale(1)" id="InversionGroup">
          <g transform="rotate(0, 0, 0)" id="RotateGroup">
            <g transform="translate(-13, -13)" id="ToOriginGroup">
              <rect x="0" y="0" width="26" height="26" id="RawSize" style="fill:none;" />
              <path d="M13.402 0.531 C6.543 0.531 0.98 6.094 0.98 12.957 C0.98 19.816 6.543 25.379 13.402 25.379 C20.269001 25.379 25.832 19.816 25.832 12.957 C25.832 6.094 20.27 0.531 13.402 0.531 z M13.402 23.145 C7.7770004 23.145 3.2140007 18.582 3.2140007 12.957001 C3.2140007 7.3280005 7.777001 2.7660007 13.402 2.7660007 C19.035 2.7660007 23.597 7.329001 23.597 12.957001 C23.598 18.582 19.035 23.145 13.402 23.145 z" />
            </g>
          </g>
        </g>
      </g>
    </g>
  </g>
</svg>