<?xml version="1.0" encoding="utf-8"?>
<!DOCTYPE svg PUBLIC "-//W3C//DTD SVG 1.1//EN" "http://www.w3.org/Graphics/SVG/1.1/DTD/svg11.dtd">
<svg width="32" height="28" xmlns:xlink="http://www.w3.org/1999/xlink" xmlns:xml="http://www.w3.org/XML/1998/namespace" version="1.1" xmlns="http://www.w3.org/2000/svg">
  <g transform="translate(16, 14)" id="ToCenterGroup">
    <g transform="translate(0, 0)" id="TranslateGroup">
      <g transform="scale(1)" id="ScaleGroup">
        <g transform="scale(1)" id="InversionGroup">
          <g transform="rotate(0, 0, 0)" id="RotateGroup">
            <g transform="translate(-16, -14)" id="ToOriginGroup">
              <rect x="0" y="0" width="32" height="28" id="RawSize" style="fill:none;" />
              <path d="M25.398 20.539 C27.136002 18.402 28.222 15.7109995 28.222 12.742 C28.222 5.8829994 22.656 0.3199997 15.7960005 0.3199997 C8.936001 0.3199997 3.371 5.883 3.371 12.742 C3.371 15.672 4.426 18.328 6.1210003 20.449 L0.13700008 26.476 L1.6370001 27.976 L7.578 21.996 C9.773 23.945 12.629 25.172 15.797 25.172 C18.922 25.172 21.742 23.977001 23.93 22.070002 L29.797 27.976002 L31.293001 26.476002 L25.398 20.539 z M15.688 16.359 C13.782 16.359 12.239 14.811999 12.239 12.905999 C12.239 10.999999 13.782001 9.452999 15.688 9.452999 C17.593998 9.452999 19.140999 10.999999 19.140999 12.905999 C19.140999 14.811999 17.594 16.359 15.688 16.359 z" />
            </g>
          </g>
        </g>
      </g>
    </g>
  </g>
</svg>