<?xml version="1.0" encoding="utf-8"?>
<!DOCTYPE svg PUBLIC "-//W3C//DTD SVG 1.1//EN" "http://www.w3.org/Graphics/SVG/1.1/DTD/svg11.dtd">
<svg width="26" height="42" xmlns:xlink="http://www.w3.org/1999/xlink" xmlns:xml="http://www.w3.org/XML/1998/namespace" version="1.1" xmlns="http://www.w3.org/2000/svg">
  <g transform="translate(13, 21)" id="ToCenterGroup">
    <g transform="translate(0, 0)" id="TranslateGroup">
      <g transform="scale(1)" id="ScaleGroup">
        <g transform="scale(1)" id="InversionGroup">
          <g transform="rotate(0, 0, 0)" id="RotateGroup">
            <g transform="translate(-13, -21)" id="ToOriginGroup">
              <rect x="0" y="0" width="26" height="42" id="RawSize" style="fill:none;" />
              <path d="M25.461 21.055 C25.461 14.641001 20.539001 9.438001 14.277 8.864 L14.277 0.398 L12.156 0.398 L12.156 8.851 C5.84 9.371 0.859 14.602 0.859 21.055 C0.859 27.473 5.793 32.684 12.070001 33.243 L12.070001 41.595 L14.191001 41.595 L14.191001 33.25 C20.496 32.719 25.461 27.492 25.461 21.055 z M13.16 31.141 C7.5899997 31.141 3.0739994 26.625 3.0739994 21.055 C3.0739994 15.481001 7.589999 10.965 13.16 10.965 C18.73 10.965 23.246 15.481 23.246 21.055 C23.246 26.625 18.73 31.141 13.16 31.141 z" />
              <path d="M13.16 16.422 C10.605 16.422 8.531 18.496 8.531 21.055 C8.531 23.61 10.605 25.68 13.16 25.68 C15.715 25.68 17.789 23.61 17.789 21.055 C17.789 18.496 15.715 16.422 13.16 16.422 z" />
            </g>
          </g>
        </g>
      </g>
    </g>
  </g>
</svg>