<?xml version="1.0" encoding="utf-8"?>
<!DOCTYPE svg PUBLIC "-//W3C//DTD SVG 1.1//EN" "http://www.w3.org/Graphics/SVG/1.1/DTD/svg11.dtd">
<svg width="26" height="34" xmlns:xlink="http://www.w3.org/1999/xlink" xmlns:xml="http://www.w3.org/XML/1998/namespace" version="1.1" xmlns="http://www.w3.org/2000/svg">
  <g transform="translate(13, 17)" id="ToCenterGroup">
    <g transform="translate(0, 0)" id="TranslateGroup">
      <g transform="scale(1)" id="ScaleGroup">
        <g transform="scale(1)" id="InversionGroup">
          <g transform="rotate(0, 0, 0)" id="RotateGroup">
            <g transform="translate(-13, -17)" id="ToOriginGroup">
              <rect x="0" y="0" width="26" height="34" id="RawSize" style="fill:none;" />
              <path d="M12.039 24.637 L12.039 33.918 L14.16 33.918 L14.16 24.647999 C20.476 24.127998 25.460999 18.897999 25.460999 12.448998 C25.460999 5.655998 19.953 0.14799881 13.159999 0.14799881 C6.362999 0.14799881 0.85899925 5.6559987 0.85899925 12.448998 C0.859 18.859 5.777 24.063 12.039 24.637 z M13.16 2.359 C18.73 2.359 23.246 6.8789997 23.246 12.449 C23.246 18.019001 18.73 22.535 13.16 22.535 C7.59 22.535 3.074 18.02 3.074 12.449 C3.074 6.8780003 7.59 2.359 13.16 2.359 z" />
              <circle cx="13.16" cy="12.449" r="4.629" />
            </g>
          </g>
        </g>
      </g>
    </g>
  </g>
</svg>