<?xml version="1.0" encoding="utf-8"?>
<!DOCTYPE svg PUBLIC "-//W3C//DTD SVG 1.1//EN" "http://www.w3.org/Graphics/SVG/1.1/DTD/svg11.dtd">
<svg width="26" height="26" xmlns:xlink="http://www.w3.org/1999/xlink" xmlns:xml="http://www.w3.org/XML/1998/namespace" version="1.1" xmlns="http://www.w3.org/2000/svg">
  <g transform="translate(13, 13)" id="ToCenterGroup">
    <g transform="translate(0, 0)" id="TranslateGroup">
      <g transform="scale(1)" id="ScaleGroup">
        <g transform="scale(1)" id="InversionGroup">
          <g transform="rotate(0, 0, 0)" id="RotateGroup">
            <g transform="translate(-13, -13)" id="ToOriginGroup">
              <rect x="0" y="0" width="26" height="26" id="RawSize" style="fill:none;" />
              <path d="M13.41 0.531 C6.5429997 0.531 0.97999954 6.0940003 0.97999954 12.953 C0.97999954 19.816 6.5429997 25.379 13.41 25.379 C20.269001 25.379 25.832 19.816 25.832 12.953 C25.832 6.094 20.27 0.531 13.41 0.531 z M13.41 23.145 C7.785 23.145 3.2220001 18.582 3.2220001 12.954 C3.2220001 7.3290005 7.7850003 2.7660007 13.41 2.7660007 C19.035 2.7660007 23.598 7.329001 23.598 12.954 C23.598 18.582 19.035 23.145 13.41 23.145 z" />
              <path d="M13.402 6.367 C9.785 6.367 6.839 9.305 6.839 12.926001 C6.839 16.551 9.784 19.489 13.402 19.489 C17.027 19.489 19.965 16.551 19.965 12.926001 C19.965 9.305 17.027 6.367 13.402 6.367 z" />
            </g>
          </g>
        </g>
      </g>
    </g>
  </g>
</svg>