<?xml version="1.0" encoding="utf-8"?>
<!DOCTYPE svg PUBLIC "-//W3C//DTD SVG 1.1//EN" "http://www.w3.org/Graphics/SVG/1.1/DTD/svg11.dtd">
<svg width="26" height="45" xmlns:xlink="http://www.w3.org/1999/xlink" xmlns:xml="http://www.w3.org/XML/1998/namespace" version="1.1" xmlns="http://www.w3.org/2000/svg">
  <g transform="translate(13, 22.5)" id="ToCenterGroup">
    <g transform="translate(0, 0)" id="TranslateGroup">
      <g transform="scale(1)" id="ScaleGroup">
        <g transform="scale(1)" id="InversionGroup">
          <g transform="rotate(0, 0, 0)" id="RotateGroup">
            <g transform="translate(-13, -22.5)" id="ToOriginGroup">
              <rect x="0" y="0" width="26" height="45" id="RawSize" style="fill:none;" />
              <path d="M0.215 22.438 C0.215 29.008 5.2460003 34.351997 11.66 34.973 L11.66 44.207 L13.777 44.207 L13.777 35.004 C20.34 34.531002 25.535 29.117 25.535 22.438002 C25.535 15.759003 20.347 10.344002 13.793 9.868002 L13.793 0.605 L11.668 0.605 L11.668 9.898001 C5.254 10.516 0.215 15.859 0.215 22.438 z M12.879 18.113 C15.261999 18.113 17.199 20.047 17.199 22.437 C17.199 24.82 15.261 26.757 12.879 26.757 C10.488 26.757 8.551 24.819 8.551 22.437 C8.551 20.047 10.488 18.113 12.879 18.113 z" />
            </g>
          </g>
        </g>
      </g>
    </g>
  </g>
</svg>