<?xml version="1.0" encoding="utf-8"?>
<!DOCTYPE svg PUBLIC "-//W3C//DTD SVG 1.1//EN" "http://www.w3.org/Graphics/SVG/1.1/DTD/svg11.dtd">
<svg width="26" height="44" xmlns:xlink="http://www.w3.org/1999/xlink" xmlns:xml="http://www.w3.org/XML/1998/namespace" version="1.1" xmlns="http://www.w3.org/2000/svg">
  <g transform="translate(13, 22)" id="ToCenterGroup">
    <g transform="translate(0, 0)" id="TranslateGroup">
      <g transform="scale(1)" id="ScaleGroup">
        <g transform="scale(1)" id="InversionGroup">
          <g transform="rotate(0, 0, 0)" id="RotateGroup">
            <g transform="translate(-13, -22)" id="ToOriginGroup">
              <rect x="0" y="0" width="26" height="44" id="RawSize" style="fill:none;" />
              <path d="M12.234 34.219 L12.234 43.598 L14.3550005 43.598 L14.3550005 34.219 C20.671001 33.668003 25.625 28.375002 25.625 21.914001 C25.625 15.457002 20.672 10.164001 14.355 9.613002 L14.355 0.402 L12.233999 0.402 L12.233999 9.609 C5.893999 10.14 0.91399956 15.445 0.91399956 21.914001 C0.914 28.391 5.895 33.695 12.234 34.219 z M13.27 11.762 C18.875 11.762 23.426 16.309 23.426 21.914001 C23.426 27.523003 18.875 32.07 13.27 32.07 C7.665001 32.07 3.117 27.523 3.117 21.914 C3.117 16.309 7.664 11.762 13.27 11.762 z" />
              <path d="M13.27 27.48 C16.344 27.48 18.836 24.992 18.836 21.914 C18.836 18.844 16.344 16.351 13.27 16.351 C10.196001 16.351 7.7040005 18.843 7.7040005 21.914 C7.703 24.992 10.195 27.48 13.27 27.48 z M13.27 18.766 C15.008 18.766 16.418001 20.18 16.418001 21.914001 C16.418001 23.656002 15.008001 25.062002 13.270001 25.062002 C11.5320015 25.062002 10.125002 23.656002 10.125002 21.914001 C10.125 20.18 11.531 18.766 13.27 18.766 z" />
            </g>
          </g>
        </g>
      </g>
    </g>
  </g>
</svg>