<?xml version="1.0" encoding="utf-8"?>
<!DOCTYPE svg PUBLIC "-//W3C//DTD SVG 1.1//EN" "http://www.w3.org/Graphics/SVG/1.1/DTD/svg11.dtd">
<svg width="32" height="32" xmlns:xlink="http://www.w3.org/1999/xlink" xmlns:xml="http://www.w3.org/XML/1998/namespace" version="1.1" xmlns="http://www.w3.org/2000/svg">
  <g transform="translate(16, 16)" id="ToCenterGroup">
    <g transform="translate(0, 0)" id="TranslateGroup">
      <g transform="scale(1)" id="ScaleGroup">
        <g transform="scale(1)" id="InversionGroup">
          <g transform="rotate(0, 0, 0)" id="RotateGroup">
            <g transform="translate(-16, -16)" id="ToOriginGroup">
              <rect x="0" y="0" width="32" height="32" id="RawSize" style="fill:none;" />
              <path d="M30.958 17.128 C30.712 16.401001 29.657 13.472 26.321 12.573 C22.984999 11.682 21.515999 12.659 20.946 12.901 C20.376 13.143 20.297998 12.979 20.539999 12.167 C20.786 11.354 22.492998 8.589 22.492998 7.284 C22.492998 5.979 22.656998 3.1360002 19.562998 1.0959997 C16.47 -0.935 13.38 0.37 12.243 0.94 C11.102 1.51 8.415 3.7840002 8.579 6.5490003 C8.743001 9.314 9.313001 9.401 10.044001 10.541 C10.775001 11.681001 11.021001 12.494 10.614 13.064 C10.329 13.462 6.3840003 11.837 5.0010004 12.408 C3.6180005 12.979 1.4190004 14.283 0.6880002 15.9939995 C-0.045999825 17.696999 -0.2099998 19.9 0.2780002 21.196999 C0.7660002 22.501999 1.9070002 25.102999 4.7550006 26.079998 C7.603001 27.056997 10.290001 25.509998 10.775001 25.431997 C11.267 25.345997 11.427001 24.861998 11.838 24.939997 C12.244 25.025997 12.486 25.345997 12.3220005 25.837997 C12.158001 26.321997 11.181001 29.337997 11.103001 29.743998 C11.021001 30.149998 11.021001 31.024998 11.673 31.188997 C12.54 31.399998 15.032001 31.251997 15.657001 31.125998 C16.063 31.047998 19.321001 31.336998 19.563 31.172998 C19.809 31.016998 19.735 30.391998 19.493 29.906998 C19.134 29.187998 18.86 25.375998 18.751 25.101997 C18.587 24.695997 18.993 24.453997 19.727999 24.695997 C20.462997 24.937998 22.985998 26.164997 24.123 26.164997 C25.26 26.164997 27.619 25.914997 29.571999 23.555998 C31.524998 21.196999 31.204 17.862 30.958 17.128 z M28.435 20.464 C27.705 22.909 26.806 23.237001 24.935 23.808 C23.064 24.371 21.681 23.480001 20.946999 23.152 C20.217 22.832 18.834 21.441 18.423998 21.035 C18.017998 20.629 17.286999 20.629 16.962997 21.035 C16.634998 21.441 16.310997 22.262 16.310997 23.316 C16.310997 24.37 16.798998 25.675 16.880997 26.246 C16.962996 26.817001 17.040997 28.441 16.798996 28.684 C16.556995 28.934 16.310995 29.176 15.087996 29.012 C13.868996 28.848 14.110995 28.278 14.032995 27.870998 C13.950995 27.464998 14.196995 25.839998 14.516995 24.862999 C14.8449955 23.886 14.680995 22.668 14.516995 21.932999 C14.356996 21.199 13.703996 20.877998 13.2199955 21.034998 C12.727996 21.198997 11.914995 22.175999 11.102995 22.667997 C10.289995 23.151997 8.985994 24.050997 7.520995 24.128998 C6.055995 24.214998 4.915995 24.214998 3.5329952 22.667997 C2.1499953 21.120996 2.0719953 19.245998 2.5559952 17.784998 C3.0479953 16.315998 4.184995 15.425998 4.836995 14.932998 C5.484995 14.4489975 7.2429953 14.393998 7.809995 14.479998 C8.379995 14.557998 9.555995 15.260998 9.961995 15.424997 C10.367995 15.588997 11.426995 16.237997 12.566996 16.151997 C13.703996 16.073997 13.789995 15.338997 14.109996 14.854997 C14.437996 14.362997 14.109996 13.143997 13.949996 12.737997 C13.703996 12.331997 11.996996 10.292997 11.3449955 9.0739975 C10.696996 7.8549976 10.696996 5.7379975 10.938995 5.1679974 C10.899996 5.261997 11.907995 3.1209974 13.543995 2.5509973 C15.656995 1.8169973 17.285995 2.6449974 18.422995 3.1369972 C19.563995 3.6209972 20.133995 5.2539973 20.461994 6.386997 C20.695993 7.2149973 19.867994 8.745997 19.727995 9.159997 C19.485994 9.886997 18.102995 11.597997 17.368996 12.331997 C16.634996 13.065997 16.716995 13.636997 17.040997 14.612997 C17.368996 15.589997 18.103996 15.589997 18.423996 15.745997 C18.751995 15.909997 20.134996 16.073997 21.111996 15.261997 C22.088995 14.449997 23.877996 14.1989975 24.853996 14.284997 C25.830996 14.362997 26.888996 14.932997 27.376997 15.667997 C27.864998 16.402998 29.165 18.026 28.435 20.464 z" />
            </g>
          </g>
        </g>
      </g>
    </g>
  </g>
</svg>