<?xml version="1.0" encoding="utf-8"?>
<!DOCTYPE svg PUBLIC "-//W3C//DTD SVG 1.1//EN" "http://www.w3.org/Graphics/SVG/1.1/DTD/svg11.dtd">
<svg width="32" height="33" xmlns:xlink="http://www.w3.org/1999/xlink" xmlns:xml="http://www.w3.org/XML/1998/namespace" version="1.1" xmlns="http://www.w3.org/2000/svg">
  <g transform="translate(16, 16.5)" id="ToCenterGroup">
    <g transform="translate(0, 0)" id="TranslateGroup">
      <g transform="scale(1)" id="ScaleGroup">
        <g transform="scale(1)" id="InversionGroup">
          <g transform="rotate(0, 0, 0)" id="RotateGroup">
            <g transform="translate(-16, -16.5)" id="ToOriginGroup">
              <rect x="0" y="0" width="32" height="33" id="RawSize" style="fill:none;" />
              <path d="M24.789 12.531 C22.937 12.531 21.272999 13.191 20.074 14.418 C19.710999 14.2890005 19.171999 14.199 18.941 13.762 C18.664 13.242001 18.734 12.481 18.734 12.449 C20.632 11.457001 22.303999 9.254001 22.303999 6.6010003 C22.305 2.957 19.352 0 15.703 0 L15.687 0 C12.0390005 0 9.085 2.957 9.085 6.602 C9.085 9.254 10.753 11.457001 12.651 12.450001 C12.655 12.477001 12.667 13.204 12.428 13.68 C12.194 14.16 11.709001 14.278 11.311001 14.418 C10.116001 13.191 8.452001 12.531 6.600001 12.531 C2.953 12.531 0 15.488 0 19.133 C0 22.778 2.953 25.735 6.602 25.735 C8.985001 25.735 11.508 24.462 12.668 22.567001 C13.617001 24.192001 13.602 23.887001 13.602 26.376001 C13.602 28.353 12.625 30.153002 11.383 31.505001 C11.328 31.677002 11.297 31.825 11.320001 31.911001 C11.402 32.235 15.687 32.122 15.687 32.122 L15.703 32.122 C15.703 32.122 19.987999 32.235 20.07 31.911001 C20.093 31.825 20.058 31.677002 20.007 31.505001 C18.765 30.153002 17.784 28.353 17.784 26.376001 C17.784 23.888 17.772001 24.192001 18.722 22.567001 C19.882 24.462002 22.406 25.735 24.788 25.735 C28.436 25.735 31.39 22.778 31.39 19.133 C31.39 15.487999 28.438 12.531 24.789 12.531 z" />
            </g>
          </g>
        </g>
      </g>
    </g>
  </g>
</svg>