<?xml version="1.0" encoding="utf-8"?>
<!DOCTYPE svg PUBLIC "-//W3C//DTD SVG 1.1//EN" "http://www.w3.org/Graphics/SVG/1.1/DTD/svg11.dtd">
<svg width="26" height="36" xmlns:xlink="http://www.w3.org/1999/xlink" xmlns:xml="http://www.w3.org/XML/1998/namespace" version="1.1" xmlns="http://www.w3.org/2000/svg">
  <g transform="translate(13, 18)" id="ToCenterGroup">
    <g transform="translate(0, 0)" id="TranslateGroup">
      <g transform="scale(1)" id="ScaleGroup">
        <g transform="scale(1)" id="InversionGroup">
          <g transform="rotate(0, 0, 0)" id="RotateGroup">
            <g transform="translate(-13, -18)" id="ToOriginGroup">
              <rect x="0" y="0" width="26" height="36" id="RawSize" style="fill:none;" />
              <path d="M19.957 12.258 L19.937 12.2890005 C19.351 11.863001 18.722 11.437 18.015 11.023001 C18.015 11.023001 23.062 5.257001 23.64 5.2420006 C24.217999 5.2300005 23.406 4.5780005 23.406 4.5780005 L19.656 0.6330006 L17.937 0.9460006 C17.937 0.9460006 11.777 4.2470007 10.589001 5.634001 C8.116001 8.525001 7.9090004 7.8290005 4.4840007 11.986001 C4.3550005 12.134001 2.5460007 14.904001 1.6130006 17.017002 C0.7340006 18.740002 0.21800065 20.689003 0.21800065 22.755001 C0.21800065 29.747002 5.8900003 35.415 12.882 35.415 C19.869999 35.415 25.538 29.747002 25.538 22.755001 C25.539 18.383 23.324 14.531 19.957 12.258 z M12.883 32.949 C10.313001 32.949 8 31.953001 6.2310004 30.367 L20.317001 16.281 C21.907001 18.047 22.876001 20.386 22.876001 22.953 C22.875 28.473 18.398 32.949 12.883 32.949 z" />
            </g>
          </g>
        </g>
      </g>
    </g>
  </g>
</svg>