<?xml version="1.0" encoding="utf-8"?>
<!DOCTYPE svg PUBLIC "-//W3C//DTD SVG 1.1//EN" "http://www.w3.org/Graphics/SVG/1.1/DTD/svg11.dtd">
<svg width="26" height="36" xmlns:xlink="http://www.w3.org/1999/xlink" xmlns:xml="http://www.w3.org/XML/1998/namespace" version="1.1" xmlns="http://www.w3.org/2000/svg">
  <g transform="translate(13, 18)" id="ToCenterGroup">
    <g transform="translate(0, 0)" id="TranslateGroup">
      <g transform="scale(1)" id="ScaleGroup">
        <g transform="scale(1)" id="InversionGroup">
          <g transform="rotate(0, 0, 0)" id="RotateGroup">
            <g transform="translate(-13, -18)" id="ToOriginGroup">
              <rect x="0" y="0" width="26" height="36" id="RawSize" style="fill:none;" />
              <path d="M19.957 12.258 L19.934 12.293 C19.348 11.867001 18.723 11.445001 18.012 11.027 C18.012 11.027 23.058998 5.2570004 23.637 5.2460003 C24.215 5.235 23.403 4.5820003 23.403 4.5820003 L19.653 0.6410003 L17.934 0.95400023 C17.934 0.95400023 11.778 4.2510004 10.59 5.642 C8.121 8.531 7.91 7.832 4.48 11.988 C4.355 12.14 2.542 14.906 1.6129999 17.019001 C0.7299999 18.742 0.21499991 20.687 0.21499991 22.757 C0.21499991 29.749 5.887 35.413002 12.879 35.413002 C19.870998 35.413002 25.535 29.749002 25.535 22.757002 C25.535 18.391 23.324 14.535 19.957 12.258 z M12.879 32.953 C7.356 32.953 2.8789997 28.475998 2.8789997 22.953 C2.8789997 21.811998 3.0739996 20.719 3.4259996 19.695 L3.41 19.664 C3.582 19.022999 3.801 18.375 4.113 17.75 C6.121 13.73 9.91 9.809 9.73 9.953 C12.332 7.875 14.401999 5.223 15.785 4.765 C15.996 4.6949997 18.574 2.9559999 18.574 2.9559999 C18.574 2.9559999 20.550999 4.269 20.550999 4.765 C20.550999 5.007 13.831999 10.924999 14.136999 11.830999 C14.300999 12.327 14.136999 12.655 14.136999 12.655 L14.956999 13.146999 C14.956999 13.146999 16.714998 13.599999 18.558998 14.733 C21.160997 16.538 22.871998 19.546 22.871998 22.952 C22.871 28.477 18.395 32.953 12.879 32.953 z" />
              <path d="M13.059 17.273 C10.012 17.273 7.5360003 19.742 7.5360003 22.796001 C7.5360003 25.843002 10.0130005 28.319 13.059 28.319 C16.114 28.319 18.582 25.842001 18.582 22.796001 C18.582 19.742 16.113 17.273 13.059 17.273 z" />
            </g>
          </g>
        </g>
      </g>
    </g>
  </g>
</svg>