<?xml version="1.0" encoding="utf-8"?>
<!DOCTYPE svg PUBLIC "-//W3C//DTD SVG 1.1//EN" "http://www.w3.org/Graphics/SVG/1.1/DTD/svg11.dtd">
<svg width="26" height="35" xmlns:xlink="http://www.w3.org/1999/xlink" xmlns:xml="http://www.w3.org/XML/1998/namespace" version="1.1" xmlns="http://www.w3.org/2000/svg">
  <g transform="translate(13, 17.5)" id="ToCenterGroup">
    <g transform="translate(0, 0)" id="TranslateGroup">
      <g transform="scale(1)" id="ScaleGroup">
        <g transform="scale(1)" id="InversionGroup">
          <g transform="rotate(0, 0, 0)" id="RotateGroup">
            <g transform="translate(-13, -17.5)" id="ToOriginGroup">
              <rect x="0" y="0" width="26" height="35" id="RawSize" style="fill:none;" />
              <path d="M20.316 11.816 L20.3 11.847 C19.713999 11.425 19.088999 10.999001 18.377998 10.585 C18.377998 10.585 23.416998 4.815 23.994999 4.8 C24.581 4.788 23.761 4.1400003 23.761 4.1400003 L20.011 0.19500041 L18.3 0.5080004 C18.3 0.5080004 12.136 3.8090005 10.955999 5.1960006 C8.48 8.086 8.27 7.387 4.84 11.543 C4.723 11.695001 2.9100003 14.461 1.973 16.574001 C1.098 18.301 0.582 20.242 0.582 22.312 C0.582 29.304 6.2460003 34.972 13.238 34.972 C20.23 34.972 25.902 29.304 25.902 22.312 C25.902 17.945 23.684 14.09 20.316 11.816 z M13.238 32.508 C7.722 32.508 3.2460003 28.030998 3.2460003 22.512 C3.2460003 21.370998 3.4340003 20.273998 3.7850003 19.25 L3.77 19.223 C3.95 18.578 4.161 17.934 4.473 17.305 C6.481 13.2890005 10.278 9.364 10.098 9.512 C12.7 7.4300003 14.761999 4.778 16.145 4.321 C16.356 4.251 18.942001 2.512 18.942001 2.512 C18.942001 2.512 20.91 3.828 20.91 4.32 C20.91 4.566 14.198999 10.48 14.496 11.386 C14.668 11.882 14.496 12.21 14.496 12.21 L15.324 12.702 C15.324 12.702 17.074001 13.158999 18.918001 14.288 C21.527 16.093 23.238 19.101 23.238 22.511 C23.238 28.031 18.762 32.508 13.238 32.508 z" />
            </g>
          </g>
        </g>
      </g>
    </g>
  </g>
</svg>