<?xml version="1.0" encoding="utf-8"?>
<!DOCTYPE svg PUBLIC "-//W3C//DTD SVG 1.1//EN" "http://www.w3.org/Graphics/SVG/1.1/DTD/svg11.dtd">
<svg width="26" height="37" xmlns:xlink="http://www.w3.org/1999/xlink" xmlns:xml="http://www.w3.org/XML/1998/namespace" version="1.1" xmlns="http://www.w3.org/2000/svg">
  <g transform="translate(13, 18.5)" id="ToCenterGroup">
    <g transform="translate(0, 0)" id="TranslateGroup">
      <g transform="scale(1)" id="ScaleGroup">
        <g transform="scale(1)" id="InversionGroup">
          <g transform="rotate(0, 0, 0)" id="RotateGroup">
            <g transform="translate(-13, -18.5)" id="ToOriginGroup">
              <rect x="0" y="0" width="26" height="37" id="RawSize" style="fill:none;" />
              <path d="M19.957 12.309 L19.934 12.344 C19.352 11.8949995 18.727 11.448999 18.012 11.012 C18.012 11.012 23.055 4.949 23.637 4.934 C24.214998 4.922 23.403 4.235 23.403 4.235 L19.656 0.09 L17.933 0.418 C17.933 0.418 11.773001 3.887 10.589001 5.348 C8.117 8.387 7.906 7.652 4.48 12.023 C4.355 12.179 2.546 15.089 1.6129999 17.312 C0.7299999 19.125 0.21799994 21.171 0.21799994 23.347 C0.21799994 30.699001 5.886 36.656 12.874001 36.656 C19.866001 36.656 25.538 30.698997 25.538 23.346998 C25.539 18.754 23.32 14.699 19.957 12.309 z M12.875 34.066 C7.359 34.066 2.8830004 29.359001 2.8830004 23.554 C2.8830004 22.351002 3.0740004 21.202002 3.4260004 20.124 L3.4060004 20.097 C3.5820003 19.421 3.7970004 18.742 4.109 18.081 C6.117 13.855 9.914 9.73 9.73 9.887 C12.332 7.696 14.406 4.91 15.781 4.426 C15.992001 4.352 18.578 2.528 18.578 2.528 C18.578 2.528 20.546999 3.907 20.546999 4.426 C20.546999 4.684 13.835999 10.906 14.140999 11.860001 C14.304998 12.380001 14.140999 12.723001 14.140999 12.723001 L14.960999 13.243 C14.960999 13.243 16.714998 13.723 18.554998 14.911 C21.163998 16.809 22.874998 19.970001 22.874998 23.556 C22.875 29.359 18.398 34.066 12.875 34.066 z" />
              <path d="M13.059 17.582 C10.007999 17.582 7.539 20.18 7.539 23.387001 C7.539 26.594002 10.008 29.192001 13.059 29.192001 C16.11 29.192001 18.582 26.594002 18.582 23.387001 C18.582 20.18 16.109 17.582 13.059 17.582 z M13.059 26.906 C11.211 26.906 9.711 25.332 9.711 23.386 C9.711 21.439999 11.211 19.866 13.059 19.866 C14.907 19.866 16.407 21.439999 16.407 23.386 C16.407 25.332 14.906 26.906 13.059 26.906 z" />
            </g>
          </g>
        </g>
      </g>
    </g>
  </g>
</svg>