<?xml version="1.0" encoding="utf-8"?>
<!DOCTYPE svg PUBLIC "-//W3C//DTD SVG 1.1//EN" "http://www.w3.org/Graphics/SVG/1.1/DTD/svg11.dtd">
<svg width="26" height="35" xmlns:xlink="http://www.w3.org/1999/xlink" xmlns:xml="http://www.w3.org/XML/1998/namespace" version="1.1" xmlns="http://www.w3.org/2000/svg">
  <g transform="translate(13, 17.5)" id="ToCenterGroup">
    <g transform="translate(0, 0)" id="TranslateGroup">
      <g transform="scale(1)" id="ScaleGroup">
        <g transform="scale(1)" id="InversionGroup">
          <g transform="rotate(0, 0, 0)" id="RotateGroup">
            <g transform="translate(-13, -17.5)" id="ToOriginGroup">
              <rect x="0" y="0" width="26" height="35" id="RawSize" style="fill:none;" />
              <path d="M25.902 22.313 C25.902 17.942 23.683 14.09 20.316 11.813 L20.3 11.848 C19.713999 11.422 19.081 11 18.377998 10.5859995 C18.377998 10.5859995 23.416998 4.8159995 24.002998 4.8049994 C24.580997 4.7889996 23.769 4.1409993 23.769 4.1409993 L20.019 0.19599938 L18.3 0.50899935 C18.3 0.50899935 12.136 3.8059993 10.955999 5.1969995 C8.48 8.086 8.27 7.387 4.84 11.543 C4.723 11.695001 2.9100003 14.461 1.973 16.574001 C1.098 18.297 0.582 20.242 0.582 22.312 C0.582 29.304 6.2539997 34.968002 13.238 34.968002 C20.23 34.969 25.902 29.305 25.902 22.313 z M3.785 19.25 L3.77 19.219 C3.95 18.578 4.161 17.93 4.473 17.305 C6.481 13.2890005 10.278 9.364 10.098 9.508 C12.7 7.4300003 14.7699995 4.7780004 16.145 4.32 C16.356 4.25 18.942001 2.5070002 18.942001 2.5070002 C18.942001 2.5070002 20.911001 3.8270001 20.911001 4.32 C20.911001 4.5620003 14.200001 10.476 14.505001 11.386 C14.669001 11.882 14.505001 12.21 14.505001 12.21 L15.325001 12.702 C15.325001 12.702 17.075 13.155 18.919 14.288 C19.169 14.456 19.357 14.686 19.583 14.874001 L5.59 28.871 C4.1520004 27.137001 3.246 24.937 3.246 22.508 C3.246 21.367 3.434 20.273 3.785 19.25 z M13.238 32.508 C10.918 32.508 8.808001 31.68 7.113 30.352 L21.066 16.390999 C22.402 18.085999 23.237999 20.188 23.237999 22.508 C23.238 28.031 18.762 32.508 13.238 32.508 z" />
            </g>
          </g>
        </g>
      </g>
    </g>
  </g>
</svg>