<?xml version="1.0" encoding="utf-8"?>
<!DOCTYPE svg PUBLIC "-//W3C//DTD SVG 1.1//EN" "http://www.w3.org/Graphics/SVG/1.1/DTD/svg11.dtd">
<svg width="27" height="45" xmlns:xlink="http://www.w3.org/1999/xlink" xmlns:xml="http://www.w3.org/XML/1998/namespace" version="1.1" xmlns="http://www.w3.org/2000/svg">
  <g transform="translate(13.5, 22.5)" id="ToCenterGroup">
    <g transform="translate(0, 0)" id="TranslateGroup">
      <g transform="scale(1)" id="ScaleGroup">
        <g transform="scale(1)" id="InversionGroup">
          <g transform="rotate(0, 0, 0)" id="RotateGroup">
            <g transform="translate(-13.5, -22.5)" id="ToOriginGroup">
              <rect x="0" y="0" width="27" height="45" id="RawSize" style="fill:none;" />
              <path d="M20.121 17.742 C19.676 17.172 16.926 13.758 15.137 11.804001 C15.129 11.749001 15.114 11.702001 15.098001 11.648001 C18.262001 7.601001 26.239 2.1400003 26.239 2.1400003 C26.083 1.2730004 25.083 0.5770004 24.755001 0.7340003 C20.067001 3.0540004 14.357001 8.625 13.317001 9.742001 C12.16 8.539 6.559 3.078 1.934 0.789 C1.512 0.578 0.707 1.008 0.449 2.422 C0.41 2.625 6.855 5.766 11.426 11.508 C9.629 13.375 7.0739994 17.141 6.6059995 17.742 C6.0359993 18.476 3.5899994 22.383 3.0279994 23.844002 C2.4579995 25.313002 0.98899937 28.078003 0.9109993 31.492 C0.8249993 34.914 1.8879993 36.867 2.8639994 38.414 C5.3409996 42.344 9.613999 44.109 13.191999 44.109 L13.528 44.109 C17.105999 44.109 21.380001 42.343002 23.864 38.414 C24.841 36.867 25.895 34.914 25.817 31.492 C25.730999 28.078001 24.269999 25.312 23.699999 23.844002 C23.129 22.383 20.691 18.477 20.121 17.742 z M3.238 32.391 C3.222 32.25 3.207 31.758 3.215 31.398998 L3.481 29.257998 C3.4889998 29.234997 3.4889998 29.226997 3.497 29.210997 C3.981 27.507998 4.544 25.866997 6.1140003 22.921997 C7.5980005 20.132998 10.841001 15.374997 12.177 14.093997 C12.2 14.070997 12.224 14.054997 12.247 14.038997 L12.247 41.68 C7.52 41.18 3.824 37.469 3.238 32.391 z M23.465 32.43 C22.934 37.102 19.426 41.086 14.512 41.664 L14.512 14.359 C16.325 16.39 20.278 22.047 21.207 23.914001 C21.645 24.797 22.598001 26.023 23.176 29.258001 L23.457 31.399002 C23.512 31.773 23.48 32.289 23.465 32.43 z" />
            </g>
          </g>
        </g>
      </g>
    </g>
  </g>
</svg>