<?xml version="1.0" encoding="utf-8"?>
<!DOCTYPE svg PUBLIC "-//W3C//DTD SVG 1.1//EN" "http://www.w3.org/Graphics/SVG/1.1/DTD/svg11.dtd">
<svg width="26" height="35" xmlns:xlink="http://www.w3.org/1999/xlink" xmlns:xml="http://www.w3.org/XML/1998/namespace" version="1.1" xmlns="http://www.w3.org/2000/svg">
  <g transform="translate(13, 17.5)" id="ToCenterGroup">
    <g transform="translate(0, 0)" id="TranslateGroup">
      <g transform="scale(1)" id="ScaleGroup">
        <g transform="scale(1)" id="InversionGroup">
          <g transform="rotate(0, 0, 0)" id="RotateGroup">
            <g transform="translate(-13, -17.5)" id="ToOriginGroup">
              <rect x="0" y="0" width="26" height="35" id="RawSize" style="fill:none;" />
              <path d="M25.422 22.086 C25.399 16.406 22.742 13.125 22.543001 12.648001 C21.531002 10.218 15.711001 3.132001 13.891001 1.3200006 L13.891001 1.219 L13.032001 0.629 C13.032001 0.629 12.177 0.78900003 11.52 1.4219999 C9.899 2.985 5.6800003 8.149 3.9260006 11.344 C1.9770006 14.907 1.2380006 16.922 0.6530006 18.989 C0.5710006 19.266 0.21900061 22.087 0.21900061 22.087 C0.21900061 22.232 0.2500006 22.767 0.2500006 22.9 L0.3050006 22.9 C0.7270006 29.505 6.164001 34.748 12.879001 34.748 C19.871 34.748 25.539001 29.080002 25.539001 22.088001 L25.422 22.088001 z M5.531 13.363 C6.9760003 10.734 10.48 5.742 11.816 4.457 C12.351 3.9369998 13.058 3.8049998 13.058 3.8049998 L13.764999 4.2929997 L13.764999 4.3749995 C15.264999 5.8629994 20.015 12.438 20.842999 14.434 C20.987999 14.786 22.721998 16.973 23.116 20.743 L2.602 20.743 C2.633 20.438 2.692 20.134 2.836 19.649 C3.32 17.953 3.926 16.293 5.531 13.363 z M12.879 32.406 C7.457 32.406 3.059 28.186998 2.6759996 22.866999 L23.085999 22.866999 C22.699 28.188 18.305 32.406 12.879 32.406 z" />
            </g>
          </g>
        </g>
      </g>
    </g>
  </g>
</svg>