<?xml version="1.0" encoding="utf-8"?>
<!DOCTYPE svg PUBLIC "-//W3C//DTD SVG 1.1//EN" "http://www.w3.org/Graphics/SVG/1.1/DTD/svg11.dtd">
<svg width="27" height="45" xmlns:xlink="http://www.w3.org/1999/xlink" xmlns:xml="http://www.w3.org/XML/1998/namespace" version="1.1" xmlns="http://www.w3.org/2000/svg">
  <g transform="translate(13.5, 22.5)" id="ToCenterGroup">
    <g transform="translate(0, 0)" id="TranslateGroup">
      <g transform="scale(1)" id="ScaleGroup">
        <g transform="scale(1)" id="InversionGroup">
          <g transform="rotate(0, 0, 0)" id="RotateGroup">
            <g transform="translate(-13.5, -22.5)" id="ToOriginGroup">
              <rect x="0" y="0" width="27" height="45" id="RawSize" style="fill:none;" />
              <path d="M20.121 17.742 C19.68 17.172 16.93 13.758 15.137 11.804001 C15.129 11.749001 15.114 11.702001 15.102 11.648001 C18.262001 7.601001 26.243 2.1400003 26.243 2.1400003 C26.087 1.2730004 25.087 0.5770004 24.759 0.7340003 C20.07 3.055 14.359 8.625 13.32 9.742 C12.16 8.539 6.559 3.078 1.938 0.789 C1.512 0.57799995 0.70799994 1.008 0.454 2.422 C0.414 2.625 6.859 5.758 11.43 11.508 C9.633 13.375 7.0750003 17.141 6.6060004 17.742 C6.0400004 18.476 3.5980005 22.383 3.0240004 23.844002 C2.4540005 25.313002 0.9930005 28.078003 0.9110005 31.492 C0.8290005 34.914 1.8880005 36.867 2.8640003 38.414 C5.3480005 42.344 9.618 44.109 13.196 44.109 L13.532001 44.109 C17.11 44.109 21.380001 42.343002 23.864 38.414 C24.841 36.867 25.899 34.914 25.817 31.492 C25.734999 28.078001 24.274 25.312 23.703999 23.844002 C23.129 22.383 20.688 18.477 20.121 17.742 z M12.848 41.719 C7.3709993 41.344 3.2229996 37.141003 3.2229996 31.516003 L3.1529996 31.516003 C3.2119997 30.328003 3.1409996 30.110003 3.4619997 29.039003 C3.9419997 27.344004 4.4779997 25.680004 6.0829997 22.750004 C7.5239997 20.125004 11.191999 14.898004 12.528 13.609004 C12.735 13.414004 12.5789995 13.922004 12.93 13.820004 L12.848 41.719 z" />
            </g>
          </g>
        </g>
      </g>
    </g>
  </g>
</svg>