<?xml version="1.0" encoding="utf-8"?>
<!DOCTYPE svg PUBLIC "-//W3C//DTD SVG 1.1//EN" "http://www.w3.org/Graphics/SVG/1.1/DTD/svg11.dtd">
<svg width="27" height="45" xmlns:xlink="http://www.w3.org/1999/xlink" xmlns:xml="http://www.w3.org/XML/1998/namespace" version="1.1" xmlns="http://www.w3.org/2000/svg">
  <g transform="translate(13.5, 22.5)" id="ToCenterGroup">
    <g transform="translate(0, 0)" id="TranslateGroup">
      <g transform="scale(1)" id="ScaleGroup">
        <g transform="scale(1)" id="InversionGroup">
          <g transform="rotate(0, 0, 0)" id="RotateGroup">
            <g transform="translate(-13.5, -22.5)" id="ToOriginGroup">
              <rect x="0" y="0" width="27" height="45" id="RawSize" style="fill:none;" />
              <path d="M20.113 17.742 C19.675001 17.172 16.925001 13.758 15.136001 11.804001 C15.128 11.749001 15.113001 11.702001 15.097001 11.648001 C18.261002 7.601001 26.238 2.1400003 26.238 2.1400003 C26.082 1.2730004 25.082 0.5770004 24.746 0.7340003 C20.066 3.0540004 14.3550005 8.625 13.316 9.742001 C12.16 8.539 6.551 3.078 1.934 0.789 C1.512 0.578 0.707 1.008 0.449 2.422 C0.418 2.625 6.855 5.758 11.426001 11.508 C9.629001 13.375 7.0740004 17.141 6.5980005 17.742 C6.0350003 18.476 3.5900006 22.383 3.0200005 23.844002 C2.4500005 25.313002 0.98900056 28.078003 0.9110005 31.492 C0.82500046 34.914 1.8880005 36.867 2.8640003 38.414 C5.3410006 42.344 9.614 44.109 13.192 44.109 L13.528001 44.109 C17.106 44.109 21.380001 42.343002 23.864002 38.414 C24.833002 36.867 25.895002 34.914 25.817001 31.492 C25.731 28.078001 24.27 25.312 23.7 23.844002 C23.129 22.383 20.684 18.477 20.113 17.742 z M23.457 32.43 C22.894001 37.477 18.863 41.782 13.309001 41.782 C8.075001 41.782 3.8710012 37.852 3.231001 32.391003 C3.2150009 32.250004 3.208001 31.758003 3.2150009 31.399002 L3.481001 29.258001 C3.481001 29.235 3.4890008 29.227001 3.497001 29.211 C3.981001 27.508001 4.544001 25.867 6.1140013 22.922 C7.5980015 20.133001 10.8410015 15.375001 12.177002 14.094001 C12.7160015 13.571001 13.419002 13.367001 13.419002 13.367001 L14.130002 13.851001 L14.130002 13.929001 C15.708002 15.499001 20.216002 21.913002 21.208002 23.913002 C21.638002 24.796001 22.599003 26.022001 23.177002 29.257002 L23.458002 31.398003 C23.512 31.773 23.473 32.289 23.457 32.43 z" />
              <path d="M13.379 26.273 C10.332 26.273 7.856 28.75 7.856 31.804 C7.856 34.851 10.333 37.327 13.379 37.327 C16.434 37.327 18.902 34.85 18.902 31.804 C18.902 28.75 16.434 26.273 13.379 26.273 z" />
            </g>
          </g>
        </g>
      </g>
    </g>
  </g>
</svg>