<?xml version="1.0" encoding="utf-8"?>
<!DOCTYPE svg PUBLIC "-//W3C//DTD SVG 1.1//EN" "http://www.w3.org/Graphics/SVG/1.1/DTD/svg11.dtd">
<svg width="26" height="35" xmlns:xlink="http://www.w3.org/1999/xlink" xmlns:xml="http://www.w3.org/XML/1998/namespace" version="1.1" xmlns="http://www.w3.org/2000/svg">
  <g transform="translate(13, 17.5)" id="ToCenterGroup">
    <g transform="translate(0, 0)" id="TranslateGroup">
      <g transform="scale(1)" id="ScaleGroup">
        <g transform="scale(1)" id="InversionGroup">
          <g transform="rotate(0, 0, 0)" id="RotateGroup">
            <g transform="translate(-13, -17.5)" id="ToOriginGroup">
              <rect x="0" y="0" width="26" height="35" id="RawSize" style="fill:none;" />
              <path d="M25.422 22.086 C25.395 16.406 22.738 13.125 22.539001 12.648001 C21.531002 10.218 15.707002 3.1280003 13.887001 1.3200006 L13.887001 1.219 L13.028001 0.629 C13.028001 0.629 12.173 0.78900003 11.52 1.4219999 C9.895 2.985 5.6800003 8.149 3.9260006 11.344 C1.9730006 14.907 1.2380006 16.922 0.64900064 18.992 C0.5670006 19.265001 0.21900064 22.086 0.21900064 22.086 C0.21900064 22.231 0.24600063 22.766 0.24600063 22.899 L0.30100062 22.899 C0.72300065 29.508 6.1640005 34.747 12.879001 34.747 C19.871 34.747 25.539001 29.079002 25.539001 22.087002 L25.422 22.087002 z M23.059 22.086 C23.059 27.711 18.496 32.266 12.879 32.266 C7.2539997 32.266 2.6989994 27.710999 2.6989994 22.085999 L2.6289995 22.085999 C2.6879995 20.913998 2.6169994 20.703 2.9339995 19.637 C3.4109995 17.953 4.0119996 16.313 5.6019993 13.409999 C7.0279994 10.804998 10.504 5.8669987 11.824999 4.589999 C12.355999 4.077999 13.054998 3.9449992 13.054998 3.9449992 L13.753999 4.4289994 L13.753999 4.5069995 C15.237999 5.9839993 19.942 12.490999 20.762 14.468 C20.925999 14.859 23.063 17.503 23.105999 22.085001 L23.059 22.085001 z" />
              <circle cx="12.828" cy="22.246" r="5.543" />
            </g>
          </g>
        </g>
      </g>
    </g>
  </g>
</svg>