<?xml version="1.0" encoding="utf-8"?>
<!DOCTYPE svg PUBLIC "-//W3C//DTD SVG 1.1//EN" "http://www.w3.org/Graphics/SVG/1.1/DTD/svg11.dtd">
<svg width="26" height="35" xmlns:xlink="http://www.w3.org/1999/xlink" xmlns:xml="http://www.w3.org/XML/1998/namespace" version="1.1" xmlns="http://www.w3.org/2000/svg">
  <g transform="translate(13, 17.5)" id="ToCenterGroup">
    <g transform="translate(0, 0)" id="TranslateGroup">
      <g transform="scale(1)" id="ScaleGroup">
        <g transform="scale(1)" id="InversionGroup">
          <g transform="rotate(0, 0, 0)" id="RotateGroup">
            <g transform="translate(-13, -17.5)" id="ToOriginGroup">
              <rect x="0" y="0" width="26" height="35" id="RawSize" style="fill:none;" />
              <path d="M25.426 22.086 C25.399 16.406 22.738 13.125 22.543001 12.648001 C21.535002 10.218 15.711001 3.132001 13.895001 1.3200006 L13.895001 1.219 L13.0320015 0.629 C13.0320015 0.629 12.177002 0.78900003 11.520001 1.4219999 C9.895001 2.985 5.6840014 8.149 3.9300013 11.344 C1.9770013 14.907 1.2390013 16.922 0.6530013 18.989 C0.5710013 19.266 0.21900132 22.087 0.21900132 22.087 C0.21900132 22.232 0.2500013 22.767 0.2500013 22.9 L0.3010013 22.9 C0.7310013 29.505 6.168001 34.748 12.879002 34.748 C19.871002 34.748 25.539001 29.080002 25.539001 22.088001 L25.426 22.088001 z M12.879 32.406 C7.2029996 32.406 2.6019993 27.803997 2.6019993 22.124998 L2.535 22.124998 C2.5900002 20.944998 2.519 20.726997 2.836 19.647999 C3.32 17.953 3.926 16.293 5.535 13.362999 C6.9729996 10.733999 10.48 5.741999 11.816 4.456999 C12.355 3.9369988 13.058 3.8049989 13.058 3.8049989 L13.769 4.292999 L13.769 4.3749986 C15.261 5.8629985 20.011 12.437998 20.843 14.433998 C21.003 14.828999 23.167 17.499998 23.206001 22.124998 L23.16 22.124998 C23.16 27.805 18.559 32.406 12.879 32.406 z" />
            </g>
          </g>
        </g>
      </g>
    </g>
  </g>
</svg>