<?xml version="1.0" encoding="utf-8"?>
<!DOCTYPE svg PUBLIC "-//W3C//DTD SVG 1.1//EN" "http://www.w3.org/Graphics/SVG/1.1/DTD/svg11.dtd">
<svg width="27" height="45" xmlns:xlink="http://www.w3.org/1999/xlink" xmlns:xml="http://www.w3.org/XML/1998/namespace" version="1.1" xmlns="http://www.w3.org/2000/svg">
  <g transform="translate(13.5, 22.5)" id="ToCenterGroup">
    <g transform="translate(0, 0)" id="TranslateGroup">
      <g transform="scale(1)" id="ScaleGroup">
        <g transform="scale(1)" id="InversionGroup">
          <g transform="rotate(0, 0, 0)" id="RotateGroup">
            <g transform="translate(-13.5, -22.5)" id="ToOriginGroup">
              <rect x="0" y="0" width="27" height="45" id="RawSize" style="fill:none;" />
              <path d="M20.121 17.742 C19.676 17.172 16.926 13.758 15.137 11.804001 C15.129 11.749001 15.114 11.702001 15.098001 11.648001 C18.254 7.601001 26.239 2.1400003 26.239 2.1400003 C26.083 1.2730004 25.083 0.5770004 24.755001 0.7340003 C20.067001 3.0540004 14.357001 8.625 13.317001 9.742001 C12.152 8.539 6.551 3.078 1.934 0.789 C1.512 0.578 0.707 1.008 0.449 2.422 C0.418 2.625 6.855 5.758 11.426001 11.508 C9.637001 13.375 7.0740004 17.141 6.6060004 17.742 C6.0360003 18.476 3.5900004 22.383 3.0200005 23.844002 C2.4500005 25.313002 0.98900056 28.078003 0.9110005 31.492 C0.82500046 34.914 1.8880005 36.867 2.8640003 38.414 C5.3410006 42.344 9.614 44.109 13.192 44.109 L13.528001 44.109 C17.106 44.109 21.380001 42.343002 23.864002 38.414 C24.841002 36.867 25.895002 34.914 25.817001 31.492 C25.731 28.078001 24.27 25.312 23.7 23.844002 C23.129 22.383 20.684 18.477 20.121 17.742 z M13.176 35.773 C10.761999 35.773 8.809 33.812 8.809 31.397999 C8.809 28.983997 10.762 27.022999 13.176001 27.022999 C15.590001 27.022999 17.551 28.984 17.551 31.397999 C17.551 33.811996 15.59 35.773 13.176 35.773 z" />
            </g>
          </g>
        </g>
      </g>
    </g>
  </g>
</svg>