<?xml version="1.0" encoding="utf-8"?>
<!DOCTYPE svg PUBLIC "-//W3C//DTD SVG 1.1//EN" "http://www.w3.org/Graphics/SVG/1.1/DTD/svg11.dtd">
<svg width="27" height="45" xmlns:xlink="http://www.w3.org/1999/xlink" xmlns:xml="http://www.w3.org/XML/1998/namespace" version="1.1" xmlns="http://www.w3.org/2000/svg">
  <g transform="translate(13.5, 22.5)" id="ToCenterGroup">
    <g transform="translate(0, 0)" id="TranslateGroup">
      <g transform="scale(1)" id="ScaleGroup">
        <g transform="scale(1)" id="InversionGroup">
          <g transform="rotate(0, 0, 0)" id="RotateGroup">
            <g transform="translate(-13.5, -22.5)" id="ToOriginGroup">
              <rect x="0" y="0" width="27" height="45" id="RawSize" style="fill:none;" />
              <path d="M20.121 17.742 C19.676 17.172 16.93 13.758 15.141001 11.804001 C15.133 11.749001 15.118001 11.702001 15.102001 11.648001 C18.262001 7.601001 26.243 2.1400003 26.243 2.1400003 C26.087 1.2730004 25.087 0.5770004 24.759 0.7340003 C20.07 3.055 14.359 8.625 13.32 9.742 C12.16 8.539 6.559 3.078 1.938 0.789 C1.512 0.58599997 0.70799994 1.008 0.454 2.422 C0.418 2.625 6.859 5.758 11.43 11.508 C9.633 13.375 7.078 17.141 6.6060004 17.742 C6.0400004 18.476 3.5940003 22.383 3.0280004 23.844002 C2.4580004 25.313002 0.99300027 28.078003 0.91100025 31.492 C0.82900023 34.914 1.8880002 36.867 2.8640003 38.414 C5.3440003 42.344 9.618 44.109 13.196 44.109 L13.532001 44.109 C17.11 44.109 21.384 42.343002 23.864 38.414 C24.844 36.867 25.899 34.914 25.821001 31.492 C25.735 28.078001 24.274 25.312 23.704 23.844002 C23.133 22.383 20.691 18.477 20.121 17.742 z M23.461 32.43 C22.852001 37.868 19.109001 41.782 13.316 41.782 C8.082 41.782 3.804 37.852 3.1639996 32.391003 C3.1439996 32.196003 3.0619996 30.938004 3.3359995 30.172003 L23.297 30.172003 C23.57 31.102 23.488 32.219 23.461 32.43 z" />
            </g>
          </g>
        </g>
      </g>
    </g>
  </g>
</svg>