<?xml version="1.0" encoding="utf-8"?>
<!DOCTYPE svg PUBLIC "-//W3C//DTD SVG 1.1//EN" "http://www.w3.org/Graphics/SVG/1.1/DTD/svg11.dtd">
<svg width="27" height="45" xmlns:xlink="http://www.w3.org/1999/xlink" xmlns:xml="http://www.w3.org/XML/1998/namespace" version="1.1" xmlns="http://www.w3.org/2000/svg">
  <g transform="translate(13.5, 22.5)" id="ToCenterGroup">
    <g transform="translate(0, 0)" id="TranslateGroup">
      <g transform="scale(1)" id="ScaleGroup">
        <g transform="scale(1)" id="InversionGroup">
          <g transform="rotate(0, 0, 0)" id="RotateGroup">
            <g transform="translate(-13.5, -22.5)" id="ToOriginGroup">
              <rect x="0" y="0" width="27" height="45" id="RawSize" style="fill:none;" />
              <path d="M20.121 17.742 C19.676 17.172 16.926 13.758 15.129 11.804001 C15.120999 11.749001 15.113 11.702001 15.098 11.648001 C18.254 7.601001 26.238998 2.1400003 26.238998 2.1400003 C26.082998 1.2730004 25.082998 0.5770004 24.755 0.7340003 C20.067 3.0540004 14.356999 8.625 13.316999 9.742001 C12.152 8.539 6.551 3.078 1.934 0.789 C1.512 0.586 0.707 1.008 0.449 2.422 C0.41 2.625 6.855 5.758 11.426 11.508 C9.629 13.375 7.0669994 17.141 6.6059995 17.742 C6.0359993 18.476 3.5899994 22.383 3.0199995 23.844002 C2.4499996 25.313002 0.9889996 28.078003 0.9029994 31.492 C0.8249994 34.914 1.8799994 36.867 2.8559995 38.414 C5.339999 42.344 9.613999 44.109 13.191999 44.109 L13.528 44.109 C17.105999 44.109 21.380001 42.343002 23.864 38.414 C24.841 36.867 25.895 34.914 25.817 31.492 C25.730999 28.078001 24.269999 25.312 23.699999 23.844002 C23.129 22.383 20.684 18.477 20.121 17.742 z M23.457 31.398 C23.504002 31.773 23.473001 32.289 23.457 32.429 C22.894001 37.476 18.863 41.781002 13.309001 41.781002 C8.075001 41.781002 3.8710012 37.851 3.2390013 32.390003 C3.2230012 32.249004 3.2080014 31.757004 3.2160013 31.398003 L3.4820013 29.257002 C3.4900012 29.234001 3.4900012 29.226002 3.4980013 29.210001 C3.9750013 27.507002 4.5450015 25.866001 6.1150017 22.921001 C7.599002 20.132002 10.842002 15.3740015 12.178001 14.093001 C12.717001 13.570002 13.420001 13.366001 13.420001 13.366001 L14.131001 13.850001 L14.131001 13.928001 C15.709002 15.498001 20.209002 21.912003 21.209002 23.912003 C21.639002 24.795002 22.600002 26.021002 23.178001 29.256002 L23.457 31.398 z" />
            </g>
          </g>
        </g>
      </g>
    </g>
  </g>
</svg>