<?xml version="1.0" encoding="utf-8"?>
<!DOCTYPE svg PUBLIC "-//W3C//DTD SVG 1.1//EN" "http://www.w3.org/Graphics/SVG/1.1/DTD/svg11.dtd">
<svg width="26" height="35" xmlns:xlink="http://www.w3.org/1999/xlink" xmlns:xml="http://www.w3.org/XML/1998/namespace" version="1.1" xmlns="http://www.w3.org/2000/svg">
  <g transform="translate(13, 17.5)" id="ToCenterGroup">
    <g transform="translate(0, 0)" id="TranslateGroup">
      <g transform="scale(1)" id="ScaleGroup">
        <g transform="scale(1)" id="InversionGroup">
          <g transform="rotate(0, 0, 0)" id="RotateGroup">
            <g transform="translate(-13, -17.5)" id="ToOriginGroup">
              <rect x="0" y="0" width="26" height="35" id="RawSize" style="fill:none;" />
              <path d="M25.422 22.086 C25.399 16.406 22.738 13.125 22.539001 12.648001 C21.531002 10.218 15.707002 3.1280003 13.891002 1.3200006 L13.891002 1.219 L13.028002 0.629 C13.028002 0.629 12.173002 0.78900003 11.516002 1.4219999 C9.895001 2.985 5.6800017 8.149 3.9260015 11.344 C1.9730016 14.907 1.2380016 16.922 0.6490016 18.992 C0.5670016 19.265001 0.21900159 22.086 0.21900159 22.086 C0.21900159 22.231 0.24600159 22.766 0.24600159 22.899 L0.2970016 22.899 C0.7230016 29.508 6.1640015 34.747 12.879002 34.747 C19.867 34.747 25.539001 29.079002 25.539001 22.087002 L25.422 22.087002 z M2.934 19.637 C3.411 17.953 4.012 16.313 5.602 13.409999 C7.032 10.804998 10.5 5.8669987 11.825001 4.589999 C12.356001 4.077999 13.055 3.9449992 13.055 3.9449992 L13.754001 4.4289994 L13.754001 4.5069995 C15.238001 5.9839993 19.945 12.490999 20.766 14.468 C20.922 14.859 23.063 17.503 23.106 22.085001 L23.055 22.085001 C23.055 22.124 23.047 22.163 23.047 22.202002 L2.711 22.202002 C2.711 22.163002 2.699 22.124002 2.699 22.085001 L2.633 22.085001 C2.688 20.914 2.617 20.703 2.934 19.637 z" />
            </g>
          </g>
        </g>
      </g>
    </g>
  </g>
</svg>