<?xml version="1.0" encoding="utf-8"?>
<!DOCTYPE svg PUBLIC "-//W3C//DTD SVG 1.1//EN" "http://www.w3.org/Graphics/SVG/1.1/DTD/svg11.dtd">
<svg width="26" height="34" xmlns:xlink="http://www.w3.org/1999/xlink" xmlns:xml="http://www.w3.org/XML/1998/namespace" version="1.1" xmlns="http://www.w3.org/2000/svg">
  <g transform="translate(13, 17)" id="ToCenterGroup">
    <g transform="translate(0, 0)" id="TranslateGroup">
      <g transform="scale(1)" id="ScaleGroup">
        <g transform="scale(1)" id="InversionGroup">
          <g transform="rotate(0, 0, 0)" id="RotateGroup">
            <g transform="translate(-13, -17)" id="ToOriginGroup">
              <rect x="0" y="0" width="26" height="34" id="RawSize" style="fill:none;" />
              <path d="M25.047 21.383 C25.024 15.757999 22.391 12.511999 22.195002 12.039 C21.195002 9.632999 15.4330015 2.6169996 13.632002 0.8239994 L13.632002 0.723 L12.777002 0.14099997 C12.777002 0.14099997 11.929003 0.297 11.281002 0.922 C9.676 2.473 5.504 7.586 3.766 10.75 C1.8360001 14.273 1.106 16.272999 0.52 18.316 C0.44199997 18.589 0.09399998 21.382 0.09399998 21.382 C0.09399998 21.527 0.124999985 22.054 0.124999985 22.187 L0.17999998 22.183 C0.598 28.726002 5.9849997 33.917 12.633 33.917 C19.555 33.917 25.164001 28.304 25.164001 21.382 L25.047 21.382 z M12.633 31.605 C7.0080004 31.605 2.453 27.05 2.453 21.429 L2.3830001 21.429 C2.4380002 20.257 2.371 20.042002 2.6880002 18.976002 C3.1650002 17.296001 3.7660003 15.652002 5.356 12.7490015 C6.782 10.147001 10.254 5.2060013 11.579 3.9290018 C12.110001 3.4170017 12.806001 3.2840018 12.806001 3.2840018 L13.509001 3.7640018 L13.509001 3.8460019 C14.989 5.323002 19.697 11.830002 20.517 13.811002 C20.677 14.198002 22.818 16.842001 22.861 21.428001 L22.814 21.428001 C22.813 27.051 18.254 31.605 12.633 31.605 z" />
              <path d="M12.641 15.926 C9.578 15.926 7.0979996 18.406 7.0979996 21.469 C7.0979996 24.532 9.577999 27.012001 12.641 27.012001 C15.704 27.012001 18.188 24.532001 18.188 21.469002 C18.188 18.406002 15.703 15.926 12.641 15.926 z M12.641 24.938 C10.726999 24.938 9.172 23.383 9.172 21.469 C9.172 19.555 10.727 18 12.641 18 C14.554999 18 16.11 19.555 16.11 21.469 C16.11 23.383 14.555 24.938 12.641 24.938 z" />
            </g>
          </g>
        </g>
      </g>
    </g>
  </g>
</svg>