<?xml version="1.0" encoding="utf-8"?>
<!DOCTYPE svg PUBLIC "-//W3C//DTD SVG 1.1//EN" "http://www.w3.org/Graphics/SVG/1.1/DTD/svg11.dtd">
<svg width="27" height="45" xmlns:xlink="http://www.w3.org/1999/xlink" xmlns:xml="http://www.w3.org/XML/1998/namespace" version="1.1" xmlns="http://www.w3.org/2000/svg">
  <g transform="translate(13.5, 22.5)" id="ToCenterGroup">
    <g transform="translate(0, 0)" id="TranslateGroup">
      <g transform="scale(1)" id="ScaleGroup">
        <g transform="scale(1)" id="InversionGroup">
          <g transform="rotate(0, 0, 0)" id="RotateGroup">
            <g transform="translate(-13.5, -22.5)" id="ToOriginGroup">
              <rect x="0" y="0" width="27" height="45" id="RawSize" style="fill:none;" />
              <path d="M26.242 2.141 C26.082 1.274 25.082 0.57800007 24.758001 0.735 C20.070002 3.0549998 14.360002 8.625999 13.317001 9.743 C12.16 8.539 6.555 3.078 1.938 0.789 C1.512 0.58599997 0.70799994 1.008 0.454 2.422 C0.418 2.625 6.859 5.766 11.43 11.508 C9.633 13.375 7.0750003 17.141 6.6060004 17.742 C6.0360003 18.476 3.5940003 22.383 3.0240004 23.844002 C2.4540005 25.313002 0.9930005 28.078003 0.9110005 31.492 C0.8290005 34.914 1.8880005 36.867 2.8640003 38.414 C5.3440003 42.344 9.618 44.109 13.196 44.109 L13.532001 44.109 C17.11 44.109 21.384 42.343002 23.864 38.414 C24.841 36.867 25.899 34.914 25.817 31.492 C25.734999 28.078001 24.274 25.312 23.699999 23.844002 C23.133999 22.383001 20.688 18.477001 20.121998 17.742 C19.676998 17.172 16.930998 13.758 15.137998 11.804001 C15.129997 11.749001 15.117997 11.702001 15.102998 11.648001 C18.258 7.602 26.242 2.141 26.242 2.141 z" />
            </g>
          </g>
        </g>
      </g>
    </g>
  </g>
</svg>