<?xml version="1.0" encoding="utf-8"?>
<!DOCTYPE svg PUBLIC "-//W3C//DTD SVG 1.1//EN" "http://www.w3.org/Graphics/SVG/1.1/DTD/svg11.dtd">
<svg width="26" height="35" xmlns:xlink="http://www.w3.org/1999/xlink" xmlns:xml="http://www.w3.org/XML/1998/namespace" version="1.1" xmlns="http://www.w3.org/2000/svg">
  <g transform="translate(13, 17.5)" id="ToCenterGroup">
    <g transform="translate(0, 0)" id="TranslateGroup">
      <g transform="scale(1)" id="ScaleGroup">
        <g transform="scale(1)" id="InversionGroup">
          <g transform="rotate(0, 0, 0)" id="RotateGroup">
            <g transform="translate(-13, -17.5)" id="ToOriginGroup">
              <rect x="0" y="0" width="26" height="35" id="RawSize" style="fill:none;" />
              <path d="M25.418 22.086 C25.394999 16.406 22.737999 13.125 22.535 12.648001 C21.527 10.218 15.707 3.132001 13.887 1.3200006 L13.887 1.219 L13.02 0.629 C13.02 0.629 12.168 0.78900003 11.512 1.4219999 C9.895 2.985 5.676 8.149 3.926 11.344 C1.9730002 14.907 1.2380002 16.922 0.6450002 18.989 C0.5670002 19.266 0.21500021 22.087 0.21500021 22.087 C0.21500021 22.232 0.24600022 22.767 0.24600022 22.9 L0.29300022 22.9 C0.7230002 29.505 6.1600003 34.748 12.871 34.748 C19.863 34.748 25.535 29.080002 25.535 22.088001 L25.418 22.088001 z M2.598 22.125 L2.528 22.125 C2.5830002 20.945 2.512 20.727 2.8330002 19.648 C3.3170002 17.953001 3.9190001 16.293001 5.528 13.363001 C6.9259996 10.812 10.247 6.0700006 11.739 4.613001 L11.739 32.285004 C6.566 31.68 2.598 27.391 2.598 22.125 z M23.152 22.125 C23.152 27.414 19.144001 31.719 14.011001 32.289 L14.011001 4.656 C15.706 6.492 20.042 12.527 20.839 14.433001 C21.003 14.828001 23.159 17.499 23.206001 22.124 L23.152 22.124 z" />
            </g>
          </g>
        </g>
      </g>
    </g>
  </g>
</svg>