<?xml version="1.0" encoding="utf-8"?>
<!DOCTYPE svg PUBLIC "-//W3C//DTD SVG 1.1//EN" "http://www.w3.org/Graphics/SVG/1.1/DTD/svg11.dtd">
<svg width="27" height="45" xmlns:xlink="http://www.w3.org/1999/xlink" xmlns:xml="http://www.w3.org/XML/1998/namespace" version="1.1" xmlns="http://www.w3.org/2000/svg">
  <g transform="translate(13.5, 22.5)" id="ToCenterGroup">
    <g transform="translate(0, 0)" id="TranslateGroup">
      <g transform="scale(1)" id="ScaleGroup">
        <g transform="scale(1)" id="InversionGroup">
          <g transform="rotate(0, 0, 0)" id="RotateGroup">
            <g transform="translate(-13.5, -22.5)" id="ToOriginGroup">
              <rect x="0" y="0" width="27" height="45" id="RawSize" style="fill:none;" />
              <path d="M13.551 26.125 C10.495999 26.125 8.011999 28.609 8.011999 31.672 C8.011999 34.735 10.495999 37.219 13.550999 37.219 C16.613998 37.219 19.098 34.735 19.098 31.672 C19.098 28.609001 16.613 26.125 13.551 26.125 z M13.551 35.141 C11.636999 35.141 10.09 33.586 10.09 31.671999 C10.09 29.758 11.637 28.203 13.551001 28.203 C15.473001 28.203 17.02 29.758 17.02 31.671999 C17.02 33.586 15.473 35.141 13.551 35.141 z" />
              <path d="M20.121 17.742 C19.676 17.172 16.926 13.758 15.129 11.804001 C15.129 11.749001 15.113 11.702001 15.098 11.648001 C18.262 7.601001 26.238998 2.1400003 26.238998 2.1400003 C26.082998 1.2730004 25.082998 0.5770004 24.755 0.7340003 C20.067 3.0540004 14.356999 8.625 13.316999 9.742001 C12.16 8.539 6.551 3.078 1.934 0.789 C1.512 0.586 0.707 1.008 0.449 2.422 C0.41 2.625 6.855 5.766 11.426 11.508 C9.629 13.375 7.0739994 17.141 6.6059995 17.742 C6.0279994 18.476 3.5899994 22.383 3.0199995 23.844002 C2.4499996 25.313002 0.9889996 28.078003 0.91099954 31.492 C0.8249995 34.914 1.8799995 36.867 2.8639994 38.414 C5.3409996 42.344 9.613999 44.109 13.191999 44.109 L13.528 44.109 C17.105999 44.109 21.380001 42.343002 23.864 38.414 C24.841 36.867 25.895 34.914 25.817 31.492 C25.730999 28.078001 24.262 25.312 23.699999 23.844002 C23.129 22.383 20.684 18.477 20.121 17.742 z M23.457 32.43 C22.894001 37.477 18.863 41.782 13.316001 41.782 C8.074001 41.782 3.8710012 37.852 3.2380009 32.391003 C3.2220008 32.250004 3.207001 31.766003 3.2150009 31.399002 L3.481001 29.258001 C3.4890008 29.235 3.4890008 29.227001 3.497001 29.211 C3.981001 27.508001 4.552001 25.875 6.1140013 22.922 C7.5980015 20.133001 10.8410015 15.375001 12.177002 14.094001 C12.7160015 13.571001 13.419002 13.367001 13.419002 13.367001 L14.130002 13.851001 L14.130002 13.929001 C15.708002 15.499001 20.216002 21.913002 21.208002 23.921001 C21.646002 24.796001 22.599003 26.023 23.177002 29.257002 L23.458002 31.398003 C23.512 31.773 23.48 32.289 23.457 32.43 z" />
            </g>
          </g>
        </g>
      </g>
    </g>
  </g>
</svg>