<?xml version="1.0" encoding="utf-8"?>
<!DOCTYPE svg PUBLIC "-//W3C//DTD SVG 1.1//EN" "http://www.w3.org/Graphics/SVG/1.1/DTD/svg11.dtd">
<svg width="35" height="27" xmlns:xlink="http://www.w3.org/1999/xlink" xmlns:xml="http://www.w3.org/XML/1998/namespace" version="1.1" xmlns="http://www.w3.org/2000/svg">
  <g transform="translate(17.5, 13.5)" id="ToCenterGroup">
    <g transform="translate(0, 0)" id="TranslateGroup">
      <g transform="scale(1)" id="ScaleGroup">
        <g transform="scale(1)" id="InversionGroup">
          <g transform="rotate(0, 0, 0)" id="RotateGroup">
            <g transform="translate(-17.5, -13.5)" id="ToOriginGroup">
              <rect x="0" y="0" width="35" height="27" id="RawSize" style="fill:none;" />
              <path d="M30.453 6.526 C28.223 3.753 24.137 0.14300013 16.535 0.0030002594 C6.023 -0.192 1.266 10.112 0.258 11.847 C-0.258 12.7300005 0.030999988 14.12 0.84000003 14.386 L13.82 23.394001 C13.965 24.050001 13.9609995 24.214 13.629 24.449001 C13.297 24.684002 12.292999 25.074001 12.285 25.301 C12.276999 25.676 12.014999 26.364 12.535 26.504 C12.512 26.504 21.371 26.855999 21.710999 26.535 C21.964998 26.301 22.300999 25.824 21.987999 25.332 C21.675 24.832 21.195 24.574001 20.710999 24.402 C20.222998 24.222 20.171999 23.472 20.503998 23.16 C20.839998 22.84 33.163998 14.129 33.163998 14.129 C33.163998 14.129 33.656 13.901999 33.836 13.332 C34.098 12.503 31.359 7.651 30.453 6.526 z M31.59 12.886 C31.258 13.198999 19.41 21.432999 18.902 21.987999 C18.398 22.543 18.226 22.949 18.531 23.769 C18.832 24.588999 18.902 25.081999 18.574 25.074 C18.25 25.066 15.889999 25.151999 15.647999 24.987999 C15.409999 24.815998 15.897999 24.214998 15.987999 23.807999 C16.081999 23.401999 15.788999 22.73 15.475999 22.237999 L2.813 13.628 C2.813 13.628 2.1759999 12.839001 2.4459999 12.151 C2.9229999 10.948 6.2469997 5.448 10.833 3.1820002 C15.239 1.0020001 21.575 1.9630002 25.083 4.08 C27.798 5.7209997 31.103 11.689 30.942001 10.916 C31.141 11.878 31.922 12.573 31.59 12.886 z" />
            </g>
          </g>
        </g>
      </g>
    </g>
  </g>
</svg>