<?xml version="1.0" encoding="utf-8"?>
<!DOCTYPE svg PUBLIC "-//W3C//DTD SVG 1.1//EN" "http://www.w3.org/Graphics/SVG/1.1/DTD/svg11.dtd">
<svg width="31" height="30" xmlns:xlink="http://www.w3.org/1999/xlink" xmlns:xml="http://www.w3.org/XML/1998/namespace" version="1.1" xmlns="http://www.w3.org/2000/svg">
  <g transform="translate(15.5, 15)" id="ToCenterGroup">
    <g transform="translate(0, 0)" id="TranslateGroup">
      <g transform="scale(1)" id="ScaleGroup">
        <g transform="scale(1)" id="InversionGroup">
          <g transform="rotate(0, 0, 0)" id="RotateGroup">
            <g transform="translate(-15.5, -15)" id="ToOriginGroup">
              <rect x="0" y="0" width="31" height="30" id="RawSize" style="fill:none;" />
              <path d="M0.217 8.047 C0.24 8.016 0.248 8.016 0.26 8 C0.24 8.023 0.217 8.047 0.217 8.047 z" />
              <path d="M0.26 8 C0.291 7.961 0.307 7.945 0.26 8 L0.26 8 z" />
              <path d="M29.744 8.203 C29.588 7.89 25.251999 3.5310001 25.251999 3.5310001 C24.9 3.515 21.522 4.445 19.474998 5.976 C19.15 6.219 18.482 6 18.65 5.703 C18.65 5.703 18.411999 0.6870003 18.177 0.45300007 C17.939 0.219 17.014 0 17.014 0 C17.014 0 11.248 0.078 10.936 0.047 C10.624 0.015999995 10.53 0.86 10.53 0.86 L10.139 5.4690003 L9.904 5.547 C9.904 5.547 6.6150002 4.3519998 5.3960004 3.125 C5.3960004 3.125 4.5210004 3.031 4.5130005 3.281 C4.5010004 3.531 0.21600056 8.047 0.21600056 8.047 C0.029 8.258 -0.072 8.273 0.061 8.672 C0.19 9.07 4.909 10.938 6.6159997 12.891 C8.327 14.844 9.967999 15.757999 11.468 18.515999 C12.968001 21.273998 13.21 22.984999 13.21 23.554998 L13.3550005 28.992998 L15.976001 28.922998 C15.976001 28.922998 16.128 24.064 16.140001 23.555998 C16.140001 23.555998 16.468 20.391998 18.339 17.625998 C18.339 17.625998 22.409 12.820997 24.362 11.516997 C24.362 11.516997 28.592 9.000998 29.404999 8.914997 C29.404 8.914 29.9 8.516 29.744 8.203 z M25.916 8.594 C21.697 10.641 19.068 14.032 18.58 14.36 C18.092 14.688 15.291 18.907 15.291 18.907 C15.061001 19.298 13.811001 18.673 13.811001 18.673 C9.443 10.617 4.014 8.664 3.732 8.281 C3.447 7.898 3.365 7.609 3.365 7.609 C3.232 7.313 4.514 6.094 4.822 5.781 C5.138 5.468 5.217 5.703 5.885 5.734 C6.557 5.7650003 11.2560005 9.718 11.701 9.922001 C12.139 10.125001 12.248 9.609001 12.248 9.609001 L12.639 2.9680014 L16.233 3.0460014 L16.628 9.632002 C16.628 9.632002 16.382 9.390002 16.855 9.9990015 L17.793 9.843001 C20.668 6.6320014 24.116999 6.2180014 24.433998 6.1710014 C24.753998 6.1240015 25.663998 7.194001 26.152998 7.8900013 C26.643 8.586 25.916 8.594 25.916 8.594 z" />
            </g>
          </g>
        </g>
      </g>
    </g>
  </g>
</svg>