<?xml version="1.0" encoding="utf-8"?>
<!DOCTYPE svg PUBLIC "-//W3C//DTD SVG 1.1//EN" "http://www.w3.org/Graphics/SVG/1.1/DTD/svg11.dtd">
<svg width="31" height="30" xmlns:xlink="http://www.w3.org/1999/xlink" xmlns:xml="http://www.w3.org/XML/1998/namespace" version="1.1" xmlns="http://www.w3.org/2000/svg">
  <g transform="translate(15.5, 15)" id="ToCenterGroup">
    <g transform="translate(0, 0)" id="TranslateGroup">
      <g transform="scale(1)" id="ScaleGroup">
        <g transform="scale(1)" id="InversionGroup">
          <g transform="rotate(0, 0, 0)" id="RotateGroup">
            <g transform="translate(-15.5, -15)" id="ToOriginGroup">
              <rect x="0" y="0" width="31" height="30" id="RawSize" style="fill:none;" />
              <path d="M29.748 8.157 C29.592 7.8409996 25.474998 2.9729996 25.474998 2.9729996 C25.123 2.9529996 22.255999 4.1019993 20.217 5.6329994 C19.889 5.8749995 19.217 5.9529996 19.389 5.655999 C19.389 5.655999 19.225 0.41399908 18.991 0.18299913 C18.757 -0.05500087 18.71 0.022999138 18.71 0.022999138 C18.71 0.022999138 11.619999 0.030999139 11.303999 -8.624047E-07 C10.990999 -0.03500086 10.897999 0.8129992 10.897999 0.8129992 L10.58 5.72 L10.346 5.7939997 C10.346 5.7939997 7.272 4.0669994 5.397 3.0789998 C5.397 3.0789998 4.522 2.9809997 4.514 3.2349997 C4.502 3.489 0.217 8.001 0.217 8.001 C0.029 8.208 -0.072 8.228 0.061 8.626 C0.194 9.024001 4.913 10.892 6.62 12.845 C8.327 14.798 10.186 15.708 11.686 18.470001 C13.186 21.228 13.580999 22.939001 13.580999 23.509 L13.577 28.947 L16.202 28.877 C16.202 28.877 16.202 24.018002 16.218 23.51 C16.218 23.51 16.913 20.416 18.784 17.651001 C18.784 17.651001 22.327 13.174001 24.28 11.870001 C24.28 11.870001 28.593 8.952001 29.409 8.870001 C29.408 8.868 29.9 8.47 29.748 8.157 z M3.732 8.235 C3.451 7.853 3.592 7.563 3.592 7.563 C3.451 7.2660003 4.514 6.196 4.826 5.8830004 C5.1380005 5.5700006 5.217 5.656 5.885 5.6840005 C6.557 5.7110004 11.553 9.672001 11.998 9.875 C12.436 10.074 12.396 9.562 12.396 9.562 L12.787 2.9170003 L13.934999 2.9210002 L13.865 18.23 C9.545 10.532 4.01 8.606 3.732 8.235 z M25.92 8.548 C21.701 10.591001 19.721 13.173 18.904 13.825001 C18.552 14.102001 16.771 17.095001 15.985999 18.266 L16.06 2.922001 L17.192999 2.9260008 L17.365 9.590001 C17.365 9.590001 17.119 9.344001 17.592 9.953001 L18.459 9.574001 C20.810999 7.2260013 24.803 5.5860014 24.654 5.6050014 C24.973999 5.5580015 25.81 7.0740013 26.302 7.7650013 C26.791 8.462 25.92 8.548 25.92 8.548 z" />
            </g>
          </g>
        </g>
      </g>
    </g>
  </g>
</svg>