<?xml version="1.0" encoding="utf-8"?>
<!DOCTYPE svg PUBLIC "-//W3C//DTD SVG 1.1//EN" "http://www.w3.org/Graphics/SVG/1.1/DTD/svg11.dtd">
<svg width="30" height="31" xmlns:xlink="http://www.w3.org/1999/xlink" xmlns:xml="http://www.w3.org/XML/1998/namespace" version="1.1" xmlns="http://www.w3.org/2000/svg">
  <g transform="translate(15, 15.5)" id="ToCenterGroup">
    <g transform="translate(0, 0)" id="TranslateGroup">
      <g transform="scale(1)" id="ScaleGroup">
        <g transform="scale(1)" id="InversionGroup">
          <g transform="rotate(0, 0, 0)" id="RotateGroup">
            <g transform="translate(-15, -15.5)" id="ToOriginGroup">
              <rect x="0" y="0" width="30" height="31" id="RawSize" style="fill:none;" />
              <path d="M0.213 8.453 C0.237 8.43 0.245 8.422 0.26 8.406 C0.237 8.43 0.213 8.453 0.213 8.453 z" />
              <path d="M0.26 8.406 C0.292 8.367 0.307 8.352 0.26 8.406 L0.26 8.406 z" />
              <path d="M29.448 8.203 C29.292 7.89 25.182 3.5310001 25.182 3.5310001 C24.83 3.515 21.776 4.4370003 19.729 5.969 C19.409 6.219 18.737 5.9919996 18.909 5.696 C18.909 5.696 18.964 0.6800003 18.729 0.4460001 C18.494 0.2119999 18.268 0 18.268 0 C18.268 0 11.729 0.07 11.415999 0.039 C11.102999 0.008000001 11.002 0.852 11.002 0.852 L10.455 6.04 L9.971 6.398 C9.971 6.398 6.0099998 4.6169996 4.698 3.3039997 C4.698 3.3039997 3.565 3.5379996 3.557 3.7879996 C3.549 4.047 0.213 8.453 0.213 8.453 C0.026 8.664 -0.068 8.688 0.057 9.078 C-0.068 8.687 5.5880003 11.906 6.604 13.062 C8.315001 15.015 9.948 15.9210005 11.448 18.679 C12.659 20.898 13.175 23.859001 13.175 23.882 L13.339 29.366001 L16.073 29.303001 C16.073 29.303001 16.136 24.217001 16.151 23.709002 C16.151 23.709002 16.581 20.475002 18.447998 17.701002 C18.447998 17.701002 22.517998 12.904002 24.470997 11.599002 C24.470997 11.599002 29.220997 8.904002 29.111996 8.919002 C29.112 8.922 29.604 8.516 29.448 8.203 z" />
            </g>
          </g>
        </g>
      </g>
    </g>
  </g>
</svg>