<?xml version="1.0" encoding="utf-8"?>
<!DOCTYPE svg PUBLIC "-//W3C//DTD SVG 1.1//EN" "http://www.w3.org/Graphics/SVG/1.1/DTD/svg11.dtd">
<svg width="32" height="30" xmlns:xlink="http://www.w3.org/1999/xlink" xmlns:xml="http://www.w3.org/XML/1998/namespace" version="1.1" xmlns="http://www.w3.org/2000/svg">
  <g transform="translate(16, 15)" id="ToCenterGroup">
    <g transform="translate(0, 0)" id="TranslateGroup">
      <g transform="scale(1)" id="ScaleGroup">
        <g transform="scale(1)" id="InversionGroup">
          <g transform="rotate(0, 0, 0)" id="RotateGroup">
            <g transform="translate(-16, -15)" id="ToOriginGroup">
              <rect x="0" y="0" width="32" height="30" id="RawSize" style="fill:none;" />
              <path d="M0.072 7.782 C0.095 7.751 0.103 7.747 0.114999995 7.731 C0.092 7.759 0.072 7.782 0.072 7.782 z" />
              <path d="M0.115 7.731 C0.146 7.7 0.162 7.681 0.115 7.731 L0.115 7.731 z" />
              <path d="M31.244 7.915 C30.782999 6.993 27.174 3.0949998 27.174 3.0949998 C26.35 3.0479999 23.494 3.6689997 20.326 6.0439997 C20.002 6.2899995 19.33 6.0639997 19.502 5.771 C19.502 5.771 19.486 0.42299986 19.252 0.18900013 C19.014 -0.044999868 18.455 0.033000126 18.455 0.033000126 C18.455 0.033000126 12.541 0.033000126 12.228 0.002000127 C11.915 -0.032999873 11.931 0.8150002 11.931 0.8150002 L11.76 5.536 L11.502 6.2159996 C11.502 6.2159996 8.846 4.6259995 7.533 3.9309995 C5.822 3.0249996 6.463 3.8649995 5.908 3.3059995 C5.908 3.3059995 4.486 2.9309995 4.478 3.2399995 C4.51 2.407 0.072 7.782 0.072 7.782 C-0.119 7.989 0.114999995 8.009 0.244 8.407 C0.553 9.344999 5.678 10.691999 7.857 13.184 C10.076 15.715 11.447 16.735 12.791 19.204 C13.998 21.423 14.061001 23.481 14.061001 23.509 L14.428 29.837002 L17.049 29.767002 C17.049 29.767002 17.310999 24.017002 17.322 23.509003 C17.322 23.509003 17.146 21.099003 19.302 17.907001 C19.302 17.907001 23.575 12.934002 25.431 11.696001 C25.431 11.696001 30.314 8.708001 31.13 8.626001 C31.131 8.626 31.455 8.325 31.244 7.915 z M15.514 19.181 C15.541 19.232 15.076 19.376 14.811 18.914999 C10.08 10.763 3.689 8.712 3.252 8.126 C2.971 7.747 2.893 7.681 2.893 7.681 C2.619 7.083 5.053 5.142 5.01 5.185 C5.326 4.869 5.623 5.439 6.2910004 5.466 C8.393001 5.56 10.236 8.142 12.107 8.993 C12.548 9.196 13.095 8.68 13.095 8.68 L13.712 2.5900002 L15.509 2.5080001 L15.514 19.181 z" />
            </g>
          </g>
        </g>
      </g>
    </g>
  </g>
</svg>