<?xml version="1.0" encoding="utf-8"?>
<!DOCTYPE svg PUBLIC "-//W3C//DTD SVG 1.1//EN" "http://www.w3.org/Graphics/SVG/1.1/DTD/svg11.dtd">
<svg width="34" height="20" xmlns:xlink="http://www.w3.org/1999/xlink" xmlns:xml="http://www.w3.org/XML/1998/namespace" version="1.1" xmlns="http://www.w3.org/2000/svg">
  <g transform="translate(17, 10)" id="ToCenterGroup">
    <g transform="translate(0, 0)" id="TranslateGroup">
      <g transform="scale(1)" id="ScaleGroup">
        <g transform="scale(1)" id="InversionGroup">
          <g transform="rotate(0, 0, 0)" id="RotateGroup">
            <g transform="translate(-17, -10)" id="ToOriginGroup">
              <rect x="0" y="0" width="34" height="20" id="RawSize" style="fill:none;" />
              <path d="M0.028 8.488 C0.087 8.67 3.942 18.83 4.06 19.018 C4.178 19.206 4.365 19.27 4.669 19.213999 C4.9730005 19.157997 12.017 18.098 16.47 18.199999 C20.928999 18.303 25.88 18.647999 28.657999 19.269 C28.963 19.338999 29.144 19.280998 29.338 19.039999 C29.526 18.8 33.486 9.192999 33.434 8.823999 C33.380997 8.457999 33.380997 8.457999 33.077 8.452 C32.772 8.443 27.903 12.172999 27.722 12.228 C27.534 12.287 27.23 12.401 27.171 12.096 C27.118 11.788 26.848999 2.5629997 26.732 2.3169994 C26.615002 2.0709991 26.252 2.0009995 26.064001 2.1819994 C25.876001 2.3579993 21.371002 11.164 21.183 11.404999 C20.994999 11.645998 20.626001 11.817999 20.509 11.509998 C20.398 11.201999 17.251001 0.26899815 17.011002 0.07799816 C16.771002 -0.11000183 16.460001 0.06599816 16.396002 0.24799816 C16.332003 0.42999816 13.080002 11.034998 13.015001 11.336998 C12.945002 11.638998 12.763001 11.638998 12.523002 11.509998 C12.277001 11.380999 7.625002 2.310998 7.390002 1.9999981 C7.150002 1.6889981 6.9040017 1.8069981 6.8390017 2.046998 C6.7690015 2.289998 6.3000016 11.922998 6.2350016 12.165998 C6.1700015 12.4089985 6.0470014 12.405998 5.8010015 12.341998 C5.561002 12.271998 0.70900154 8.070998 0.34600163 8.125998 C-0.03 8.181 -0.03 8.301 0.028 8.488 z" />
            </g>
          </g>
        </g>
      </g>
    </g>
  </g>
</svg>