<?xml version="1.0" encoding="utf-8"?>
<!DOCTYPE svg PUBLIC "-//W3C//DTD SVG 1.1//EN" "http://www.w3.org/Graphics/SVG/1.1/DTD/svg11.dtd">
<svg width="37" height="23" xmlns:xlink="http://www.w3.org/1999/xlink" xmlns:xml="http://www.w3.org/XML/1998/namespace" version="1.1" xmlns="http://www.w3.org/2000/svg">
  <g transform="translate(18.5, 11.5)" id="ToCenterGroup">
    <g transform="translate(0, 0)" id="TranslateGroup">
      <g transform="scale(1)" id="ScaleGroup">
        <g transform="scale(1)" id="InversionGroup">
          <g transform="rotate(0, 0, 0)" id="RotateGroup">
            <g transform="translate(-18.5, -11.5)" id="ToOriginGroup">
              <rect x="0" y="0" width="37" height="23" id="RawSize" style="fill:none;" />
              <path d="M35.811 8.976 L30.356 11.663 C30.356 11.663 29.208 11.886 29.624 10.849 C29.624 10.849 29.138 4.093 28.810001 3.038 C28.810001 3.038 28.488 2.059 27.673002 2.874 L23.360003 10.116 C23.360003 10.116 22.792002 10.441 22.868002 9.87 C22.950003 9.302 19.212002 0.1079998 19.212002 0.1079998 C19.212002 0.1079998 18.316002 -0.2200002 18.233002 0.26899981 C18.150002 0.75799984 14.325002 9.137 14.325002 9.137 C14.325002 9.137 13.839002 9.951 13.516002 9.219 C13.188002 8.4869995 8.547002 2.791 8.547002 2.791 C8.547002 2.791 7.8970017 2.2229998 7.7330017 3.037 C7.5750017 3.849 6.678002 11.091 6.678002 11.091 C6.678002 11.091 6.596002 12.3949995 5.699002 11.58 C4.8020015 10.765 0.49 8.814 0.49 8.814 C-0.07800001 8.893001 0.004000008 9.5460005 0.004000008 9.5460005 C0.004000008 9.5460005 5.0490003 21.587002 5.617 21.587002 C6.191 21.587002 6.8240004 21.953001 7.328 21.751001 C7.732 21.587002 12.127 20.204 18.473 20.286001 C24.825 20.368002 29.219 21.423 29.541 21.344002 C29.541 21.344002 30.684 21.669003 31.656 20.368002 L36.461 9.625002 C36.461 9.626 37.029 8.814 35.811 8.976 z M29.676 18.374 L29.348001 18.617 C16.657001 16.666 7.0530014 18.863 7.0530014 18.863 C6.3210015 18.295 4.451001 13.247001 4.451001 13.247001 L7.135001 15.283001 C8.518002 15.687001 8.600001 14.712001 8.922001 14.551001 C9.250001 14.387001 9.168001 8.041 9.742001 7.9590006 C10.305 7.877001 12.426001 12.189001 13.234001 13.490001 C14.054001 14.794001 14.863001 14.061001 15.355001 14.061001 C15.8410015 14.061001 18.525002 5.679001 18.525002 5.679001 L21.537003 14.468 C22.187002 16.097 23.980003 14.875 23.980003 14.875 L26.664003 9.666 L27.156004 14.793 C27.478004 15.118 27.560003 16.015 28.293003 15.525001 C29.026003 15.035002 31.709003 14.142 31.709003 14.142 L29.676 18.374 z" />
            </g>
          </g>
        </g>
      </g>
    </g>
  </g>
</svg>