<?xml version="1.0" encoding="utf-8"?>
<!DOCTYPE svg PUBLIC "-//W3C//DTD SVG 1.1//EN" "http://www.w3.org/Graphics/SVG/1.1/DTD/svg11.dtd">
<svg width="27" height="44" xmlns:xlink="http://www.w3.org/1999/xlink" xmlns:xml="http://www.w3.org/XML/1998/namespace" version="1.1" xmlns="http://www.w3.org/2000/svg">
  <g transform="translate(13.5, 22)" id="ToCenterGroup">
    <g transform="translate(0, 0)" id="TranslateGroup">
      <g transform="scale(1)" id="ScaleGroup">
        <g transform="scale(1)" id="InversionGroup">
          <g transform="rotate(0, 0, 0)" id="RotateGroup">
            <g transform="translate(-13.5, -22)" id="ToOriginGroup">
              <rect x="0" y="0" width="27" height="44" id="RawSize" style="fill:none;" />
              <path d="M26.405 1.647 C25.702002 0.319 26.155 -0.10699999 24.139 0.319 C22.131 0.745 16.545 15.307 15.459 16.042 C15.459 16.042 14.806999 17.448 13.341999 17.448 C11.876999 17.448 12.200999 16.53 11.372999 15.878 C10.342 15.065 4.702 0.581 2.69 0.159 C0.678 -0.26700002 1.1270001 0.159 0.42799997 1.487 C-0.103000045 2.487 -0.18100005 40.616 0.42799997 42.26 C1.03 43.907997 1.987 43.354 3.158 42.962997 C4.334 42.575996 10.559999 28.993998 11.373 27.431997 C11.713 26.783997 12.6310005 26.130997 13.342 26.130997 C14.643 26.130997 15.459 27.595997 15.459 27.595997 C16.435999 29.060997 22.498 42.736996 23.67 43.127 C24.842001 43.517002 25.803 44.072 26.404 42.424 C27.014 40.78 26.936 2.651 26.405 1.647 z M24.651 39.187 C24.198 40.425 24.366 40.152 23.487 39.863 C23.619999 39.906 17.534 27.59 17.026 26.831999 C17.026 26.831999 16.009998 24.57 15.033999 24.57 C13.592999 24.57 11.296 23.945 10.624 25.23 C10.264999 25.925 3.3509998 38.355 3.8969994 38.170998 C3.8969994 38.170998 3.1159992 40.248997 2.4279995 39.443996 C1.881 38.808 1.756 7.581 1.944 6.136 C2.092 5.0150003 2.135 4.82 3.6430001 5.136 C4.67 5.355 9.6779995 17.991 10.623 19.003 C11.74 20.198 13.311 19.804 14.096001 19.804 C15.194 19.804 16.139 18.308 16.139 18.308 C18.436 16.331001 22.123001 7.2180004 23.209 5.4800005 C24.029 4.1750007 23.92 4.4720006 24.451 5.4720006 C24.85 6.222 25.108 37.952 24.651 39.187 z" />
            </g>
          </g>
        </g>
      </g>
    </g>
  </g>
</svg>