<?xml version="1.0" encoding="utf-8"?>
<!DOCTYPE svg PUBLIC "-//W3C//DTD SVG 1.1//EN" "http://www.w3.org/Graphics/SVG/1.1/DTD/svg11.dtd">
<svg width="28" height="39" xmlns:xlink="http://www.w3.org/1999/xlink" xmlns:xml="http://www.w3.org/XML/1998/namespace" version="1.1" xmlns="http://www.w3.org/2000/svg">
  <g transform="translate(14, 19.5)" id="ToCenterGroup">
    <g transform="translate(0, 0)" id="TranslateGroup">
      <g transform="scale(1)" id="ScaleGroup">
        <g transform="scale(1)" id="InversionGroup">
          <g transform="rotate(0, 0, 0)" id="RotateGroup">
            <g transform="translate(-14, -19.5)" id="ToOriginGroup">
              <rect x="0" y="0" width="28" height="39" id="RawSize" style="fill:none;" />
              <path d="M25.35 8.32 C24.618 7.0309997 21.758 6.5389996 21.7 6.521 C21.225 6.363 19.573 6.9249997 18.77 7.192 C17.92 7.476 17.475 7.069 17.381 6.808 C16.262001 3.5210001 15.113001 1.5230002 14.803 0.9050002 C14.744 0.785 13.924 0.059 13.396 0 L13.419 0.062 C12.891999 0.121 12.070999 0.844 12.013 0.96699995 C11.702 1.5849999 10.547999 3.58 9.434999 6.867 C9.342 7.131 8.896 7.535 8.047 7.254 C7.244 6.984 5.592 6.422 5.1169996 6.58 C5.0579996 6.6029997 2.1989996 7.093 1.4669995 8.379 C1.2209995 8.813 -0.05600047 9.8289995 0.0019994974 11.952999 C0.048999496 13.660999 1.0269995 15.3689995 1.2089995 15.430999 C1.3969995 15.492999 2.2869995 16.383 3.7169995 15.368999 C6.5119996 13.388998 6.9159994 15.529999 7.6659994 16.106998 C7.911999 16.3 9.259999 19.229998 9.124999 18.848999 C9.247999 19.189 11.157999 25.06 11.157999 25.778 C11.157999 26.648 13.220999 36.961 13.220999 37.892 L13.296999 38.501 L13.595999 37.827 C13.595999 36.913 15.6589985 26.571 15.6589985 25.716 C15.6589985 24.994999 17.568998 19.126999 17.691998 18.786999 C17.556997 19.168 18.904997 16.237999 19.150997 16.047998 C19.689997 15.631998 20.076998 13.161999 23.099997 15.3099985 C24.529997 16.317999 25.419996 15.429998 25.607996 15.368999 C25.789995 15.3099985 26.767996 13.598999 26.814997 11.893999 C26.873 9.768 25.596 8.751 25.35 8.32 z" />
            </g>
          </g>
        </g>
      </g>
    </g>
  </g>
</svg>