<?xml version="1.0" encoding="utf-8"?>
<!DOCTYPE svg PUBLIC "-//W3C//DTD SVG 1.1//EN" "http://www.w3.org/Graphics/SVG/1.1/DTD/svg11.dtd">
<svg width="28" height="41" xmlns:xlink="http://www.w3.org/1999/xlink" xmlns:xml="http://www.w3.org/XML/1998/namespace" version="1.1" xmlns="http://www.w3.org/2000/svg">
  <g transform="translate(14, 20.5)" id="ToCenterGroup">
    <g transform="translate(0, 0)" id="TranslateGroup">
      <g transform="scale(1)" id="ScaleGroup">
        <g transform="scale(1)" id="InversionGroup">
          <g transform="rotate(0, 0, 0)" id="RotateGroup">
            <g transform="translate(-14, -20.5)" id="ToOriginGroup">
              <rect x="0" y="0" width="28" height="41" id="RawSize" style="fill:none;" />
              <path d="M25.339 8.32 C24.612001 7.0309997 21.753 6.5389996 21.694 6.521 C21.214 6.363 19.573 6.922 18.764 7.192 C17.914 7.473 17.463 7.069 17.381 6.808 C16.256 3.5210001 15.108001 1.5230002 14.791 0.9050002 C14.733 0.785 13.913 0.059 13.386 0 L13.415 0.059 C12.888 0.121 12.073 0.84400004 12.009 0.967 C11.698 1.585 10.55 3.58 9.425 6.87 C9.343 7.131 8.886 7.535 8.042 7.254 C7.233 6.984 5.593 6.422 5.1119995 6.58 C5.054 6.601 2.194 7.09 1.468 8.379 C1.222 8.813 -0.06699991 9.8289995 0.003000021 11.952999 C0.05000002 13.660999 1.714 16.805 1.901 16.866 C2.083 16.928 2.815 17.436998 4.3970003 16.692999 C7.1270003 15.412999 6.9870005 17.032999 7.7370005 17.609999 C7.9830003 17.8 9.331 20.841 9.196 20.460999 C9.319 20.800999 10.649 25.235998 10.649 25.956999 C10.649 26.824 13.315001 37.815998 13.315001 38.745 L13.385 39.357 L13.690001 38.683 C13.690001 37.768997 16.139 26.507 16.139 25.654999 C16.139 24.936998 17.85 20.436998 17.973 20.096998 C17.838 20.477999 18.963 18.033998 19.209 17.840998 C19.748 17.427998 20.064 15.329998 23.088 17.477997 C24.518 18.485996 25.126999 16.683996 25.314999 16.622997 C25.496998 16.560997 26.755999 13.5999975 26.803 11.893997 C26.874 9.768 25.585 8.748 25.339 8.32 z M23.476 14.681 C22.984 14.681 21.624 13.936999 20.535 14.057 C19.433 14.18 17.605 15.159 17.112999 16.014 C16.620998 16.867 15.155999 20.649 14.915998 21.381 C14.675998 22.113 14.101998 25.6 13.854999 26.209 C13.607999 26.817999 13.485998 26.817999 13.116999 26.455 C12.753999 26.086 12.249999 22.846 12.009998 22.112999 C11.769998 21.379997 10.421998 17.355 9.812998 16.5 C9.203998 15.645 7.9609976 13.937 6.982998 13.693 C4.4519978 13.059999 4.421998 13.936 3.8129978 14.056 C3.2039979 14.179 3.3209977 14.910999 2.9579978 13.447 C2.587 11.982 2.968 9.92 4.433 9.311 C5.8980002 8.702 8.441 9.739 9.32 10.032 C9.695 10.155 10.914 10.398 11.16 9.299999 C11.4 8.200999 12.719 5.760999 12.965 5.3919992 C13.211 5.0289993 13.475 5.0289993 13.961 5.3919992 C14.453 5.760999 15.555 8.322 15.7890005 8.933999 C16.035 9.542999 17.137001 10.398999 17.629 10.032999 C18.109 9.666999 20.899 8.933999 22 9.053999 C23.09 9.176999 24.338 11.007999 24.338 11.619999 C24.337 12.229 23.956 14.681 23.476 14.681 z" />
            </g>
          </g>
        </g>
      </g>
    </g>
  </g>
</svg>