<?xml version="1.0" encoding="utf-8"?>
<!DOCTYPE svg PUBLIC "-//W3C//DTD SVG 1.1//EN" "http://www.w3.org/Graphics/SVG/1.1/DTD/svg11.dtd">
<svg width="22" height="32" xmlns:xlink="http://www.w3.org/1999/xlink" xmlns:xml="http://www.w3.org/XML/1998/namespace" version="1.1" xmlns="http://www.w3.org/2000/svg">
  <g transform="translate(11, 16)" id="ToCenterGroup">
    <g transform="translate(0, 0)" id="TranslateGroup">
      <g transform="scale(1)" id="ScaleGroup">
        <g transform="scale(1)" id="InversionGroup">
          <g transform="rotate(0, 0, 0)" id="RotateGroup">
            <g transform="translate(-11, -16)" id="ToOriginGroup">
              <rect x="0" y="0" width="22" height="32" id="RawSize" style="fill:none;" />
              <path d="M15.224 18.791 C14.802 18.221 15.31 18.248001 15.31 18.248001 C15.31 18.248001 20.748001 15.959002 20.341 9.400002 C19.933998 2.8410015 14.754999 -0.07299805 11.028 0.0020017624 L10.387 0.0020017624 C6.653 -0.073 1.474 2.841 1.067 9.4 C0.6600001 15.959 6.098 18.248 6.098 18.248 C6.098 18.248 6.606 18.220999 6.184 18.790998 C5.762 19.360998 -0.3080001 30.209 0.012000084 30.454998 C0.3400001 30.696999 1.067 30.665998 1.067 30.665998 L20.34 30.665998 C20.34 30.665998 21.067 30.696999 21.395 30.454998 C21.716 30.208 15.646 19.361 15.224 18.791 z M3.075 28.798 L8.583 18.571 C9.771 17.508 7.0670004 16.563 7.0670004 16.563 C7.0670004 16.563 2.7150002 14.731 3.0440006 9.485 C3.3640006 4.239 7.5130005 1.9069996 10.497001 1.9689999 L11.005001 1.9689999 C13.997002 1.9059999 18.138 4.239 18.466002 9.485 C18.786001 14.730999 14.435001 16.563 14.435001 16.563 C14.435001 16.563 11.755001 17.539999 12.747002 18.730999 L18.497002 28.796999 L3.075 28.796999 z" />
            </g>
          </g>
        </g>
      </g>
    </g>
  </g>
</svg>