<?xml version="1.0" encoding="utf-8"?>
<!DOCTYPE svg PUBLIC "-//W3C//DTD SVG 1.1//EN" "http://www.w3.org/Graphics/SVG/1.1/DTD/svg11.dtd">
<svg width="22" height="36" xmlns:xlink="http://www.w3.org/1999/xlink" xmlns:xml="http://www.w3.org/XML/1998/namespace" version="1.1" xmlns="http://www.w3.org/2000/svg">
  <g transform="translate(11, 18)" id="ToCenterGroup">
    <g transform="translate(0, 0)" id="TranslateGroup">
      <g transform="scale(1)" id="ScaleGroup">
        <g transform="scale(1)" id="InversionGroup">
          <g transform="rotate(0, 0, 0)" id="RotateGroup">
            <g transform="translate(-11, -18)" id="ToOriginGroup">
              <rect x="0" y="0" width="22" height="36" id="RawSize" style="fill:none;" />
              <path d="M0.047 0.187 C-0.311 0.339 1.494 2.129 1.564 3.38 C1.588 3.884 1.828 8.138 1.84 8.747 C1.852 9.358999 1.4940001 14.091 1.764 15.222 C1.9050001 15.814 2.0800002 18.846 2.203 19.608 C2.473 21.293 2.842 24.167 5.2209997 27 C6.844 28.925 7.5529995 29.039 8.18 30.129 C8.813001 31.216 9.012 31.945 9.024 32.678 C9.036 33.411003 9.047 34.931 9.663 35.162003 C10.278 35.396004 10.899 35.821003 11.497 35.323 C12.101 34.822002 12.446 33.474003 12.311 32.865 C12.182 32.259003 12.5859995 30.732002 13.19 30.108002 C13.787999 29.490002 16.6 26.569002 16.958 25.951002 C17.315 25.336002 18.962 21.767002 19.296 19.687002 C19.623999 17.607002 19.659 12.357002 19.642 11.258002 C19.625 10.159002 19.56 6.254002 19.542 5.4020023 C19.53 4.5470023 20.046 1.2650023 21.171 0.4920025 C21.534 0.24000248 21.404999 0.11700249 20.796 0.0060024858 C20.181 -0.104997516 16.793999 1.7170024 16.437 2.0890024 C16.074 2.4610023 13.1970005 5.628002 12.851 6.7330027 C12.505 7.8400025 11.451 10.665003 11.363 12.619003 C11.275 14.573004 10.934999 27.399002 10.941 27.886003 C10.947 28.079004 10.619 28.475004 10.402 28.085003 C9.797 26.976 9.791 13.54 9.779 12.767 C9.767 12.278 9.334001 8.255 8.086 6.5680003 C6.3280005 4.1950006 5.5660005 2.3490005 2.5020003 0.8810005 C1.764 0.526 0.65 -0.065 0.047 0.187 z" />
            </g>
          </g>
        </g>
      </g>
    </g>
  </g>
</svg>