<?xml version="1.0" encoding="utf-8"?>
<!DOCTYPE svg PUBLIC "-//W3C//DTD SVG 1.1//EN" "http://www.w3.org/Graphics/SVG/1.1/DTD/svg11.dtd">
<svg width="24" height="38" xmlns:xlink="http://www.w3.org/1999/xlink" xmlns:xml="http://www.w3.org/XML/1998/namespace" version="1.1" xmlns="http://www.w3.org/2000/svg">
  <g transform="translate(12, 19)" id="ToCenterGroup">
    <g transform="translate(0, 0)" id="TranslateGroup">
      <g transform="scale(1)" id="ScaleGroup">
        <g transform="scale(1)" id="InversionGroup">
          <g transform="rotate(0, 0, 0)" id="RotateGroup">
            <g transform="translate(-12, -19)" id="ToOriginGroup">
              <rect x="0" y="0" width="24" height="38" id="RawSize" style="fill:none;" />
              <path d="M22.47 0.061 C22.47 0.061 21.005 0.67 20.15 1.04 C19.295 1.403 16.365 2.991 15.879 3.724 C15.387 4.456 13.599999 7.02 12.948999 9.583 C12.82 10.096001 11.882999 18.419 12.07 18.387001 L11.184999 18.425001 C11.184999 18.425001 10.627999 11.414001 9.773 9.097001 C8.595 5.891 8.858 4.728 5.062 2.258 C2.618 0.67 0.866 0.318 0.374 0.195 C-0.11199999 0.07199999 0.25100002 0.07199999 0.011000007 0.561 C-0.159 0.89199996 1.7160001 4.739 1.5990001 6.4059997 C1.5350001 7.285 2.085 9.216 2.085 9.705 C2.085 10.194 1.962 14.462999 2.085 15.075 C2.208 15.684 2.56 20.583 3.315 22.396 C4.0360003 24.122 5.465 27.174 7.9440002 29.298 L7.991 37.044 L15.21 37.044 L15.333 29.109999 C17.671 26.560999 18.034 25.831999 18.849 24.281998 C20.261002 21.609997 20.900002 19.681997 21.005001 15.926998 C21.075 13.354998 21.122002 9.580997 21.122002 8.848998 C21.122002 8.107998 21.380001 5.7669983 21.614002 4.820998 C21.854002 3.8449981 22.710003 0.7929983 23.079002 0.30599833 C23.442 -0.183 22.47 0.061 22.47 0.061 z M18.468 13.748 C18.468 15.336 18.614 18.266 17.759 20.583 C17.167 22.191 15.228001 26.442001 12.913 28.273 C12.403 28.671001 12.567 34.666 12.567 34.666 L10.5460005 34.701 C10.5460005 34.701 10.745001 28.288 10.224001 28.027 C7.494001 26.662 5.179001 20.052 5.021001 19.566 C4.857001 19.077 4.546001 15.04 4.6870008 13.707 C4.863001 12.09 4.001001 4.7129993 3.2280006 3.7779999 C3.2280006 3.7779999 4.6110005 4.469 5.3430004 5.205 C6.0750003 5.937 6.972 8.132 7.5870004 9.962999 C8.196 11.794 9.251 17.773998 9.251 18.994999 C9.251 20.098999 10.030001 24.683998 10.347 24.81 C10.956 25.053 12.667 24.989 12.913 24.622 C13.153 24.256 13.809 19.36 13.933001 18.751 C14.05 18.142 14.742001 13.257999 14.865001 12.404999 C15.064001 10.986999 16.072 7.8409986 17.185001 6.1759987 C17.917002 5.079999 19.558 3.8589988 19.558 3.8589988 C18.948 4.713 18.468 12.16 18.468 13.748 z" />
            </g>
          </g>
        </g>
      </g>
    </g>
  </g>
</svg>