<?xml version="1.0" encoding="utf-8"?>
<!DOCTYPE svg PUBLIC "-//W3C//DTD SVG 1.1//EN" "http://www.w3.org/Graphics/SVG/1.1/DTD/svg11.dtd">
<svg width="15" height="34" xmlns:xlink="http://www.w3.org/1999/xlink" xmlns:xml="http://www.w3.org/XML/1998/namespace" version="1.1" xmlns="http://www.w3.org/2000/svg">
  <g transform="translate(7.5, 17)" id="ToCenterGroup">
    <g transform="translate(0, 0)" id="TranslateGroup">
      <g transform="scale(1)" id="ScaleGroup">
        <g transform="scale(1)" id="InversionGroup">
          <g transform="rotate(0, 0, 0)" id="RotateGroup">
            <g transform="translate(-7.5, -17)" id="ToOriginGroup">
              <rect x="0" y="0" width="15" height="34" id="RawSize" style="fill:none;" />
              <path d="M6.229 8.667 C6.229 8.667 5.913 8.269 6.229 8.667 C6.557 9.065 7.6940002 10.073 8.397 10.252 C9.1 10.425 11.092 10.044 11.678 9.6779995 C12.264001 9.311999 13.237 8.591 13.494 7.7329993 C13.752001 6.8689995 13.705001 5.0549994 13.459001 4.0619993 C13.154 2.8429995 11.596001 1.7359993 10.5060005 0.9949994 C8.748 -0.20900059 6.2760005 -0.23500061 4.7870007 0.4679994 C3.3 1.173 1.671 1.864 0.757 4.062 C0.124 5.594 -0.157 7.237 0.089 8.333 C0.335 9.435 0.944 11.175 2.0340002 12.118 C3.1240003 13.061 5.386 14.421 6.639 14.35 C7.284 14.315001 6.979 15.648001 7.084 16.187 C7.201 16.723 7.037 33.923 7.037 33.923 L8.877 33.923 C8.877 33.923 9.111 14.681 8.9939995 13.8220005 C8.877 13.09 8.466999 12.823001 7.8099995 12.592001 C7.1649995 12.361001 5.0909996 12.240001 4.4819994 11.819001 C3.0169992 10.811001 2.2669995 9.868001 2.0559993 8.549002 C1.788 6.868 2.28 5.16 2.655 4.448 C3.077 3.64 4.519 2.292 5.702 2.055 C7.214 1.75 7.94 1.574 9.487 2.6 C10.682 3.394 11.491 3.892 11.561001 5.284 C11.620001 6.679 11.854001 7.013 11.092001 7.675 C10.05 8.573 9.886 8.479 8.749 8.251 C7.8939996 8.081 7.7649994 7.4190006 7.3429995 7.1440005 C6.9209995 6.8690004 6.229 8.667 6.229 8.667 z" />
            </g>
          </g>
        </g>
      </g>
    </g>
  </g>
</svg>