<?xml version="1.0" encoding="utf-8"?>
<!DOCTYPE svg PUBLIC "-//W3C//DTD SVG 1.1//EN" "http://www.w3.org/Graphics/SVG/1.1/DTD/svg11.dtd">
<svg width="17" height="34" xmlns:xlink="http://www.w3.org/1999/xlink" xmlns:xml="http://www.w3.org/XML/1998/namespace" version="1.1" xmlns="http://www.w3.org/2000/svg">
  <g transform="translate(8.5, 17)" id="ToCenterGroup">
    <g transform="translate(0, 0)" id="TranslateGroup">
      <g transform="scale(1)" id="ScaleGroup">
        <g transform="scale(1)" id="InversionGroup">
          <g transform="rotate(0, 0, 0)" id="RotateGroup">
            <g transform="translate(-8.5, -17)" id="ToOriginGroup">
              <rect x="0" y="0" width="17" height="34" id="RawSize" style="fill:none;" />
              <path d="M2.513 0.241 C2.39 0.851 0.485 7.196 0.362 8.783 C0.239 10.366 0 11.957 0 14.644 C-0.001 17.331 0.486 19.039 0.727 19.894001 C0.972 20.747002 2.437 22.944 4.271 23.675001 C6.099 24.407001 6.633 24.531002 7.001 25.018002 C7.365 25.507002 7.112 32.585003 7.112 32.585003 L8.94 32.585003 L8.952 25.017002 C8.952 25.017002 11.834999 23.919003 12.566999 23.310001 C13.299999 22.701002 14.934 21.54 15.619999 18.791 C16.23 16.351 16.088999 16.231 16.206 14.397 C16.312 12.7960005 15.497 8.784 15.374999 7.8040004 C15.257999 6.8290005 13.791999 0.48100042 13.422999 0.11700058 C13.060999 -0.2519994 11.712999 0.36000058 11.596 0.36000058 C11.473 0.36000058 13.177 5.976001 13.67 8.173 C14.091 10.079 14.525 13.177 14.278 15.128 C14.033 17.081 13.809 18.914 12.837 20.377 C11.918 21.763 10.37 22.7 8.42 22.82 C6.1809998 22.961 4.001 21.85 3.157 20.403 C2.302 18.938 1.8280001 16.105 1.8280001 14.643 C1.827 13.1779995 2.196 9.516 2.436 7.9279995 C2.6820002 6.3419995 3.8720002 2.4389997 4.4750004 0.36099958 C4.581 0.013 2.513 0.241 2.513 0.241 z" />
            </g>
          </g>
        </g>
      </g>
    </g>
  </g>
</svg>