<?xml version="1.0" encoding="utf-8"?>
<!DOCTYPE svg PUBLIC "-//W3C//DTD SVG 1.1//EN" "http://www.w3.org/Graphics/SVG/1.1/DTD/svg11.dtd">
<svg width="15" height="16" xmlns:xlink="http://www.w3.org/1999/xlink" xmlns:xml="http://www.w3.org/XML/1998/namespace" version="1.1" xmlns="http://www.w3.org/2000/svg">
  <g transform="translate(7.5, 8)" id="ToCenterGroup">
    <g transform="translate(0, 0)" id="TranslateGroup">
      <g transform="scale(1)" id="ScaleGroup">
        <g transform="scale(1)" id="InversionGroup">
          <g transform="rotate(0, 0, 0)" id="RotateGroup">
            <g transform="translate(-7.5, -8)" id="ToOriginGroup">
              <rect x="0" y="0" width="15" height="16" id="RawSize" style="fill:none;" />
              <path d="M13.75 0 L12.086 0 C11.883 0 11.711 0.172 11.711 0.375 L11.742001 8.234 L11.5 8.594 L11.164 8.632999 L10.202999 7.9529996 L1.063 0.516 C1.063 0.516 0.7739999 0.39099997 0.60999995 0.46899998 C0.422 0.477 0 0.813 0 1.242 L0 14.578 C0 14.781 0.164 14.953 0.367 14.953 L2.0310001 14.953 C2.2340002 14.953 2.3980002 14.781 2.3980002 14.578 L2.375 6.531 L2.633 6.281 L3.024 6.359 L3.665 6.7650003 L12.899 14.218 C12.899 14.218 13.227 14.468 13.508 14.484 C13.696 14.468 14.117001 14.14 14.117001 13.703 L14.117001 0.375 C14.117 0.172 13.953 0 13.75 0 z" />
            </g>
          </g>
        </g>
      </g>
    </g>
  </g>
</svg>