<?xml version="1.0" encoding="utf-8"?>
<!DOCTYPE svg PUBLIC "-//W3C//DTD SVG 1.1//EN" "http://www.w3.org/Graphics/SVG/1.1/DTD/svg11.dtd">
<svg width="22" height="49" xmlns:xlink="http://www.w3.org/1999/xlink" xmlns:xml="http://www.w3.org/XML/1998/namespace" version="1.1" xmlns="http://www.w3.org/2000/svg">
  <g transform="translate(11, 24.5)" id="ToCenterGroup">
    <g transform="translate(0, 0)" id="TranslateGroup">
      <g transform="scale(1)" id="ScaleGroup">
        <g transform="scale(1)" id="InversionGroup">
          <g transform="rotate(0, 0, 0)" id="RotateGroup">
            <g transform="translate(-11, -24.5)" id="ToOriginGroup">
              <rect x="0" y="0" width="22" height="49" id="RawSize" style="fill:none;" />
              <path d="M20.456 46.133 C20.022 46.238 18.338999 44.961 17.581 44.641 C16.819 44.313 15.408999 42.578 14.976 42.036 C13.769 40.524 14.323999 36.61 14.867 35.091 C15.41 33.572 16.93 32.486 17.906 31.837 C18.882 31.188 18.883 30.642 18.773 30.103 C18.668001 29.556 11.261001 0.29000092 11.261001 0.29000092 C10.913001 0.14900091 10.679001 0.07500091 10.495001 0.03200093 L10.495001 0.027 L10.495001 0.027 C10.464 0.023 10.421 0.008 10.394 0 L10.394 0.055 C10.214 0.102 9.9800005 0.18 9.632 0.317 C9.632 0.317 2.2259998 29.587 2.1160002 30.126 C2.0110002 30.673 2.0110002 31.212 2.9870002 31.864 C3.9630003 32.516 5.4830003 33.602 6.0220003 35.118 C6.5650005 36.638 7.1240005 40.556 5.9170003 42.063 C5.4830003 42.606 4.0690002 44.34 3.3120003 44.665 C2.5540004 44.993 0.8710003 46.267002 0.43700027 46.157 C-0.082999706 46.028 -0.24299973 48.11 0.54600024 48.11 C0.99100024 48.11 5.7800007 48.173 10.417001 48.196 L10.472001 48.165 C15.113001 48.149002 19.902 48.087 20.347 48.087 C21.136 48.086 20.976 46 20.456 46.133 z M16.128 46.348 C15.808001 46.348 5.5810003 46.297 5.2650003 46.297 C4.702 46.297 4.7060003 45.887 5.077 45.981 C5.386 46.055 5.737 45.351997 6.198 44.985 C7.0299997 44.321 8.089 42.977 8.421 41.149002 C8.929 38.36 8.78 35.852 7.0259995 33.196003 C6.3889995 32.235004 5.4009995 31.188004 4.7059994 30.727003 C4.0069995 30.258003 4.1589994 30.024004 4.2369995 29.633003 C4.3149996 29.246004 10.124 6.102003 10.124 6.102003 C10.240999 5.235003 10.455999 5.235003 10.835 6.0860033 C10.835 6.0860033 16.401001 28.750004 16.48 29.133003 C16.557999 29.524004 16.859 29.910004 16.16 30.375004 C15.465 30.840004 14.273 32.633003 13.414 33.602005 C12.082 35.098003 12.125 40.403004 12.684 41.665005 C13.348 43.157005 13.914 44.587006 14.457 44.821003 C14.995999 45.048004 15.848 46.134003 16.156 46.055004 C15.894 46.125 16.464 46.348 16.128 46.348 z" />
            </g>
          </g>
        </g>
      </g>
    </g>
  </g>
</svg>