<?xml version="1.0" encoding="utf-8"?>
<!DOCTYPE svg PUBLIC "-//W3C//DTD SVG 1.1//EN" "http://www.w3.org/Graphics/SVG/1.1/DTD/svg11.dtd">
<svg width="22" height="49" xmlns:xlink="http://www.w3.org/1999/xlink" xmlns:xml="http://www.w3.org/XML/1998/namespace" version="1.1" xmlns="http://www.w3.org/2000/svg">
  <g transform="translate(11, 24.5)" id="ToCenterGroup">
    <g transform="translate(0, 0)" id="TranslateGroup">
      <g transform="scale(1)" id="ScaleGroup">
        <g transform="scale(1)" id="InversionGroup">
          <g transform="rotate(0, 0, 0)" id="RotateGroup">
            <g transform="translate(-11, -24.5)" id="ToOriginGroup">
              <rect x="0" y="0" width="22" height="49" id="RawSize" style="fill:none;" />
              <path d="M10.474 48.164 C15.115 48.148003 19.904 48.086002 20.348999 48.086002 C21.137999 48.086002 20.973999 46.000004 20.457998 46.133003 C20.019999 46.238003 18.340998 44.965004 17.582998 44.641003 C16.821 44.313004 15.410998 42.578003 14.977999 42.036003 C13.770999 40.524002 14.325998 36.610004 14.868999 35.091003 C15.411999 33.572002 16.932 32.486004 17.907999 31.837004 C18.883999 31.188004 18.884998 30.642004 18.775 30.103004 C18.666 29.556004 11.263 0.29000473 11.263 0.29000473 C10.910999 0.14900473 10.676999 0.07500473 10.497 0.032004744 L10.497 0.027 L10.497 0.031000001 C10.466 0.023 10.423 0.008 10.396 0 L10.396 0.055 C10.216 0.102 9.982 0.18 9.634 0.317 C9.634 0.317 2.2279997 29.587 2.1219997 30.126 C2.0129998 30.673 2.0129998 31.212 2.9889998 31.864 C3.965 32.516 5.481 33.602 6.028 35.118 C6.567 36.638 7.1219997 40.556 5.9189997 42.063 C5.4809995 42.606 4.075 44.34 3.3139997 44.665 C2.5519996 44.993 0.87299967 46.267002 0.4349997 46.157 C-0.08100027 46.028 -0.2450003 48.11 0.5439997 48.11 C0.98899966 48.11 5.7819996 48.173 10.419 48.196" />
            </g>
          </g>
        </g>
      </g>
    </g>
  </g>
</svg>