<?xml version="1.0" encoding="utf-8"?>
<!DOCTYPE svg PUBLIC "-//W3C//DTD SVG 1.1//EN" "http://www.w3.org/Graphics/SVG/1.1/DTD/svg11.dtd">
<svg width="24" height="38" xmlns:xlink="http://www.w3.org/1999/xlink" xmlns:xml="http://www.w3.org/XML/1998/namespace" version="1.1" xmlns="http://www.w3.org/2000/svg">
  <g transform="translate(12, 19)" id="ToCenterGroup">
    <g transform="translate(0, 0)" id="TranslateGroup">
      <g transform="scale(1)" id="ScaleGroup">
        <g transform="scale(1)" id="InversionGroup">
          <g transform="rotate(0, 0, 0)" id="RotateGroup">
            <g transform="translate(-12, -19)" id="ToOriginGroup">
              <rect x="0" y="0" width="24" height="38" id="RawSize" style="fill:none;" />
              <path d="M22.249 11.975 C22.179 11.594001 21.886 7.9440002 21.886 7.9440002 C21.394 7.458 21.031 5.014 20.058 3.9190001 C19.074001 2.8170002 19.343 1.1590002 16.273 0.13400006 C15.1710005 -0.23499992 14.070001 0.25700006 13.824001 0.49700007 C14.562001 -0.23499992 11.510001 2.858 11.510001 2.577 C11.510001 2.9399998 10.660001 3.309 10.285001 2.454 C10.004001 1.786 7.930001 0.515 7.965001 0.49699998 C7.965001 0.49699998 6.7460012 0.13399997 6.137001 0.62 C6.218 0.555 2.351 3.818 2.11 4.404 C1.4949999 5.869 0.64499986 7.3339996 0.52199984 8.312 C0.276 9.039 -0.11 13.076 0.03 13.926 C0.159 14.658 1.014 19.416 1.495 20.395 C1.987 21.374 4.565 28.557 5.526 29.67 C5.28 29.389 8.128 35.488 9.4279995 36.139 C9.1119995 35.981 10.657999 38.336 12.604 36.754 C14.561 35.166 17.126999 27.965002 17.854 27.109001 C18.815 25.990002 20.784 19.052002 21.276001 18.074001 C21.288 18.051 22.601 13.744 22.249 11.975 z M17.978 19.539 C17.703001 20.095999 16.859001 21.817999 16.636002 22.838 C16.284002 24.401999 12.1240015 32.359 11.632002 32.846 C11.140002 33.333 11.509002 33.455 10.777002 33.209 C10.045002 32.968998 6.6290026 25.397999 6.1360025 24.789 C5.6500025 24.18 4.3080025 19.416 3.5750024 18.074 C2.8420024 16.731998 2.8430023 12.4609995 2.5960026 11.851 C2.3490028 11.241 3.335 8.189 3.452 7.58 C3.698 6.326 6.1359997 3.918 6.6280003 3.309 C6.6280003 3.309 7.4830003 2.94 7.7300005 3.426 C7.9640007 3.9180002 8.820001 4.774 9.312 5.3830004 C10.378 6.7070003 11.468 6.2910004 12.359 5.5000005 L14.316 3.5490005 C14.316 3.5490005 15.289 2.4530005 16.273 3.0630004 C17.632 3.9130006 18.640001 6.450001 18.347 6.2390003 C19.202 6.8480005 18.833 8.677 19.32 9.286 C20.129 10.3 19.32 15.011 19.32 15.6380005 C19.319 16 18.218 19.053 17.978 19.539 z" />
            </g>
          </g>
        </g>
      </g>
    </g>
  </g>
</svg>