<?xml version="1.0" encoding="utf-8"?>
<!DOCTYPE svg PUBLIC "-//W3C//DTD SVG 1.1//EN" "http://www.w3.org/Graphics/SVG/1.1/DTD/svg11.dtd">
<svg width="36" height="25" xmlns:xlink="http://www.w3.org/1999/xlink" xmlns:xml="http://www.w3.org/XML/1998/namespace" version="1.1" xmlns="http://www.w3.org/2000/svg">
  <g transform="translate(18, 12.5)" id="ToCenterGroup">
    <g transform="translate(0, 0)" id="TranslateGroup">
      <g transform="scale(1)" id="ScaleGroup">
        <g transform="scale(1)" id="InversionGroup">
          <g transform="rotate(0, 0, 0)" id="RotateGroup">
            <g transform="translate(-18, -12.5)" id="ToOriginGroup">
              <rect x="0" y="0" width="36" height="25" id="RawSize" style="fill:none;" />
              <path d="M17.359 0 L0 12.047 L17.359 24.094 L34.5 12.047 L17.359 0 z M17.34 21.688 L3.453 12.047 L17.34 2.41 L31.051 12.047 L17.34 21.688 z" />
              <path d="M17.25 7.547 C14.766 7.547 12.75 9.563 12.75 12.047 C12.75 14.531 14.766 16.547 17.25 16.547 C19.734001 16.547 21.75 14.531001 21.75 12.047001 C21.75 9.563001 19.734 7.547 17.25 7.547 z M17.25 14.609 C15.836 14.609 14.687 13.461 14.687 12.0460005 C14.687 10.6310005 15.835 9.483001 17.25 9.483001 C18.668 9.483001 19.813 10.6310005 19.813 12.0460005 C19.813 13.461 18.668 14.609 17.25 14.609 z" />
            </g>
          </g>
        </g>
      </g>
    </g>
  </g>
</svg>