<?xml version="1.0" encoding="utf-8"?>
<!DOCTYPE svg PUBLIC "-//W3C//DTD SVG 1.1//EN" "http://www.w3.org/Graphics/SVG/1.1/DTD/svg11.dtd">
<svg width="20" height="42" xmlns:xlink="http://www.w3.org/1999/xlink" xmlns:xml="http://www.w3.org/XML/1998/namespace" version="1.1" xmlns="http://www.w3.org/2000/svg">
  <g transform="translate(10, 21)" id="ToCenterGroup">
    <g transform="translate(0, 0)" id="TranslateGroup">
      <g transform="scale(1)" id="ScaleGroup">
        <g transform="scale(1)" id="InversionGroup">
          <g transform="rotate(0, 0, 0)" id="RotateGroup">
            <g transform="translate(-10, -21)" id="ToOriginGroup">
              <rect x="0" y="0" width="20" height="42" id="RawSize" style="fill:none;" />
              <path d="M16.986 34.22 C16.986 34.22 15.705 30.130001 15.795 27.197002 C15.795 27.197002 15.686 1.689003 15.928 1.6850033 C16.162 1.6770033 15.733001 0.025003314 15.733001 0.025003314 C15.733001 0.025003314 15.096001 -0.040996686 14.780001 0.045003314 L7.97 7.173 L7.412 7.028 L1.49 0.825 C1.49 0.825 0.931 0.759 0.615 0.923 C0.615 0.923 -0.096000016 4.349 0.146 8.068 C0.39200002 11.783 -0.245 18.611 0.111 20.267 C0.467 21.923 -0.139 26.689 4.506 32.208 C9.143 37.728 17.444 40.392 18.951 40.435 L19.498001 40.185 C19.498 40.185 17.498 35.638 16.986 34.22 z M3.287 6.728 C3.287 6.728 6.771 10.212 7.1 10.599 C7.424 10.99 7.428 11.15 8.213 10.814 L12.705 6.334 C12.74 6.45 13.033 6.2 13.318 6.2 C13.540999 6.2 13.759 6.45 13.818 6.4849997 C13.912 6.5399995 13.974 7.805 14.009 9.669 L7.818 15.857 L2.1539998 10.0720005 C2.3179998 8.0720005 2.498 6.826 2.498 6.826 C2.49 6.587 3.287 6.728 3.287 6.728 z M15.068 36.958 C15.302 36.716 11.584 36.958 6.7159996 32.001 C1.849 27.04 2.025 20.856 2.025 20.856 C1.853 18.254002 1.8650001 15.747001 1.9470001 13.583001 C3.7600002 15.392001 7.748 19.380001 7.748 19.380001 L14.045 13.083001 C14.076 19.29 13.982 27.634 13.982 27.634 C13.865001 29.380001 15.611 36.392002 15.611 36.392002 C15.517 37.048 15.068 36.958 15.068 36.958 z" />
            </g>
          </g>
        </g>
      </g>
    </g>
  </g>
</svg>