<?xml version="1.0" encoding="utf-8"?>
<!DOCTYPE svg PUBLIC "-//W3C//DTD SVG 1.1//EN" "http://www.w3.org/Graphics/SVG/1.1/DTD/svg11.dtd">
<svg width="20" height="42" xmlns:xlink="http://www.w3.org/1999/xlink" xmlns:xml="http://www.w3.org/XML/1998/namespace" version="1.1" xmlns="http://www.w3.org/2000/svg">
  <g transform="translate(10, 21)" id="ToCenterGroup">
    <g transform="translate(0, 0)" id="TranslateGroup">
      <g transform="scale(1)" id="ScaleGroup">
        <g transform="scale(1)" id="InversionGroup">
          <g transform="rotate(0, 0, 0)" id="RotateGroup">
            <g transform="translate(-10, -21)" id="ToOriginGroup">
              <rect x="0" y="0" width="20" height="42" id="RawSize" style="fill:none;" />
              <path d="M16.987 34.22 C16.987 34.22 15.705999 30.130001 15.796 27.197002 C15.796 27.197002 15.691 1.689003 15.924999 1.6850033 C16.163 1.6770033 15.73 0.025003314 15.73 0.025003314 C15.73 0.025003314 15.096999 -0.040996686 14.780999 0.045003314 L7.972 7.173 L7.413 7.028 L1.487 0.825 C1.487 0.825 0.932 0.759 0.62 0.923 C0.62 0.923 -0.09899998 4.349 0.14700001 8.068 C0.393 11.783 -0.248 18.611 0.11200002 20.267 C0.46400002 21.923 -0.13799998 26.689 4.503 32.208 C9.148 37.728 17.444 40.392 18.948 40.435 L19.499 40.185 C19.499 40.185 17.495 35.638 16.987 34.22 z M15.069 36.958 C15.299 36.716 11.581 36.958 6.7140007 32.001 C1.847 27.04 2.026 20.856 2.026 20.856 C1.538 13.501001 2.276 14.575001 2.276 14.575001 C2.2680001 14.337001 2.6200001 14.696001 2.6200001 14.696001 C2.6200001 14.696001 5.097 16.798 6.214 18.130001 C7.2650003 19.388 6.6980004 18.985 8.214001 18.341002 L12.706001 13.861002 C12.737001 13.978002 13.030002 13.728002 13.3150015 13.728002 C13.542002 13.728002 13.756001 13.978002 13.8150015 14.013001 C14.217002 14.243001 13.983002 27.634003 13.983002 27.634003 C13.866002 29.380003 15.612001 36.392002 15.612001 36.392002 C15.515 37.048 15.069 36.958 15.069 36.958 z" />
            </g>
          </g>
        </g>
      </g>
    </g>
  </g>
</svg>