<?xml version="1.0" encoding="utf-8"?>
<!DOCTYPE svg PUBLIC "-//W3C//DTD SVG 1.1//EN" "http://www.w3.org/Graphics/SVG/1.1/DTD/svg11.dtd">
<svg width="20" height="42" xmlns:xlink="http://www.w3.org/1999/xlink" xmlns:xml="http://www.w3.org/XML/1998/namespace" version="1.1" xmlns="http://www.w3.org/2000/svg">
  <g transform="translate(10, 21)" id="ToCenterGroup">
    <g transform="translate(0, 0)" id="TranslateGroup">
      <g transform="scale(1)" id="ScaleGroup">
        <g transform="scale(1)" id="InversionGroup">
          <g transform="rotate(0, 0, 0)" id="RotateGroup">
            <g transform="translate(-10, -21)" id="ToOriginGroup">
              <rect x="0" y="0" width="20" height="42" id="RawSize" style="fill:none;" />
              <path d="M16.985 34.22 C16.985 34.22 15.704 30.130001 15.797001 27.197002 C15.797001 27.197002 15.688001 1.689003 15.922001 1.6850033 C16.164001 1.6770033 15.727001 0.025003314 15.727001 0.025003314 C15.727001 0.025003314 15.094001 -0.040996686 14.778001 0.045003314 L7.97 7.173 L7.415 7.028 L1.4850001 0.8249998 C1.4850001 0.8249998 0.9300001 0.7589998 0.61800015 0.9229998 C0.61800015 0.9229998 -0.096999824 4.349 0.14900014 8.068 C0.392 11.782 -0.245 18.61 0.11 20.267 C0.462 21.923 -0.14 26.689 4.505 32.208 C9.146 37.728 17.446 40.392 18.954 40.435 L19.501001 40.185 C19.501 40.185 17.493 35.638 16.985 34.22 z M15.071 36.958 C15.301 36.716 11.583 36.958 6.7160006 32.001 C1.853 27.04 2.024 20.856 2.024 20.856 C1.54 13.501 2.497 6.825 2.497 6.825 C2.493 6.587 3.286 6.728 3.286 6.728 C3.286 6.728 6.77 10.212 7.099 10.599 C7.423 10.99 7.427 11.15 8.212 10.814 L12.704 6.334 C12.735 6.45 13.032 6.2 13.313 6.2 C13.54 6.2 13.757999 6.45 13.816999 6.4849997 C14.219 6.7149997 13.985 27.633 13.985 27.633 C13.868 29.379 15.61 36.391 15.61 36.391 C15.517 37.048 15.071 36.958 15.071 36.958 z" />
            </g>
          </g>
        </g>
      </g>
    </g>
  </g>
</svg>