<?xml version="1.0" encoding="utf-8"?>
<!DOCTYPE svg PUBLIC "-//W3C//DTD SVG 1.1//EN" "http://www.w3.org/Graphics/SVG/1.1/DTD/svg11.dtd">
<svg width="29" height="30" xmlns:xlink="http://www.w3.org/1999/xlink" xmlns:xml="http://www.w3.org/XML/1998/namespace" version="1.1" xmlns="http://www.w3.org/2000/svg">
  <g transform="translate(14.5, 15)" id="ToCenterGroup">
    <g transform="translate(0, 0)" id="TranslateGroup">
      <g transform="scale(1)" id="ScaleGroup">
        <g transform="scale(1)" id="InversionGroup">
          <g transform="rotate(0, 0, 0)" id="RotateGroup">
            <g transform="translate(-14.5, -15)" id="ToOriginGroup">
              <rect x="0" y="0" width="29" height="30" id="RawSize" style="fill:none;" />
              <path d="M27.553 14.517 C27.307 14.033 25.189999 11.833 23.560999 11.103001 C21.935999 10.369 20.717 9.72 20.228998 9.31 C19.740997 8.904 18.842 7.439 18.677998 6.7050004 C18.517998 5.9750004 16.400997 1.4980006 15.263998 0.6850004 C13.423998 -0.63099957 12.771997 0.2830004 12.333998 0.6850004 C11.3569975 1.5800004 10.493998 3.0330005 9.810998 4.5090003 C9.322998 5.5680003 8.997998 6.79 8.587997 8.009001 C8.427998 8.493001 7.8889976 9.357 6.4749975 9.962001 C5.9049973 10.204 4.0339975 11.181001 3.1389976 11.587001 C2.2439976 11.993001 0.20899749 14.110001 0.044997454 15.087001 C-0.11500254 16.064001 0.20899746 16.228 0.20899746 16.228 C0.28699747 16.552 2.5679975 18.423 3.2169974 18.751001 C4.2209973 19.251001 6.3969975 20.282001 7.044997 20.782001 C7.774997 21.352001 7.610997 21.595001 7.774997 21.841002 C7.9389973 22.087002 9.485997 25.423002 10.133997 26.236002 C10.785997 27.049002 12.492997 28.924002 13.551997 29.002003 C14.610997 29.088003 14.528997 29.002003 14.934998 28.760002 C16.157997 28.026003 17.215998 26.158003 17.786997 25.342003 C18.759996 23.947002 18.907997 22.572002 19.817997 21.436003 C20.329996 20.799004 19.797997 21.045002 21.204996 20.135002 C21.661997 19.838001 23.556995 19.291002 24.048996 18.994001 C25.677996 18.017002 27.435997 16.291 27.552996 15.986002 C27.795 15.33 27.795 15.009 27.553 14.517 z M24.537 15.548 C24.459002 15.759001 22.342001 17.091 21.205 17.775 C20.857 17.977999 19.322 18.279 18.982 18.451 C18.638 18.619 18.24 19.08 18.013 19.361 C17.786001 19.646 17.368 21.517 16.970001 22.088 C16.572002 22.658998 15.294002 25.634998 14.439001 26.151 C14.154001 26.318998 14.212001 26.377998 13.470001 26.318998 C12.732001 26.259998 11.615002 23.705997 11.1570015 23.134998 C10.699001 22.564 9.696001 19.818998 9.583001 19.647 C9.470001 19.479 9.583001 19.307 9.067001 18.908998 C8.618001 18.557 7.0940013 17.835 6.391001 17.482998 C5.9340014 17.255999 3.1450012 15.951998 3.0860012 15.7249975 C3.0860012 15.7249975 2.8590012 15.611998 2.9730012 14.923998 C3.0860012 14.243998 5.7110014 12.751998 6.3360014 12.470998 C6.9610014 12.181998 8.426002 11.583998 8.824001 11.411998 C9.812001 10.985998 10.191001 10.384998 10.304001 10.044998 C10.589001 9.189999 10.663001 8.251998 11.003001 7.513998 C11.480001 6.478998 12.085001 4.408998 12.769001 3.779998 C13.074001 3.4989982 13.535001 2.861998 14.820002 3.779998 C14.875002 3.8149981 17.410002 9.939998 17.215002 9.052998 C17.328003 9.564998 17.606003 10.736998 17.945002 11.017998 C18.289001 11.306997 19.492002 11.615997 20.629002 12.126998 C21.770002 12.642998 24.367 14.177998 24.535002 14.521997 C24.709 14.861 24.709 15.087 24.537 15.548 z" />
            </g>
          </g>
        </g>
      </g>
    </g>
  </g>
</svg>