<?xml version="1.0" encoding="utf-8"?>
<!DOCTYPE svg PUBLIC "-//W3C//DTD SVG 1.1//EN" "http://www.w3.org/Graphics/SVG/1.1/DTD/svg11.dtd">
<svg width="29" height="29" xmlns:xlink="http://www.w3.org/1999/xlink" xmlns:xml="http://www.w3.org/XML/1998/namespace" version="1.1" xmlns="http://www.w3.org/2000/svg">
  <g transform="translate(14.5, 14.5)" id="ToCenterGroup">
    <g transform="translate(0, 0)" id="TranslateGroup">
      <g transform="scale(1)" id="ScaleGroup">
        <g transform="scale(1)" id="InversionGroup">
          <g transform="rotate(0, 0, 0)" id="RotateGroup">
            <g transform="translate(-14.5, -14.5)" id="ToOriginGroup">
              <rect x="0" y="0" width="29" height="29" id="RawSize" style="fill:none;" />
              <path d="M27.55 13.91 C27.303999 13.422 25.187 11.226 23.562 10.492 C21.937 9.757999 20.246 9.578 19.757 9.172 C19.268 8.766 18.374 7.297 18.21 6.567 C17.976 5.5039997 16.366 1.5669999 15.154999 0.704 C13.318998 -0.612 12.716999 0.251 12.279999 0.649 C11.302999 1.5469999 10.490999 2.422 9.810999 3.899 C9.318999 4.958 8.997999 6.18 8.587999 7.399 C8.4279995 7.8830004 7.8849993 8.747 6.4749994 9.352 C5.905 9.593 4.03 10.57 3.14 10.98 C2.2450001 11.382 0.21000004 13.5 0.046000004 14.476 C-0.11800003 15.452 0.21000001 15.617 0.21000001 15.617 C0.28800002 15.945 2.569 17.812 3.218 18.14 C4.222 18.64 6.398 19.671 7.046 20.175 C7.773 20.741 7.612 20.987999 7.773 21.234 C7.937 21.476 9.483999 24.812 10.136 25.625 C10.788 26.441 12.495 28.313 13.554 28.395 C14.609 28.477001 14.580999 28.446001 14.988 28.204 C16.211 27.470001 16.953 25.286001 17.523 24.470001 C18.5 23.079 18.703001 21.861002 19.609001 20.724 C20.121 20.087002 19.695002 20.329 21.097002 19.423 C21.554003 19.126 23.558002 18.681 24.050003 18.384 C25.679003 17.407001 27.437004 15.681001 27.550003 15.376001 C27.796 14.722 27.796 14.398 27.55 13.91 z" />
            </g>
          </g>
        </g>
      </g>
    </g>
  </g>
</svg>