<?xml version="1.0" encoding="utf-8"?>
<!DOCTYPE svg PUBLIC "-//W3C//DTD SVG 1.1//EN" "http://www.w3.org/Graphics/SVG/1.1/DTD/svg11.dtd">
<svg width="24" height="26" xmlns:xlink="http://www.w3.org/1999/xlink" xmlns:xml="http://www.w3.org/XML/1998/namespace" version="1.1" xmlns="http://www.w3.org/2000/svg">
  <g transform="translate(12, 13)" id="ToCenterGroup">
    <g transform="translate(0, 0)" id="TranslateGroup">
      <g transform="scale(1)" id="ScaleGroup">
        <g transform="scale(1)" id="InversionGroup">
          <g transform="rotate(0, 0, 0)" id="RotateGroup">
            <g transform="translate(-12, -13)" id="ToOriginGroup">
              <rect x="0" y="0" width="24" height="26" id="RawSize" style="fill:none;" />
              <path d="M0 0 L0 24.891 L23.461 24.891 L23.461 0 L0 0 z M21.117 22.402 L2.344 22.402 L2.344 2.488 L21.117 2.488 L21.117 22.402 z" />
              <path d="M11.73 17.863 C14.722 17.863 17.147999 15.437 17.147999 12.445001 C17.147999 9.449 14.721998 7.0270004 11.729999 7.0270004 C8.737999 7.0270004 6.3119984 9.449 6.3119984 12.445001 C6.313 15.438 8.738 17.863 11.73 17.863 z" />
            </g>
          </g>
        </g>
      </g>
    </g>
  </g>
</svg>