<?xml version="1.0" encoding="utf-8"?>
<!DOCTYPE svg PUBLIC "-//W3C//DTD SVG 1.1//EN" "http://www.w3.org/Graphics/SVG/1.1/DTD/svg11.dtd">
<svg width="26" height="26" xmlns:xlink="http://www.w3.org/1999/xlink" xmlns:xml="http://www.w3.org/XML/1998/namespace" version="1.1" xmlns="http://www.w3.org/2000/svg">
  <g transform="translate(13, 13)" id="ToCenterGroup">
    <g transform="translate(0, 0)" id="TranslateGroup">
      <g transform="scale(1)" id="ScaleGroup">
        <g transform="scale(1)" id="InversionGroup">
          <g transform="rotate(0, 0, 0)" id="RotateGroup">
            <g transform="translate(-13, -13)" id="ToOriginGroup">
              <rect x="0" y="0" width="26" height="26" id="RawSize" style="fill:none;" />
              <path d="M0 0 L0 24.883 L24.844 24.883 L24.844 0 L0 0 z M22.172 11.328 L13.492001 2.6479998 L22.172 2.6479998 L22.172 11.328 z M20.211 12.57 L12.469 20.312 L4.727 12.57 L12.469 4.8279996 L20.211 12.57 z M11.453 2.648 L2.672 11.43 L2.672 2.648 L11.453 2.648 z M2.672 13.57 L11.332 22.234 L2.672 22.234 L2.672 13.57 z M13.539 22.234 L22.172 13.600999 L22.172 22.234 L13.539 22.234 z" />
            </g>
          </g>
        </g>
      </g>
    </g>
  </g>
</svg>