<?xml version="1.0" encoding="utf-8"?>
<!DOCTYPE svg PUBLIC "-//W3C//DTD SVG 1.1//EN" "http://www.w3.org/Graphics/SVG/1.1/DTD/svg11.dtd">
<svg width="26" height="35" xmlns:xlink="http://www.w3.org/1999/xlink" xmlns:xml="http://www.w3.org/XML/1998/namespace" version="1.1" xmlns="http://www.w3.org/2000/svg">
  <g transform="translate(13, 17.5)" id="ToCenterGroup">
    <g transform="translate(0, 0)" id="TranslateGroup">
      <g transform="scale(1)" id="ScaleGroup">
        <g transform="scale(1)" id="InversionGroup">
          <g transform="rotate(0, 0, 0)" id="RotateGroup">
            <g transform="translate(-13, -17.5)" id="ToOriginGroup">
              <rect x="0" y="0" width="26" height="35" id="RawSize" style="fill:none;" />
              <path d="M24.754 0 L0 0 L0 24.758 L11.328 24.758 L11.328 34.055 L13.449 34.055 L13.449 24.758 L24.754002 24.758 L24.754002 0 z M12.375 16.523 C10.09 16.523 8.234 14.6710005 8.234 12.382001 C8.234 10.093001 10.089001 8.241001 12.375 8.241001 C14.664 8.241001 16.52 10.093001 16.52 12.382001 C16.52 14.6710005 14.664 16.523 12.375 16.523 z" />
            </g>
          </g>
        </g>
      </g>
    </g>
  </g>
</svg>