<?xml version="1.0" encoding="utf-8"?>
<!DOCTYPE svg PUBLIC "-//W3C//DTD SVG 1.1//EN" "http://www.w3.org/Graphics/SVG/1.1/DTD/svg11.dtd">
<svg width="25" height="34" xmlns:xlink="http://www.w3.org/1999/xlink" xmlns:xml="http://www.w3.org/XML/1998/namespace" version="1.1" xmlns="http://www.w3.org/2000/svg">
  <g transform="translate(12.5, 17)" id="ToCenterGroup">
    <g transform="translate(0, 0)" id="TranslateGroup">
      <g transform="scale(1)" id="ScaleGroup">
        <g transform="scale(1)" id="InversionGroup">
          <g transform="rotate(0, 0, 0)" id="RotateGroup">
            <g transform="translate(-12.5, -17)" id="ToOriginGroup">
              <rect x="0" y="0" width="25" height="34" id="RawSize" style="fill:none;" />
              <path d="M24.887 0 L0 0 L0 23.469 L11.391 23.469 L11.391 32.742 L13.512 32.742 L13.512 23.469002 L24.887001 23.469002 L24.887001 0 z M22.598 21.313 L2.289 21.313 L2.289 2.164 L22.598 2.164 L22.598 21.313 z" />
              <path d="M12.441 17.156 C15.437 17.156 17.862999 14.726 17.862999 11.734 C17.862999 8.742001 15.438 6.32 12.441 6.32 C9.453 6.32 7.027 8.742001 7.027 11.734 C7.027 14.726 9.453 17.156 12.441 17.156 z" />
            </g>
          </g>
        </g>
      </g>
    </g>
  </g>
</svg>