<?xml version="1.0" encoding="utf-8"?>
<!DOCTYPE svg PUBLIC "-//W3C//DTD SVG 1.1//EN" "http://www.w3.org/Graphics/SVG/1.1/DTD/svg11.dtd">
<svg width="27" height="27" xmlns:xlink="http://www.w3.org/1999/xlink" xmlns:xml="http://www.w3.org/XML/1998/namespace" version="1.1" xmlns="http://www.w3.org/2000/svg">
  <g transform="translate(13.5, 13.5)" id="ToCenterGroup">
    <g transform="translate(0, 0)" id="TranslateGroup">
      <g transform="scale(1)" id="ScaleGroup">
        <g transform="scale(1)" id="InversionGroup">
          <g transform="rotate(0, 0, 0)" id="RotateGroup">
            <g transform="translate(-13.5, -13.5)" id="ToOriginGroup">
              <rect x="0" y="0" width="27" height="27" id="RawSize" style="fill:none;" />
              <path d="M26.125 10.318 L16.711 9.873 C16.711 9.873 13.578001 0.30300045 13.211 0.036999702 C13.074 -0.065000296 12.883 0.07599971 12.883 0.07599971 C12.883 0.07599971 9.453 9.614999 9.547001 9.794999 C9.547001 9.794999 9.536743E-07 10.232999 9.536743E-07 10.271999 C9.536743E-07 10.419999 7.570001 16.467 7.570001 16.467 C7.570001 16.467 4.597001 25.647 4.367001 26.107998 C4.133001 26.576998 4.672001 26.263998 4.672001 26.263998 C4.672001 26.263998 12.524001 20.927998 12.836 20.779999 C13.297001 20.546 13.305 20.796 13.609 20.849998 L21.578 26.342 L21.807999 26.185999 L18.686998 16.444 C18.686998 16.444 25.780998 10.811001 26.053999 10.514 C26.32 10.209 26.125 10.318 26.125 10.318 z M13.117 18.365 C11.125 18.365 9.507999 16.748 9.507999 14.756 C9.507999 12.764 11.124999 11.146999 13.117 11.146999 C15.109 11.146999 16.726 12.763999 16.726 14.756 C16.726 16.748001 15.109 18.365 13.117 18.365 z" />
            </g>
          </g>
        </g>
      </g>
    </g>
  </g>
</svg>