<?xml version="1.0" encoding="utf-8"?>
<!DOCTYPE svg PUBLIC "-//W3C//DTD SVG 1.1//EN" "http://www.w3.org/Graphics/SVG/1.1/DTD/svg11.dtd">
<svg width="30" height="29" xmlns:xlink="http://www.w3.org/1999/xlink" xmlns:xml="http://www.w3.org/XML/1998/namespace" version="1.1" xmlns="http://www.w3.org/2000/svg">
  <g transform="translate(15, 14.5)" id="ToCenterGroup">
    <g transform="translate(0, 0)" id="TranslateGroup">
      <g transform="scale(1)" id="ScaleGroup">
        <g transform="scale(1)" id="InversionGroup">
          <g transform="rotate(0, 0, 0)" id="RotateGroup">
            <g transform="translate(-15, -14.5)" id="ToOriginGroup">
              <rect x="0" y="0" width="30" height="29" id="RawSize" style="fill:none;" />
              <path d="M29.355 11.145 L18.675 10.692 C18.675 10.692 15.092999 0.21500015 14.846999 0.03600025 C14.699 -0.066 14.5 0.082 14.5 0.082 C14.5 0.082 10.742001 10.418 10.84 10.613 C10.84 10.613 0 11.054 0 11.097 C0 11.253 8.316 17.628 8.316 17.628 C8.316 17.628 5.1870003 27.292 4.941 27.78 C4.699 28.268002 5.269 27.94 5.269 27.94 C5.269 27.94 14.285 22.491001 14.449 22.167 C14.613 21.839 14.8550005 22.167 15.262 22.244999 L24.242 28.026 L24.488 27.862 L21.277 17.608 C21.277 17.608 29.027 11.628 29.281 11.342 C29.563 11.027 29.355 11.145 29.355 11.145 z M24.973 12.645 C24.796999 12.844001 19.370998 17.032001 19.370998 17.032001 L21.616999 24.208002 L21.449 24.325003 L15.16 20.278004 C14.879 20.223003 14.707 19.997004 14.59 20.223003 C14.481 20.450003 8.164 24.266003 8.164 24.266003 C8.164 24.266003 7.7689996 24.496002 7.9369993 24.153002 C8.108999 23.809002 10.299999 17.044003 10.299999 17.044003 C10.299999 17.044003 4.4759994 12.583002 4.4759994 12.474003 C4.4759994 12.443003 12.066 12.138002 12.066 12.138002 C11.996 12.001002 14.629 4.7630024 14.629 4.7630024 C14.629 4.7630024 14.77 4.66 14.871 4.73 C15.094 4.894 17.551 12.187 17.551 12.187 L25.028 12.503 C25.027 12.504 25.172 12.422 24.973 12.645 z" />
            </g>
          </g>
        </g>
      </g>
    </g>
  </g>
</svg>