<?xml version="1.0" encoding="utf-8"?>
<!DOCTYPE svg PUBLIC "-//W3C//DTD SVG 1.1//EN" "http://www.w3.org/Graphics/SVG/1.1/DTD/svg11.dtd">
<svg width="30" height="29" xmlns:xlink="http://www.w3.org/1999/xlink" xmlns:xml="http://www.w3.org/XML/1998/namespace" version="1.1" xmlns="http://www.w3.org/2000/svg">
  <g transform="translate(15, 14.5)" id="ToCenterGroup">
    <g transform="translate(0, 0)" id="TranslateGroup">
      <g transform="scale(1)" id="ScaleGroup">
        <g transform="scale(1)" id="InversionGroup">
          <g transform="rotate(0, 0, 0)" id="RotateGroup">
            <g transform="translate(-15, -14.5)" id="ToOriginGroup">
              <rect x="0" y="0" width="30" height="29" id="RawSize" style="fill:none;" />
              <path d="M28.766 10.918 L18.907001 9.594 C18.907001 9.594 14.790001 0.21500015 14.548001 0.034999847 C14.4070015 -0.06700015 14.208001 0.081999846 14.208001 0.081999846 C14.208001 0.081999846 9.836 9.465 9.93 9.652 C9.93 9.652 0 10.832001 0 10.879001 C0 11.035001 6.988 17.606 6.988 17.606 C6.988 17.606 5.078 26.747002 4.84 27.227001 C4.602 27.707 5.1600003 27.387001 5.1600003 27.387001 C5.1600003 27.387001 13.812 22.93 14.086 22.699001 C14.473001 22.375002 14.484 22.699001 14.883 22.781002 L23.754002 27.465002 L23.992002 27.309002 L21.793003 17.567001 C21.793003 17.567001 28.445004 11.395001 28.691002 11.118002 C28.969 10.805 28.766 10.918 28.766 10.918 z M23.676 11.793 L15.133 14.473001 L15.188001 5.2540007 C16.157001 7.3830004 17.727001 11.063001 17.727001 11.063001 L23.676 11.793 z M11.055 11.145 C11.008 11.051001 12.703 7.2350006 13.633 5.1530004 L13.586 14.348 L5.5390005 11.804999 C7.707 11.539 11.055 11.145 11.055 11.145 z M4.953 13.238 L13.1640005 15.761 L7.5350003 22.847 C8.066 20.722 8.93 17.031 8.93 17.031 C8.93 17.031 6.523 14.715 4.953 13.238 z M14.781 20.852 C14.5 20.793 14.336 20.574999 14.222 20.793 C14.144 20.949 10.874001 22.637 8.913 23.651999 L14.429 16.668 L19.96 23.620998 L14.781 20.852 z M21.227 22.863 L15.734999 15.812 L23.855999 13.332001 C22.313 14.781001 19.925999 17.004002 19.925999 17.004002 L21.227 22.863 z" />
            </g>
          </g>
        </g>
      </g>
    </g>
  </g>
</svg>