<?xml version="1.0" encoding="utf-8"?>
<!DOCTYPE svg PUBLIC "-//W3C//DTD SVG 1.1//EN" "http://www.w3.org/Graphics/SVG/1.1/DTD/svg11.dtd">
<svg width="24" height="38" xmlns:xlink="http://www.w3.org/1999/xlink" xmlns:xml="http://www.w3.org/XML/1998/namespace" version="1.1" xmlns="http://www.w3.org/2000/svg">
  <g transform="translate(12, 19)" id="ToCenterGroup">
    <g transform="translate(0, 0)" id="TranslateGroup">
      <g transform="scale(1)" id="ScaleGroup">
        <g transform="scale(1)" id="InversionGroup">
          <g transform="rotate(0, 0, 0)" id="RotateGroup">
            <g transform="translate(-12, -19)" id="ToOriginGroup">
              <rect x="0" y="0" width="24" height="38" id="RawSize" style="fill:none;" />
              <path d="M11.75 1.438 L11.133 0 L10.383 1.418 L0 37.805 L22.363 37.805 L11.75 1.438 z M18.73 35.191 L3.578 35.133 L11.078 8.5 L11.566 9.828 L18.73 35.191 z" />
              <path d="M6.68 28.27 C6.68 30.637001 8.602 32.555 10.969 32.555 C13.3359995 32.555 15.257999 30.637001 15.257999 28.27 C15.257999 25.899 13.3359995 23.981 10.969 23.981 C8.602 23.981 6.68 25.898 6.68 28.27 z" />
            </g>
          </g>
        </g>
      </g>
    </g>
  </g>
</svg>