<?xml version="1.0" encoding="utf-8"?>
<!DOCTYPE svg PUBLIC "-//W3C//DTD SVG 1.1//EN" "http://www.w3.org/Graphics/SVG/1.1/DTD/svg11.dtd">
<svg width="28" height="31" xmlns:xlink="http://www.w3.org/1999/xlink" xmlns:xml="http://www.w3.org/XML/1998/namespace" version="1.1" xmlns="http://www.w3.org/2000/svg">
  <g transform="translate(14, 15.5)" id="ToCenterGroup">
    <g transform="translate(0, 0)" id="TranslateGroup">
      <g transform="scale(1)" id="ScaleGroup">
        <g transform="scale(1)" id="InversionGroup">
          <g transform="rotate(0, 0, 0)" id="RotateGroup">
            <g transform="translate(-14, -15.5)" id="ToOriginGroup">
              <rect x="0" y="0" width="28" height="31" id="RawSize" style="fill:none;" />
              <path d="M27.386 0 L21.12 0.031 C21.108002 1.414 19.577002 5.429 18.210001 5.9690003 C18.495 5.86 15.476001 7.977 13.542001 7.6410003 C15.112 7.9140005 10.683001 7.813 8.729 5.3910003 C8.1 4.61 5.889 1.9930003 6.249 0.16400003 L0.003 0.031 C-0.024 0.304 0.105 6.2260003 3.9720001 10.156 C3.5700002 9.742001 7.492 13.172 9.851 13.422 L10.039 30.305 L17.418 30.282 L17.789 13.601999 C18.168 13.374999 23.995998 10.195999 24.902 8.359999 C26.222 5.688 27.601 3.82 27.386 0 z M20.976 8.906 C20.308 9.992001 15.535 11.937 15.878 11.687 C14.96 12.359 15.023001 13.781 14.940001 14.265 L14.721001 28.023 L12.494 28.007 L12.584001 14.64 C12.588 14.202001 12.314 11.827001 11.971001 11.742001 C7.9010005 10.781 7.7560005 9.883 5.8420005 8.570001 C3.6510005 7.0700006 2.5020006 3.3980007 2.3650005 1.8590007 L4.3530006 1.8590007 C4.94 4.883 5.815 6.047 7.226 7.352 C11.367 11.196 16.932999 9.665 16.503 9.469 C17.249 9.813 21.241001 6.375 19.839 7.594 C21.808 5.883 22.769001 3.3519998 23.308 1.7349997 L25.058 1.7659997 C24.569 6.477 20.659 9.422 20.976 8.906 z" />
            </g>
          </g>
        </g>
      </g>
    </g>
  </g>
</svg>