<?xml version="1.0" encoding="utf-8"?>
<!DOCTYPE svg PUBLIC "-//W3C//DTD SVG 1.1//EN" "http://www.w3.org/Graphics/SVG/1.1/DTD/svg11.dtd">
<svg width="28" height="41" xmlns:xlink="http://www.w3.org/1999/xlink" xmlns:xml="http://www.w3.org/XML/1998/namespace" version="1.1" xmlns="http://www.w3.org/2000/svg">
  <g transform="translate(14, 20.5)" id="ToCenterGroup">
    <g transform="translate(0, 0)" id="TranslateGroup">
      <g transform="scale(1)" id="ScaleGroup">
        <g transform="scale(1)" id="InversionGroup">
          <g transform="rotate(0, 0, 0)" id="RotateGroup">
            <g transform="translate(-14, -20.5)" id="ToOriginGroup">
              <rect x="0" y="0" width="28" height="41" id="RawSize" style="fill:none;" />
              <path d="M13.538 40.522 L13.272 39.292 L11.78 14.21 C11.78 14.21 10.181999 9.034 6.3029995 9.116 C2.4199996 9.194 1.1039996 11.038 0.76399946 11.264 C0.29899946 11.573 0.50599945 11.647 0.21699947 11.405 C-0.17000052 11.077 0.07599947 11.038 0.07599947 11.038 C0.82199943 7.179 2.7359996 4.28 6.122999 2.026 C8.829999 0.22500002 12.036999 0.00999999 13.665999 0.042000055 L13.693 0.0030000545 C15.326 -0.027999945 18.529 0.18700005 21.24 1.991 C24.623 4.245 26.536999 7.139 27.283 10.999001 C27.283 10.999001 27.303001 11.3 27.224 11.366 C26.841002 11.690001 26.943 11.452001 26.599 11.225 C26.255001 10.998 24.939001 9.155001 21.060001 9.077001 C17.177002 8.995001 15.576001 14.167001 15.576001 14.167001 L14.088001 39.249 L13.826001 40.483 L13.538 40.522 z" />
            </g>
          </g>
        </g>
      </g>
    </g>
  </g>
</svg>