<?xml version="1.0" encoding="utf-8"?>
<!DOCTYPE svg PUBLIC "-//W3C//DTD SVG 1.1//EN" "http://www.w3.org/Graphics/SVG/1.1/DTD/svg11.dtd">
<svg width="28" height="42" xmlns:xlink="http://www.w3.org/1999/xlink" xmlns:xml="http://www.w3.org/XML/1998/namespace" version="1.1" xmlns="http://www.w3.org/2000/svg">
  <g transform="translate(14, 21)" id="ToCenterGroup">
    <g transform="translate(0, 0)" id="TranslateGroup">
      <g transform="scale(1)" id="ScaleGroup">
        <g transform="scale(1)" id="InversionGroup">
          <g transform="rotate(0, 0, 0)" id="RotateGroup">
            <g transform="translate(-14, -21)" id="ToOriginGroup">
              <rect x="0" y="0" width="28" height="42" id="RawSize" style="fill:none;" />
              <path d="M27.282 11.242 C26.536 7.3829994 24.622 4.2419996 21.238998 1.9879999 C18.661 0.273 14.349 -0.008 13.692 0 L13.665 0.043 C12.036 0.012000002 8.829 0.227 6.1219997 2.027 C2.7349997 4.285 0.8209996 7.343 0.07899952 11.198999 C0.07899952 11.198999 -0.17100048 11.242 0.21599951 11.565999 C0.36399952 11.690999 0.43899953 11.561999 0.76299953 11.346999 C0.43499953 11.565999 3.0869994 10.471999 6.3019996 10.405999 C9.9539995 10.331999 10.49 15.014999 10.49 15.014999 L13.271 39.288002 L13.537 40.843002 L13.825999 40.804 L14.087999 39.249 L16.873 14.976 C16.873 14.976 17.442999 10.374 21.060999 10.448999 C24.272 10.514999 26.924 11.683 26.599998 11.469 C26.798998 11.602 27.064999 11.891 27.307 11.688 C27.38 11.625 27.282 11.242 27.282 11.242 z M13.634 25.031 C13.634 25.031 12.285999 14.418 12.285999 13.547 C12.285999 12.664 10.601999 10.448999 9.181 9.406 C7.118 7.906 4.033 8.617001 3.0829997 8.695 C3.0829997 8.695 2.7239997 8.620999 2.8449998 8.379 C4.271 5.5309997 7.634 1.9609995 13.556 1.9609995 L13.634 1.9219995 C19.552 1.9219995 22.997 5.4879994 24.423 8.34 C24.7 8.899 24.185 8.656 24.185 8.656 C23.236 8.578 20.067999 7.863 18.008999 9.367001 C16.582998 10.410001 15.098999 12.625 15.098999 13.508 C15.098999 14.375 13.750999 24.992 13.750999 24.992 L13.634 25.031 z" />
            </g>
          </g>
        </g>
      </g>
    </g>
  </g>
</svg>